<svg width="137" height="16" viewBox="0 0 137 16" fill="none" xmlns="http://www.w3.org/2000/svg">
<path d="M9.0352 6.2302C8.6776 4.0654 6.9232 2.7998 4.7096 2.7998C1.9992 2.7998 0 4.7622 0 7.9998C0 11.2374 1.9888 13.1998 4.7096 13.1998C7.0104 13.1998 8.6928 11.8062 9.0352 9.8038L7.44 9.7998C7.1688 11.095 6.044 11.807 4.72 11.807C2.9248 11.807 1.5696 10.4774 1.5696 8.0006C1.5696 5.54461 2.9192 4.1942 4.7248 4.1942C6.0592 4.1942 7.1792 4.9214 7.44 6.231H9.0352V6.2302ZM13.2304 13.0614H14.8104V9.231H17.0608L19.188 13.0614H20.988L18.6664 8.9638C19.9496 8.5038 20.5888 7.471 20.5888 6.1118C20.5888 4.2478 19.392 2.9382 16.9632 2.9382H13.2304V13.0614ZM14.8104 7.9158V4.2478H16.7944C18.3544 4.2478 18.9984 4.9646 18.9984 6.1118C18.9984 7.2534 18.3544 7.9158 16.8144 7.9158H14.8104ZM23.6272 2.9382L27.4272 9.087V13.0614H29.0016V9.087L32.8 2.9382H31.0048L28.2688 7.5398H28.1568L25.4208 2.9382H23.6264H23.6272ZM36.5968 13.0614H38.1768V9.5022H40.3248C42.7536 9.5022 43.9552 8.0838 43.9552 6.2158C43.9552 4.3518 42.7632 2.9382 40.3296 2.9382H36.5968V13.0614ZM38.1768 8.2078V4.2478H40.1608C41.7256 4.2478 42.3648 5.0686 42.3648 6.2158C42.3648 7.3622 41.7256 8.2078 40.1808 8.2078H38.1768ZM47.5944 4.2526H50.8568V13.0606H52.432V4.2526H55.6992V2.9382H47.5944V4.2526ZM68.4552 7.9998C68.4552 4.7622 66.4504 2.7998 63.7408 2.7998C61.0208 2.7998 59.0208 4.7622 59.0208 7.9998C59.0208 11.2318 61.0208 13.1998 63.7408 13.1998C66.4504 13.1998 68.4552 11.2374 68.4552 7.9998ZM66.8904 7.9998C66.8904 10.4662 65.5408 11.8062 63.7408 11.8062C61.936 11.8062 60.5904 10.4662 60.5904 7.9998C60.5904 5.5334 61.936 4.1934 63.7408 4.1934C65.5408 4.1934 66.8904 5.5334 66.8904 7.9998ZM72.7296 13.0614H74.3096V9.231H76.5592L78.6872 13.0614H80.4872L78.1656 8.9638C79.4488 8.5038 80.0872 7.471 80.0872 6.1118C80.0872 4.2478 78.8912 2.9382 76.4624 2.9382H72.7296V13.0614ZM74.3096 7.9158V4.2478H76.2936C77.8536 4.2478 78.4976 4.9646 78.4976 6.1118C78.4976 7.2534 77.8536 7.9158 76.3136 7.9158H74.3096ZM85.2 13.0614L86.1616 10.3822H90.2528L91.2088 13.0614H92.8856L89.1176 2.9382H87.292L83.5232 13.0614H85.2ZM86.6216 9.0974L88.1664 4.7774H88.248L89.792 9.0974H86.6216ZM105.152 2.9382H103.587V10.3726H103.49L98.1624 2.9382H96.7V13.0614H98.28V5.6374H98.3768L103.7 13.0614H105.152V2.9382ZM109.76 13.0614H111.34V9.9126L112.578 8.539L115.963 13.0614H117.865L113.626 7.4958L117.85 2.9382H115.861L111.468 7.7726H111.34V2.9382H109.76V13.0614Z" fill="#4183C4"/>
<path d="M134.737 4.73125V9.26406C134.737 9.37704 134.782 9.48539 134.862 9.56528C134.941 9.64517 135.05 9.69006 135.163 9.69006C135.276 9.69006 135.384 9.64517 135.464 9.56528C135.544 9.48539 135.589 9.37704 135.589 9.26406V3.70326C135.589 3.6473 135.578 3.59187 135.557 3.54014C135.535 3.48841 135.504 3.4414 135.464 3.40179C135.425 3.36219 135.378 3.33077 135.326 3.30933C135.275 3.28789 135.219 3.27686 135.163 3.27686H129.602C129.489 3.27686 129.38 3.32174 129.3 3.40163C129.22 3.48152 129.176 3.58987 129.176 3.70286C129.176 3.81584 129.22 3.92419 129.3 4.00408C129.38 4.08397 129.489 4.12886 129.602 4.12886H134.134L126.267 11.9961L126.39 12.1185L126.267 11.9961C126.187 12.076 126.143 12.1843 126.143 12.2973C126.143 12.4102 126.187 12.5185 126.267 12.5985L134.737 4.73125ZM134.737 4.73125L126.87 12.5985C126.83 12.6381 126.783 12.6696 126.731 12.6911C126.68 12.7126 126.624 12.7237 126.568 12.7237C126.512 12.7237 126.457 12.7126 126.405 12.6911C126.354 12.6696 126.307 12.6381 126.267 12.5985L134.737 4.73125Z" fill="#4183C4" stroke="#4183C4" stroke-width="0.364632"/>
</svg>
