<?xml version="1.0" encoding="utf-8"?>
<!-- Generator: Adobe Illustrator 25.0.1, SVG Export Plug-In . SVG Version: 6.00 Build 0)  -->
<svg version="1.0" id="katman_1" xmlns="http://www.w3.org/2000/svg" xmlns:xlink="http://www.w3.org/1999/xlink" x="0px" y="0px"
	 viewBox="0 0 233 160" style="enable-background:new 0 0 233 160;" xml:space="preserve">
<style type="text/css">
	.text{fill:#D65658;}
</style>
<path class="text" d="M46.8,79.4l-0.5-0.5c-0.4-0.4-1-0.1-1,0.4v6.9c0,0.3,0.3,0.6,0.6,0.6h6.9c0.5,0,0.8-0.6,0.4-1c-0.1-0.1-0.2-0.3-0.2-0.4
	c0-0.2,0.1-0.3,0.2-0.4l7.4-7.4c0.2-0.2,0.2-0.6,0-0.8L60,76.2c-0.4-0.4-0.1-1,0.4-1h6.9c0.3,0,0.6,0.3,0.6,0.6v6.9
	c0,0.5-0.6,0.8-1,0.4l-0.5-0.5c-0.2-0.2-0.6-0.2-0.8,0L53.2,95.1c-0.2,0.2-0.6,0.2-0.8,0L37.1,79.9c-0.1-0.1-0.1-0.1-0.1-0.2
	c0-0.1,0-0.1,0-0.2c0-0.1,0-0.2,0-0.2c0-0.1,0.1-0.1,0.1-0.2l21.1-21.1c0.2-0.2,0.2-0.6,0-0.8l-5-5C53.1,52.1,53,52,52.8,52
	c-0.2,0-0.3,0.1-0.4,0.2L25.2,79.5c-0.2,0.2-0.2,0.6,0,0.8l27.3,27.3c0.2,0.2,0.6,0.2,0.8,0l27.3-27.3c0.2-0.2,0.2-0.6,0-0.8
	l-16-16.1c-0.2-0.2-0.6-0.2-0.8,0l-16,16c-0.1,0.1-0.1,0.1-0.2,0.1c-0.1,0-0.1,0-0.2,0s-0.2,0-0.2,0C46.9,79.5,46.9,79.5,46.8,79.4
	L46.8,79.4z M172.7,86.3c-0.7,0-1.3,0.3-1.8,0.8c-0.5,0.5-0.8,1.1-0.8,1.8c0,1.1,0.5,1.9,1.6,2.5c1.2,0.3,2.1,0.1,2.8-0.6
	c0.5-0.5,0.8-1.1,0.8-1.8c0-0.7-0.3-1.3-0.8-1.8C174,86.6,173.4,86.3,172.7,86.3L172.7,86.3L172.7,86.3z M131.2,66.7h-1.9
	c-0.8,0-1.5,0.7-1.5,1.5v1.1c-2-2.1-4.4-3.2-6.9-3.2c-3,0-5.5,1.1-7.5,3.3c-2,2.2-3,5-3,8.3c0,3.4,1,6.2,3,8.5
	c2,2.2,4.5,3.3,7.6,3.3c2.4,0,4.7-1,6.8-3v2.1c0,1,0.8,1.9,1.9,1.9h3.3V68.4C133,67.5,132.2,66.7,131.2,66.7z M126.4,83
	c-1.2,1.3-2.7,2-4.6,2c-1.8,0-3.3-0.7-4.4-2c-1.1-1.3-1.7-3.1-1.7-5.2c0-2,0.6-3.7,1.8-5c1.2-1.3,2.7-2,4.4-2c1.9,0,3.4,0.7,4.6,2
	c1.2,1.4,1.8,3.1,1.8,5.1C128.1,80,127.6,81.7,126.4,83L126.4,83L126.4,83z M110.4,70.5v-2.2c0-0.9-0.7-1.5-1.5-1.5h-2
	c-0.9,0-1.5,0.7-1.5,1.5v1c-1.9-2.1-4.2-3.1-7-3.1c-3.2,0-5.8,1.2-7.7,3.6c-1.8,2.3-2.7,5-2.7,8.3c0,3.3,1,6.1,2.9,8.3
	c1.9,2.2,4.4,3.3,7.4,3.3c2.7,0,5-1,7-3.1v3.1c0,4.6-1.9,6.9-5.6,6.9c-2,0-3.6-0.7-4.6-2.1c-0.3-0.4-0.5-0.8-0.7-1.3
	c-0.3-0.7-0.9-1.2-1.7-1.2h-1.9c-1,0-1.7,0.9-1.5,1.9c0.5,2,1.6,3.7,3.1,4.9c1.9,1.6,4.4,2.4,7.3,2.4c3.5,0,6.3-1.2,8.3-3.5
	c1.1-1.2,1.8-2.6,2.1-4.3c0.1-0.6,0.2-1.3,0.3-2.1c0.1-0.8,0.1-1.7,0.1-2.8v-3.2c-1.4-2.1-2.2-4.5-2.2-7.4
	C108.3,74.9,109,72.5,110.4,70.5L110.4,70.5L110.4,70.5z M103.9,82.8c-1.1,1.4-2.7,2.1-4.6,2.1c-2,0-3.5-0.7-4.6-2.1
	c-1-1.3-1.5-2.9-1.5-5c0-2.1,0.5-3.7,1.5-5c1.1-1.4,2.7-2.2,4.6-2.2c1.8,0,3.3,0.7,4.5,2c1.2,1.3,1.7,3,1.7,5.2
	C105.5,79.9,105,81.5,103.9,82.8L103.9,82.8L103.9,82.8z M153,66.7L153,66.7l-10.6,0v-6.5c0-0.8-0.7-1.5-1.5-1.5h-2.1
	c-0.8,0-1.5,0.7-1.5,1.5v6.5h-2.2v4.8h2.2v19.1h2.9c0.3,0,0.6-0.1,0.8-0.2c0.3-0.1,0.5-0.3,0.7-0.5c0.2-0.2,0.4-0.4,0.5-0.7
	c0.1-0.3,0.2-0.6,0.2-0.8V71.5h5.3c0.4-0.8,0.9-1.5,1.5-2.2C150.2,68.1,151.5,67.3,153,66.7L153,66.7L153,66.7z M179.2,58.7
	c-0.9,0-1.7,0.3-2.3,1c-0.7,0.7-1,1.4-1,2.3c0,0.9,0.3,1.7,1,2.4c0.7,0.7,1.4,1,2.4,1c0.9,0,1.7-0.3,2.3-1c0.7-0.7,1-1.4,1-2.4
	c0-0.9-0.3-1.7-1-2.3C180.9,59,180.1,58.7,179.2,58.7z M180.2,69.2h-1.9c-1,0-1.7,0.8-1.7,1.7v16.3c0.4,0.5,0.6,1,0.6,1.6
	c0,0.6-0.2,1.2-0.6,1.6v0.9h3.3c1,0,1.8-0.8,1.8-1.8V70.8C181.7,69.9,181.1,69.2,180.2,69.2L180.2,69.2z M204.3,72.4
	c-2.3-2.3-5.1-3.4-8.4-3.4c-3.3,0-6.1,1.1-8.4,3.4c-2.3,2.2-3.4,5-3.4,8.2c0,3.4,1.1,6.2,3.4,8.5c2.2,2.3,5,3.4,8.4,3.4
	c3.4,0,6.2-1.1,8.5-3.4c2.3-2.3,3.4-5,3.4-8.4C207.7,77.4,206.6,74.6,204.3,72.4L204.3,72.4z M200.7,85.9c-1.2,1.3-2.8,1.9-4.8,1.9
	c-2,0-3.6-0.6-4.8-2c-1.2-1.3-1.8-3-1.8-5.3c0-2.1,0.6-3.8,1.8-5.1c1.2-1.3,2.8-2,4.8-2c2,0,3.6,0.7,4.8,2c1.2,1.3,1.8,3,1.8,5.2
	C202.5,82.9,201.9,84.6,200.7,85.9L200.7,85.9z"/>
<path class="text" d="M154.9,85c-1.1-1.1-1.6-2.5-1.8-4.4h14.7c0.7,0,1.2-0.5,1.2-1.2c0-3.7-0.9-6.5-2.8-8.6c-1.9-2.1-4.5-3.1-7.7-3.1
	c-3.2,0-5.8,1.1-7.8,3.2c-1.9,2.2-2.9,5-2.9,8.5c0,3.5,1,6.4,3,8.5c1.4,1.5,3.1,2.5,5.1,2.9c0.9,0.2,1.7,0.3,2.6,0.3
	c3.6,0.1,6.8,0.2,10.5,0.2l0-0.5c-0.4-0.5-0.7-1.1-0.7-1.8c0-0.7,0.2-1.2,0.7-1.7l0-0.6c-2.9-0.1-9.9-0.1-10.1-0.1
	C157.3,86.6,156,86.1,154.9,85L154.9,85L154.9,85z M154.2,74.8c0.3-0.5,0.7-0.9,1.2-1.3c0.5-0.4,0.9-0.6,1.5-0.8
	c0.5-0.2,1.1-0.3,1.8-0.3c2.7,0,4.5,1.4,5.2,4.1h-10.3C153.7,75.8,153.9,75.3,154.2,74.8L154.2,74.8z"/>
</svg>
