<?xml version="1.0" encoding="utf-8"?>
<!-- Generator: Adobe Illustrator 25.0.1, SVG Export Plug-In . SVG Version: 6.00 Build 0)  -->
<svg version="1.0" id="katman_1" xmlns="http://www.w3.org/2000/svg" xmlns:xlink="http://www.w3.org/1999/xlink" x="0px" y="0px"
	 viewBox="0 0 207.3 119.3" style="enable-background:new 0 0 207.3 119.3;" xml:space="preserve">
<style type="text/css">
	.st0{fill:#EB1A6B;}
	.st1{fill-rule:evenodd;clip-rule:evenodd;fill:#1D1D1B;}
</style>
<path class="st0" d="M29.8,58.3c0.8,1.4-1,1.8-1.8,1.9c-1.2,0.1-1.5-0.6-1.3-1.5c0.1-0.3,0.3-0.6,0.5-0.8c0.2-0.2,0.6-0.4,0.9-0.4
	c0.3,0,0.7,0,0.9,0.2C29.4,57.8,29.6,58,29.8,58.3z"/>
<path class="st0" d="M34.6,55.8c-0.9,7,11.3,5.5,11.1,11c1.2-1.6,1.7-5.8-1.8-8C40.7,56.8,36.6,57.9,34.6,55.8z"/>
<path class="st0" d="M41.7,53.1c-0.1-0.1-0.2-0.1-0.2-0.2C41.5,53,41.6,53.1,41.7,53.1z"/>
<path class="st0" d="M44.5,58.2L44.5,58.2c-0.1-0.2-0.2-0.4-0.4-0.6c-0.4-0.6-1-1-1.7-1.1c-0.4-0.1-0.9-0.2-1.4-0.2
	c-0.5,0-0.9-0.1-1.4-0.1c-1-0.1-1.9-0.2-2.9-0.4c-0.2-0.1-0.5-0.1-0.7-0.2c-0.1,0-0.2-0.1-0.4-0.1c-0.1-0.1-0.2-0.1-0.4-0.2
	c-0.5-0.2-0.9-0.6-1.2-0.9c-0.7-0.7-1.3-1.5-1.9-2.2c-0.6-0.8-1.1-1.5-1.8-2.2c-0.6-0.7-1.4-1.3-2.2-1.7c-0.8-0.4-1.8-0.7-2.7-0.8
	c1-0.1,2,0,2.9,0.4c0.9,0.4,1.8,0.9,2.5,1.6c0.5,0.4,0.9,0.9,1.3,1.4c3.1-0.6,5.5-0.1,7.4,1l0,0c0.6,0.3,1.2,0.7,1.7,1.2
	c0.1,0.1,0.2,0.1,0.2,0.2c0.4,0.4,0.8,0.8,1.1,1.2l0,0C43.9,55.8,44.5,57.3,44.5,58.2z"/>
<path class="st0" d="M44.5,58.2L44.5,58.2L44.5,58.2z"/>
<path class="st0" d="M25.7,48.3c0.8,0.1,1.6,0.4,2.1,1c0.5,0.6,0.7,1.4,0.9,2.1c0.1,0.6,0.2,1.2,0.4,1.7c0.1,0.3,0.3,0.5,0.4,0.7
	c0.1,0.2,0.3,0.4,0.4,0.6c0,0,0,0.1,0,0.1c0,0,0,0.1,0,0.1c-0.3,0.3-1,0-1.3-0.2c-0.5-0.2-0.9-0.6-1.3-1c-1.1-1.2-1.7-3-1.7-4.6
	C25.6,48.7,25.7,48.5,25.7,48.3z"/>
<path class="st0" d="M38.7,62.3c-1.7,4.7,6,7.9,3.1,12.7c2.9-1.2,4.3-4.9,3.1-7.8C43.9,64.6,40.7,63.6,38.7,62.3z"/>
<path class="st0" d="M28.6,68.4c0.5-0.3,1-0.6,1.5-0.9c0.5-0.2,1.1-0.4,1.7-0.5c1.1-0.2,2.3-0.3,3.2-0.7c0.5-0.2,0.9-0.4,1.3-0.8
	c0.4-0.3,0.6-0.7,0.8-1.2c0.2-0.5,0.2-1,0.2-1.5c0-0.6-0.2-1.1-0.4-1.6c0.4,0.4,0.7,1,0.9,1.6c0.2,0.6,0.2,1.2,0.1,1.8
	c-0.1,0.6-0.5,1.2-0.9,1.7c-0.4,0.4-1,0.8-1.6,1c-0.6,0.2-1.2,0.3-1.8,0.4c-0.6,0-1.1,0.1-1.7,0.1C30.8,67.8,29.7,68,28.6,68.4z"/>
<path class="st0" d="M39.4,76.7c-0.2,0.1-0.3,0.3-0.5,0.4c-0.2,0.1-0.4,0.2-0.6,0.3c-0.4,0.2-0.9,0.3-1.4,0.3c-1.3,0-2.2-1-2.7-2.1
	c-0.4-0.7-0.6-1.5-1-2.2c-0.6-1-1.7-1.8-2.9-1.7c-0.5,0.1-1,0.3-1.2,0.7c-0.7,1.1,0.3,2.7,1.7,2.5c0.1,0,0.2,0,0.3-0.1
	c0.1,0,0.2-0.1,0.3-0.2c0.2-0.2,0.3-0.4,0.4-0.6c0.1-0.2,0.1-0.5,0.1-0.8c-0.1-0.3-0.2-0.5-0.4-0.6c0.3,0.1,0.5,0.3,0.6,0.6
	C32,73.7,32,74,32,74.3c-0.1,0.3-0.2,0.6-0.4,0.8c-0.1,0.1-0.2,0.2-0.4,0.3c-0.1,0.1-0.3,0.2-0.4,0.2c-0.3,0.1-0.6,0.1-0.9,0.1
	c-0.4-0.1-0.9-0.2-1.2-0.5c-0.4-0.3-0.7-0.8-1.1-1.1c-0.4-0.5-0.9-0.8-1.5-1.1c-0.4-0.2-0.8-0.3-1.2-0.4c-0.2,0-0.4-0.1-0.6-0.1
	c-0.1,0-0.6-0.1-0.6-0.1c0.7-0.6,1.4-1.1,2.1-1.6c0.8-0.5,1.6-0.8,2.5-1.1c0.9-0.3,1.8-0.3,2.8-0.2c0.5,0.1,0.9,0.2,1.4,0.4
	c0.5,0.2,0.9,0.5,1.3,0.8c0.4,0.4,0.7,0.8,0.9,1.2c0.2,0.4,0.3,0.9,0.4,1.4c0.3,1.4,0.2,3.6,2,3.9c0.1,0,0.2,0,0.3,0l0.3,0
	c0.2,0,0.4,0,0.6-0.1C38.6,77.1,39,76.9,39.4,76.7z"/>
<path class="st0" d="M28.7,75.2L28.7,75.2L28.7,75.2z"/>
<path class="st0" d="M27.1,55.4c-0.1,0.3-0.2,0.5-0.3,0.7c-0.3,0.4-0.7,0.7-1.1,0.9c-0.4,0.2-0.8,0.3-1.3,0.3c-0.1,0-0.2,0-0.3,0
	c-0.3,0-0.5,0.1-0.8,0.3c-0.2,0.2-0.4,0.4-0.4,0.7c0,0.1-0.1,0.3-0.1,0.4c0,0.4-0.1,0.7-0.1,1.2c-0.1,0.8-0.3,1.5-0.6,2.2
	c-0.4,0.9-0.9,1.7-0.8,2.7c0.1,0.7,0.4,1.2,0.9,1.6c0.8,0.9,2.7,1.3,2.3,3.4c-0.3,1.3-2.4,2.6-5.3,3.1c0.3,0-0.4-1.2-0.4-1.3
	c-0.3-0.5-0.7-1-0.9-1.5c-0.5-1-0.7-2.3-0.5-3.4c0.2-1.2,1.1-2.1,1.8-3.1c0.9-1.1,1.8-2.5,2-4c0-0.3,0.1-0.8,0.2-1.2
	c0.1-0.5,0.2-0.9,0.4-1.4c0.1-0.3,0.3-0.5,0.6-0.8c0.1-0.1,0.2-0.3,0.2-0.4c0-0.2,0-0.3-0.1-0.5l-4.7-8.5l6.8,8.4
	c0.1,0.1,0.2,0.2,0.3,0.2c0.1,0.1,0.2,0.1,0.4,0.1c0.1,0,0.2,0,0.4-0.1c0.1-0.1,0.2-0.1,0.3-0.2c0.1-0.1,0.1-0.2,0.1-0.4
	c0-0.1,0-0.3-0.1-0.4c-0.4-0.6-0.9-1.1-1.4-1.7l-1.7-2.1l-3.4-4.2l-4.7-5.9l5.1,5.5l3.6,4l1.8,2c0.6,0.7,1.2,1.3,1.8,2.1l0.1,0.1
	l0,0.2C27.2,54.8,27.2,55.1,27.1,55.4z"/>
<path class="st0" d="M28.7,75.1c-0.3-0.3-0.6-0.6-0.9-0.9C28.1,74.6,28.3,74.9,28.7,75.1z"/>
<path class="st1" d="M116.8,52.5c-3.3,0.8-4.8,3.4-3.9,6.5c0.4,1.3,1.6,2.7,3.4,3.7c3.1,1.8,4.1,2.5,4.6,3.6
	c0.4,0.9,0.5,1.2,0.3,2.1c-0.5,2-1.9,3-3.9,3c-2,0-3.4-1.1-3.8-3c-0.1-0.8-0.3-1-0.6-1c-0.4,0-0.5,0.2-0.5,2.1v2.1l1.3,0.4
	c2.1,0.7,5,0.6,6.7-0.2c3.4-1.6,4.7-4.7,3.2-7.6c-0.6-1.1-2-2.3-4.4-3.8c-2.6-1.6-3.7-2.7-3.9-3.8c-0.3-1.8,1.3-3.2,3.5-3.2
	c1.7,0,2.4,0.4,3,1.7c0.4,0.8,0.6,1.1,1.1,1.1c0.5,0,0.6-0.1,0.4-0.6c-0.1-0.3-0.2-1.1-0.2-1.7c0-0.8-0.1-1.2-0.4-1.3
	C122,52.3,117.7,52.2,116.8,52.5z M50.8,53.2c0,0.4,0.2,0.5,0.6,0.5c1.2,0,1.3,0.3,1.4,7.6c0.1,6.3,0.2,6.8,0.7,7.8
	c0.7,1.3,1.7,2.2,3.2,2.9c1,0.5,1.7,0.6,3.8,0.6c2.2,0,2.7-0.1,3.9-0.7c0.8-0.4,1.8-1.1,2.2-1.6c1.4-1.7,1.6-2.6,1.7-9.6
	c0.2-6.8,0.2-6.9,1.3-6.9c0.3,0,0.4-0.2,0.4-0.5c0-0.5-0.2-0.5-3-0.5c-2.8,0-3,0-3,0.5c0,0.4,0.2,0.5,0.8,0.6
	c1.3,0.1,1.4,0.6,1.4,6.8c0,6.3-0.2,7.5-1.6,8.8c-1.2,1.2-2.2,1.6-3.9,1.6c-2.4,0-4.2-1.1-4.7-3.1c-0.2-0.7-0.3-3.1-0.2-7.4l0.1-6.4
	l0.9-0.3c0.5-0.2,0.9-0.5,1-0.7c0.1-0.4-0.3-0.4-3.4-0.4C51,52.7,50.8,52.7,50.8,53.2z M74.1,53.2c0,0.4,0.2,0.5,0.7,0.5
	c1.3,0,2,0.5,2.3,1.6c0.2,0.6,0.2,3.5,0.2,7.6c-0.1,7.4-0.2,7.9-1.7,8.2c-0.5,0.1-0.7,0.3-0.7,0.6c0,0.4,0.2,0.5,3.5,0.5
	c3.2,0,3.5,0,3.5-0.4c0-0.3-0.3-0.5-1.1-0.7c-1-0.3-1.1-0.4-1.4-1.2C79,68.7,79,57.4,79.3,57.5c0.1,0,1.1,1,2.2,2.3
	c1.1,1.3,4,4.6,6.6,7.3c4,4.3,4.7,5.1,5.3,5.1h0.7l0.1-8.8c0.1-6.3,0.2-8.9,0.4-9.1c0.2-0.2,0.7-0.4,1.1-0.5
	c0.5-0.1,0.8-0.3,0.8-0.5c0-0.3-0.6-0.4-3.4-0.4c-3.3-0.1-3.4-0.1-3.4,0.4c0,0.4,0.2,0.5,0.6,0.5c0.3,0,0.9,0.3,1.3,0.6l0.7,0.6
	l0.1,6c0,3.4,0,6-0.1,6c-0.1,0-0.9-0.8-1.7-1.7c-0.8-0.9-3.1-3.5-5.1-5.7c-2-2.2-4.2-4.6-4.9-5.4l-1.2-1.4l-2.6,0
	C74.2,52.7,74.1,52.7,74.1,53.2z M100.3,53.2c0,0.4,0.2,0.5,0.7,0.5c0.4,0,0.9,0.2,1.2,0.4c0.5,0.3,0.5,0.8,0.6,7.7
	c0.1,8.6,0,9.1-1.5,9.3c-0.7,0.1-1,0.3-1,0.6c0,0.4,0.3,0.5,3.8,0.5c3.6,0,3.8,0,3.8-0.5c0-0.4-0.2-0.5-0.6-0.5
	c-0.3,0-0.8-0.2-1.1-0.4c-0.5-0.3-0.5-0.8-0.6-8.2c-0.1-7.6-0.1-7.9,0.4-8.4c0.3-0.3,0.8-0.5,1.1-0.5c0.5,0,0.6-0.1,0.6-0.5
	c0-0.5-0.2-0.5-3.8-0.5C100.5,52.7,100.3,52.7,100.3,53.2z M126.6,53.2c0.1,0.3,0.3,0.5,0.7,0.5c0.3,0,0.8,0.3,1.1,0.6
	c0.3,0.3,2,4.4,3.9,9.3l3.3,8.7l0.9,0.1l0.9,0.1l2.3-6.2c1.3-3.4,2.5-6.5,2.6-6.8c0.3-0.6,0.3-0.5,1.1,1.5c0.4,1.2,1.6,4.2,2.6,6.8
	l1.8,4.7h0.8c0.4,0,0.8-0.1,0.9-0.3c0.1-0.2,1.2-3.1,2.6-6.5c1.3-3.4,2.8-7.2,3.3-8.4c1.1-2.8,1.3-3.1,2.1-3.4
	c0.4-0.1,0.7-0.4,0.7-0.6c0-0.3-0.5-0.4-3-0.4c-2.8,0-3,0-3,0.5c0,0.4,0.2,0.5,0.6,0.5c1,0,1.4,0.3,1.4,0.9c0,0.5-4.8,13.4-5.1,13.7
	c-0.2,0.2-4.5-11.8-4.6-13c-0.2-1.1,0.3-1.6,1.4-1.6c0.4,0,0.6-0.1,0.6-0.5c0-0.5-0.2-0.5-3.9-0.5c-3.7,0-3.9,0-3.9,0.5
	c0,0.3,0.2,0.5,0.4,0.5c0.8,0,1.8,0.8,2.1,1.5c0.4,1.1,0.1,2.2-2.2,8.2l-1.9,5.1l-0.4-1c-0.2-0.5-1.4-3.7-2.6-7
	c-2.4-6.5-2.4-6.8-0.8-6.8c0.6,0,0.7-0.1,0.7-0.5c0-0.5-0.2-0.5-3.7-0.5C126.5,52.7,126.4,52.7,126.6,53.2z M177.2,53.4
	c0,0,0,0.3,0,0.4c0,0.1,0.3,0.1,0.3,0.1c0.2,0,0.3,0.1,0.5,0.1c0.8,0.2,1.3,0.3,1.5,0.8c0.1,0.3,0.2,1.5,0.2,7.8
	c0,6.6,0,7.4-0.2,7.8c-0.2,0.5-0.6,0.8-1.6,1.1c0,0-0.4,0.1-0.5,0.2c-0.1,0.1-0.1,0.3-0.1,0.3s0,0.2,0.1,0.3
	c0.1,0.1,0.4,0.1,0.4,0.1l2.5,0l4.2,0c0,0,0.2,0,0.3-0.1c0.1-0.1,0.1-0.3,0.1-0.3s0-0.2-0.1-0.3c-0.1-0.1-0.5-0.2-0.5-0.2
	c-0.9-0.2-1.4-0.5-1.6-1c-0.2-0.4-0.2-1.3-0.2-3.4v-3c0.1,0.1,0.2,0.1,0.3,0.2c0.5,0.3,1.1,0.8,3.3,0.8c2.7,0.1,4.3-1.1,5.3-2.5
	c1-1.4,1.3-3.6,0.6-6c-0.7-2.3-2.8-3.8-5.7-3.9c-1.5-0.1-3.8,0-5,0.1l-0.3,0c-1.1,0-2.5,0.2-3.2,0.2l0,0c-0.2,0-0.2,0-0.3,0.1
	C177.2,53.3,177.2,53.4,177.2,53.4z M188.3,62.6c1.1-1,1.1-2.6,1.1-3.7c-0.1-1.6-0.8-4.7-4.4-4.7c-0.9,0-2.6,0.1-2.7,1.3
	c-0.1,0.2-0.1,1.7-0.1,3.9l0,3.6l0.4,0.2l0,0c0.2,0.1,0.5,0.2,0.9,0.3C185,63.9,187.2,63.6,188.3,62.6z M165.3,53
	c0.3-0.1,0.5-0.2,0.5-0.2s0.4-0.2,0.5,0c0,0.1,0.2,0.4,0.6,1.4c0.1,0.2,0.2,0.4,0.2,0.6c0.5,1.4,1.3,3.4,1.7,4.5
	c0.4,1.1,1.2,3.1,1.8,4.7c0.6,1.5,1.3,3.4,1.7,4.3c0.3,0.9,0.8,1.7,0.9,1.9c0.1,0.1,0.1,0.2,0.2,0.3c0.3,0.4,0.6,1,1.3,1.1
	c0,0,0.5,0.1,0.6,0.2c0.1,0.1,0.1,0.2,0.1,0.2v0.3c0,0,0,0.1-0.1,0.1c0,0.1-0.2,0-0.2,0l-4.2,0l-3,0c0,0-0.1,0-0.2,0
	s-0.1-0.2-0.1-0.2V72c0,0,0-0.2,0.1-0.3c0.1-0.1,0.6-0.2,0.6-0.2c0.9-0.1,1.3-0.8,1.4-1.2c0,0,0-0.1,0-0.1c0.2-0.4,0.1-0.7-0.8-2.8
	c-0.6-1.4-0.8-1.8-0.9-1.9c-0.1,0-1.7,0-3.4,0l-3.3,0l-0.2,0.5c-0.6,1.6-1.1,3.1-1.1,3.5c-0.2,0.8,0.1,1.8,1.3,2
	c0,0,0.5,0.1,0.6,0.2c0.1,0.1,0.2,0.3,0.2,0.3v0.2c0,0,0,0.1-0.1,0.2c-0.1,0.1-0.3,0-0.3,0h-3.1l-3,0c0,0-0.1,0-0.2-0.1
	s-0.1-0.2-0.1-0.2v-0.2c0,0,0-0.1,0.2-0.3c0.2-0.2,0.6-0.2,0.6-0.2c0.8-0.1,1.3-1,1.6-1.5c0,0,0-0.1,0.1-0.1
	c0.1-0.2,0.6-1.3,1.1-2.5c0.5-1.2,1-2.6,1.2-3c0.6-1.5,1.2-2.9,2.1-5.1c0.5-1.2,1.2-3,1.6-4l0.7-1.8L165.3,53z M165.1,57.3
	c0.2,0.4,0.4,1,0.5,1.3c0.1,0.3,0.5,1.2,0.8,2c0.3,0.8,0.7,1.7,0.9,2.1c0.2,0.4,0.3,0.7,0.3,0.7c0,0-1.2,0-2.7,0
	c-1.7,0-2.7,0-2.7-0.1c0,0,0.1-0.2,0.1-0.4c0.1-0.3,0.7-1.9,1.9-5.3c0.2-0.5,0.4-1,0.4-1.1C164.7,56.5,164.8,56.6,165.1,57.3z"/>
</svg>
