<svg width="29" height="27" viewBox="0 0 29 27" fill="none" xmlns="http://www.w3.org/2000/svg">
<g clip-path="url(#clip0_442_5219)">
<path d="M28.9994 12.0382C28.9434 12.5396 28.898 13.0424 28.8284 13.5415C28.5046 15.8414 27.8849 18.0413 26.4361 19.9151C26.0204 20.4476 25.5264 20.9149 24.9705 21.3011C23.6844 22.191 22.2468 22.1451 20.95 21.2657C20.3175 20.8373 19.8152 20.2826 19.3771 19.6648C18.5562 18.5036 17.7724 16.6185 17.5265 15.1882C17.6294 15.1882 17.727 15.1882 17.8246 15.1882C18.6251 15.1717 19.4338 15.216 20.226 15.1259C22.2786 14.8921 23.8493 13.0492 23.8463 10.9552C23.8425 8.88074 22.262 7.06335 20.2283 6.8033C19.9568 6.77101 19.6838 6.75444 19.4104 6.75369C18.7885 6.74693 18.1666 6.75369 17.4614 6.75369C17.73 5.94271 17.9517 5.16179 18.246 4.40868C18.7446 3.13095 19.4225 1.95242 20.4817 1.03922C22.1318 -0.382069 24.046 -0.338474 25.6485 1.1437C26.7674 2.17941 27.4643 3.47969 27.9795 4.88294C28.529 6.40117 28.8557 7.99008 28.9494 9.60078C28.9609 9.70178 28.9775 9.80213 28.9994 9.90143V12.0382Z" fill="#3C3C3E"/>
<path d="M17.9159 1.84863C17.5096 2.58897 17.0345 3.34283 16.6683 4.14555C15.9117 5.79909 15.5622 7.5631 15.4192 9.36546C15.2361 11.6834 15.4245 13.9698 16.085 16.2051C16.4988 17.6083 17.0927 18.9244 17.9878 20.1134C17.9121 20.0729 17.8319 20.0383 17.7608 19.9924C16.8325 19.4378 15.9125 18.865 14.9735 18.3299C13.5291 17.5035 11.9093 17.0264 10.2449 16.9372C9.8797 16.9227 9.53364 16.7712 9.27644 16.5132C7.59379 14.9304 6.73431 12.995 6.81753 10.6928C6.89773 8.46729 7.84725 6.63412 9.55562 5.19855C9.66966 5.10581 9.80966 5.05018 9.95661 5.03921C11.9828 4.93677 13.9463 4.30747 15.6507 3.21431C16.4118 2.73177 17.1956 2.28081 17.9159 1.84863Z" fill="#3C3C3E"/>
<path d="M7.20789 5.079C4.3833 9.01692 4.37952 12.9391 7.19654 16.8454C3.24035 17.3182 0.576402 14.907 0.0740278 11.8848C-0.347391 9.34663 1.04927 6.84077 3.48851 5.68254C4.67257 5.1241 5.92169 4.99783 7.20789 5.079Z" fill="#3C3C3E"/>
<path d="M5.11237 18.5967H10.1966V20.2134C11.2029 20.3216 11.9996 20.3314 11.9058 18.8605C12.4619 19.0905 12.9847 19.3017 13.5014 19.5287C13.5445 19.5482 13.5665 19.6715 13.5581 19.7421C13.4197 20.9447 12.3688 21.8985 11.1371 21.9361C10.8344 21.9451 10.5356 21.9361 10.1974 21.9361V22.4802C10.1974 23.1462 10.2034 23.8113 10.1974 24.4773C10.1955 25.1314 9.93864 25.7594 9.48077 26.2295C9.0229 26.6997 8.39957 26.9754 7.74151 26.9989C6.37965 27.0433 5.16533 26.0181 5.12599 24.6509C5.06924 22.6381 5.11237 20.6208 5.11237 18.5967Z" fill="#3C3C3E"/>
<path d="M17.2184 8.48436C18.1869 8.48436 19.1265 8.40469 20.0473 8.5039C21.3191 8.64144 22.2066 9.82598 22.1431 11.1233C22.0825 12.3687 21.0369 13.4352 19.7719 13.4886C18.9351 13.5246 18.0961 13.4953 17.226 13.4953C16.9969 11.8329 16.9943 10.1474 17.2184 8.48436Z" fill="#3C3C3E"/>
</g>
<defs>
<clipPath id="clip0_442_5219">
<rect width="29" height="27" fill="white"/>
</clipPath>
</defs>
</svg>
