<svg width="33" height="33" viewBox="0 0 33 33" fill="none" xmlns="http://www.w3.org/2000/svg">
<g clip-path="url(#clip0_451_4711)">
<path d="M30.2882 13.7848C30.7754 14.3806 31.0188 15.2141 31.0183 16.2854C31.0183 17.3127 30.7667 18.1159 30.2633 18.6951C29.76 19.2744 29.0982 19.5638 28.2778 19.5633C27.904 19.5722 27.533 19.4964 27.1929 19.3416C26.8528 19.1868 26.5526 18.957 26.3149 18.6696C25.8035 18.0738 25.5479 17.2645 25.5479 16.2418C25.5479 15.2342 25.8035 14.4237 26.3149 13.8103C26.8263 13.197 27.5002 12.8906 28.3367 12.8911C29.1515 12.8911 29.8021 13.189 30.2882 13.7848Z" fill="#3C3C3E"/>
<path d="M19.1565 12.8184C19.7308 12.8184 20.1724 12.9614 20.4814 13.2475C20.7905 13.5337 20.945 13.9405 20.945 14.4682C20.945 15.0399 20.7869 15.4786 20.4709 15.7843C20.1548 16.0899 19.7046 16.2425 19.1202 16.242H18.1343V12.8184H19.1565Z" fill="#3C3C3E"/>
<path d="M2.40002 13.1639C2.25253 13.3565 2.17626 13.5938 2.18409 13.8359C2.1766 14.0563 2.23521 14.274 2.35245 14.4612C2.46418 14.6311 2.69067 14.7709 3.03191 14.8829V12.7896C2.78454 12.8389 2.56157 12.971 2.40002 13.1639ZM0.829702 16.0201C0.417494 15.5841 0.186482 15.0355 0.136655 14.374C0.045238 15.0791 -0.000410307 15.7894 2.77849e-06 16.5004C-0.000288974 17.405 0.0734316 18.3082 0.220445 19.201L1.43216 18.5313C1.5903 18.8404 1.82073 19.1072 2.10406 19.3092C2.38049 19.4965 2.69879 19.6137 3.03116 19.6504V17.0994C2.0331 16.8769 1.29929 16.5172 0.829702 16.0201ZM5.00236 17.8555C4.86144 17.6757 4.63747 17.5278 4.33046 17.4121V19.5918C4.63244 19.5146 4.85514 19.3894 4.99858 19.216C5.14873 19.0248 5.22531 18.7865 5.21451 18.544C5.2245 18.2972 5.14967 18.0543 5.00236 17.8555ZM32.0299 20.1157C31.0495 21.1178 29.7851 21.6189 28.237 21.6189C26.7271 21.6189 25.4884 21.1331 24.5211 20.1615C23.5537 19.1899 23.0693 17.9252 23.0678 16.3673C23.0678 16.2674 23.0678 16.1689 23.0738 16.0712C22.8829 16.4591 22.6123 16.8027 22.2796 17.0799C21.5131 17.7248 20.4848 18.047 19.1948 18.0465H18.1379V21.4408H15.7802V11.0158H19.4228C20.7274 11.0158 21.7214 11.2991 22.4049 11.8659C23.0436 12.396 23.3841 13.1622 23.4264 14.1643C23.6662 13.493 24.0474 12.8806 24.5445 12.368C25.5274 11.3503 26.8146 10.8414 28.4061 10.8414C29.9105 10.8414 31.136 11.3285 32.0827 12.3026C32.3787 12.608 32.6326 12.9512 32.8377 13.3233C31.3504 5.73187 24.6336 0 16.5721 0C8.72053 0 2.14635 5.43423 0.434104 12.7302C0.56446 12.4759 0.732146 12.2424 0.931629 12.0372C1.46916 11.4775 2.16874 11.1345 3.0304 11.0083V9.65534H4.3297V10.9925C4.94024 11.0526 5.52933 11.2489 6.05326 11.5667C6.54982 11.8725 6.96149 12.2974 7.25063 12.8024L5.38889 13.6893C5.26623 13.4786 5.10964 13.2895 4.92535 13.1293C4.75166 12.9837 4.5485 12.8771 4.3297 12.8167V15.1933C5.41533 15.4699 6.17707 15.8517 6.61494 16.3388C7.05282 16.8258 7.27203 17.4592 7.27253 18.2389C7.27253 19.1017 7.01936 19.814 6.51304 20.3757C6.00671 20.9375 5.27893 21.2882 4.3297 21.428V22.947H3.0304V21.4934C2.18334 21.4543 1.47267 21.2629 0.898397 20.9192C0.771313 20.8428 0.649276 20.7585 0.533008 20.6666C2.3887 27.7597 8.86624 32.9932 16.5721 32.9932C24.9778 32.9932 31.9212 26.763 32.9993 18.6891C32.7637 19.2181 32.4355 19.7012 32.0299 20.1157ZM14.2929 20.708C13.6255 21.3168 12.674 21.6209 11.4384 21.6204C10.5948 21.6333 9.76182 21.432 9.01798 21.0357C8.32223 20.6681 7.75746 20.0956 7.40087 19.3964L9.38641 18.3644C9.61038 18.8154 9.90355 19.1473 10.2659 19.3603C10.6275 19.5728 11.0404 19.6832 11.4603 19.6797C11.9903 19.6797 12.3843 19.5795 12.6425 19.3791C12.7691 19.2813 12.8704 19.1547 12.9378 19.0099C13.0051 18.8652 13.0367 18.7064 13.0298 18.547C13.0359 18.3807 13.0008 18.2154 12.9276 18.0657C12.8544 17.916 12.7454 17.7865 12.6101 17.6887C12.3297 17.4802 11.8878 17.3204 11.2844 17.2092C10.1268 16.9867 9.27643 16.6294 8.73336 16.1373C8.1903 15.6453 7.91876 14.9656 7.91876 14.0982C7.91876 13.1101 8.26933 12.3204 8.97043 11.7291C9.67154 11.1378 10.5964 10.8422 11.7449 10.8422C12.5286 10.8422 13.2148 10.9997 13.8037 11.3149C14.3866 11.6243 14.868 12.0939 15.1905 12.6679L13.2488 13.6615C13.054 13.3323 12.8325 13.0938 12.5844 12.9459C12.3363 12.7981 12.0149 12.723 11.6203 12.7205C11.1628 12.7205 10.8105 12.8207 10.5634 13.0211C10.4469 13.1087 10.3529 13.2224 10.2888 13.353C10.2248 13.4836 10.1927 13.6274 10.195 13.7727C10.1914 13.9159 10.2227 14.0579 10.2862 14.1864C10.3497 14.3149 10.4435 14.4263 10.5596 14.5108C10.8027 14.6972 11.2577 14.8476 11.9246 14.9618C13.0344 15.1622 13.8729 15.5293 14.4401 16.0629C15.0073 16.5966 15.2909 17.3231 15.2909 18.2426C15.2925 19.2784 14.9598 20.1001 14.2929 20.708Z" fill="#3C3C3E"/>
</g>
<defs>
<clipPath id="clip0_451_4711">
<rect width="33" height="33" fill="white"/>
</clipPath>
</defs>
</svg>
