<svg width="31" height="26" viewBox="0 0 31 26" fill="none" xmlns="http://www.w3.org/2000/svg">
<path d="M7.85152 15.155L1.05534 12.8289C1.05534 12.8289 0.230049 12.483 0.502392 11.7004C0.556035 11.5404 0.667457 11.4021 0.989317 11.1643C2.49545 10.0661 28.8673 0.134611 28.8673 0.134611C29.2473 -0.00565645 29.6561 -0.036986 30.0516 0.0438313C30.1602 0.0803135 30.2581 0.14567 30.3354 0.233572C30.4128 0.321474 30.4671 0.428882 30.4931 0.545338C30.5392 0.75063 30.5586 0.96155 30.5508 1.1723C30.5508 1.35822 30.5261 1.52682 30.5096 1.79488C30.3486 4.51014 25.5579 24.7752 25.5579 24.7752C25.5579 24.7752 25.2691 25.9598 24.2375 25.9987C23.9846 26.0082 23.7326 25.9642 23.4965 25.8691C23.2604 25.774 23.045 25.6298 22.8634 25.4453C20.8414 23.6208 13.8513 18.7004 12.308 17.6195C12.2733 17.594 12.2439 17.5613 12.2219 17.5234C12.1999 17.4854 12.1857 17.443 12.1801 17.399C12.1595 17.2865 12.2791 17.1439 12.2791 17.1439C12.2791 17.1439 24.4479 5.81156 24.7698 4.60526C24.7945 4.51447 24.6996 4.46691 24.5717 4.50583C23.7464 4.81713 9.75379 14.0871 8.20639 15.1118C8.09334 15.1568 7.97141 15.1716 7.85152 15.155Z" fill="#3C3C3E"/>
</svg>
