<svg width="24" height="18" viewBox="0 0 24 18" fill="none" xmlns="http://www.w3.org/2000/svg">
<path d="M0 13.9036V11.9642C0.01375 11.8669 0.0299983 11.7695 0.0412483 11.6716C0.126248 10.9458 0.17625 10.2146 0.30125 9.49559C0.80125 6.63945 1.94625 4.03897 3.56813 1.63441C3.62858 1.54731 3.71139 1.47758 3.80812 1.43234C5.28762 0.77222 6.8439 0.294042 8.44187 0.00858187C8.57187 -0.0154452 8.64437 0.0153588 8.70125 0.131798C8.85 0.436757 9.02312 0.731244 9.15437 1.04298C9.23 1.22288 9.32438 1.25121 9.50562 1.23335C10.1931 1.16496 10.8894 1.06516 11.5806 1.07194C12.5619 1.08179 13.5425 1.17051 14.5231 1.23704C14.6862 1.24813 14.7731 1.22041 14.8356 1.06146C14.9681 0.753422 15.1356 0.453391 15.2819 0.1472C15.34 0.0239839 15.4069 -0.0179096 15.555 0.00858187C17.1454 0.292977 18.6942 0.768868 20.1669 1.42556C20.2718 1.47138 20.3615 1.54548 20.4256 1.63934C20.8494 2.32134 21.2913 2.99472 21.6756 3.69951C22.8507 5.85206 23.5935 8.20787 23.8631 10.6378C23.9119 11.0801 23.9525 11.5225 23.9969 11.9648V13.8593C23.9662 14.1803 23.9469 14.5019 23.8994 14.8204C23.8824 14.9352 23.8243 15.0403 23.7356 15.1167C22.097 16.3024 20.2814 17.2297 18.3537 17.8656C17.8075 18.0462 17.7962 18.0505 17.4831 17.5705C17.1469 17.0549 16.8337 16.5232 16.4944 15.9761C16.875 15.8116 17.2131 15.6773 17.54 15.5215C17.8669 15.3656 18.1919 15.1863 18.5269 15.0126C18.1756 14.6023 18.1119 14.5887 17.6937 14.7662C13.8869 16.3593 10.08 16.3384 6.275 14.7594C5.88375 14.5973 5.75438 14.6306 5.45063 15.0341L7.48937 16.0063C7.0825 16.6409 6.68375 17.2545 6.295 17.8737C6.20687 18.0135 6.11875 18.0264 5.9675 17.9784C3.91786 17.3373 1.98797 16.3712 0.25375 15.1179C0.165526 15.0414 0.107908 14.9363 0.0912514 14.8216C0.0475014 14.5148 0.029375 14.2086 0 13.9036ZM18.15 9.84368C18.1459 9.72123 18.1353 9.59907 18.1181 9.47773C18.0915 9.31798 18.052 9.16058 18 9.00704C17.4737 7.51798 15.7206 7.03559 14.6075 8.07676C13.5925 9.02367 13.5856 10.7518 14.5931 11.7079C15.42 12.4928 16.6419 12.4786 17.4456 11.6691C17.9337 11.1775 18.1425 10.5731 18.15 9.84368ZM10.2125 9.8868C10.15 9.59478 10.12 9.2929 10.025 9.0132C9.51875 7.54878 7.81312 7.0516 6.68875 8.02747C5.61063 8.96576 5.59125 10.777 6.64937 11.7369C7.48375 12.4934 8.66937 12.4682 9.46625 11.6697C9.95562 11.1806 10.1644 10.575 10.2125 9.8868Z" fill="#3C3C3E"/>
</svg>
