<svg width="20" height="20" viewBox="0 0 20 20" fill="none" xmlns="http://www.w3.org/2000/svg">
<path d="M8.52986 19.9828C3.86756 19.3187 -0.0469512 15.3336 0.000425593 9.92661C0.0494175 4.32104 4.63474 -0.0596604 10.0771 0.000614569C15.5723 0.0619659 19.9568 4.44267 19.9999 9.95675C20.0204 12.6325 19.1283 14.994 17.2806 16.9616C15.8184 18.518 14.0503 19.541 11.9415 19.999V12.8096H13.8969C14.046 11.8581 14.1909 10.9319 14.3394 9.98204H11.3676C11.3676 9.41966 11.3649 8.87664 11.3676 8.33417C11.3627 8.13959 11.3746 7.94494 11.4032 7.75241C11.5238 7.091 11.9507 6.67607 12.6199 6.63032C13.2229 6.58673 13.8301 6.60072 14.4353 6.58942C14.5349 6.58942 14.6345 6.58942 14.7465 6.58942V4.11384C14.3793 4.06971 14.0083 4.0159 13.6363 3.98361C12.8239 3.91418 12.011 3.8636 11.2077 4.07079C9.76973 4.44105 8.81305 5.47003 8.62731 6.93816C8.54117 7.61517 8.56109 8.30618 8.54009 8.99073C8.5304 9.31364 8.54009 9.63654 8.54009 9.97343H6.29615V12.8058H8.52986V19.9828Z" fill="#3C3C3E"/>
</svg>
