<svg width="18" height="18" viewBox="0 0 18 18" fill="none" xmlns="http://www.w3.org/2000/svg">
<path d="M17.9994 4.14941V13.8518C17.9774 13.9777 17.9564 14.1032 17.9328 14.2286C17.6213 15.8793 16.6859 17.038 15.1369 17.6751C14.7325 17.8402 14.2813 17.8952 13.8521 17.9998H4.1505C3.81374 17.9288 3.46708 17.8897 3.14133 17.7797C1.24899 17.164 0.0103657 15.4655 0.00486311 13.4683C-0.00357416 10.4869 -0.00357416 7.5053 0.00486311 4.52355C0.00486311 3.56564 0.271187 2.68311 0.837951 1.90732C1.77064 0.631945 3.03898 0.00141004 4.61712 -0.000240581C7.51513 -0.00317501 10.4144 -0.00317501 13.315 -0.000240581C13.6192 -0.00295621 13.923 0.0211628 14.2229 0.0718363C15.8858 0.375 17.0463 1.31915 17.6802 2.87789C17.8431 3.28064 17.8981 3.7252 17.9994 4.14941ZM9.00266 5.24983C6.94525 5.24653 5.27302 6.9131 5.25101 8.99123C5.229 11.0396 6.9315 12.748 8.99936 12.7524C11.0546 12.7563 12.7296 11.087 12.7516 9.01103C12.7725 6.96262 11.0694 5.25368 9.00266 5.24983ZM13.8686 5.24597C14.0904 5.24792 14.3079 5.18409 14.4934 5.06255C14.679 4.94101 14.8244 4.76721 14.9113 4.5631C14.9982 4.35899 15.0226 4.13372 14.9815 3.91573C14.9404 3.69774 14.8357 3.49681 14.6805 3.33832C14.5252 3.17982 14.3265 3.07087 14.1095 3.02521C13.8924 2.97955 13.6666 2.99924 13.4607 3.08178C13.2548 3.16433 13.0779 3.30603 12.9525 3.489C12.8271 3.67197 12.7587 3.88799 12.756 4.1098C12.7538 4.40751 12.8696 4.69397 13.0781 4.9065C13.2866 5.11902 13.5709 5.24029 13.8686 5.24377V5.24597Z" fill="#3C3C3E"/>
</svg>
