<svg width="21" height="20" viewBox="0 0 21 20" fill="none" xmlns="http://www.w3.org/2000/svg">
<path d="M11.4678 20H10.2178C9.97363 19.9702 9.7291 19.944 9.48574 19.9095C7.64082 19.6469 5.98379 18.944 4.54355 17.7596C2.63184 16.1874 1.44121 14.1804 0.999023 11.7416C0.931836 11.3718 0.894727 10.998 0.842773 10.6238V9.37374C0.858789 9.24575 0.875977 9.11777 0.890039 8.98939C1.12129 6.87002 1.91738 4.99096 3.33809 3.39957C5.29121 1.21366 7.74512 0.0727567 10.6768 0.00308939C12.5686 -0.0427032 14.3432 0.420311 15.9572 1.40974C18.5428 2.99526 20.1318 5.2845 20.6893 8.27511C20.7568 8.63831 20.7924 9.00739 20.8428 9.37374V10.6238C20.8268 10.7522 20.8088 10.8802 20.7951 11.0086C20.5807 12.9867 19.8643 14.7612 18.6018 16.3002C17.0318 18.2133 15.0236 19.4015 12.5861 19.8454C12.215 19.9123 11.84 19.9491 11.4678 20ZM16.7072 15.1076C16.7107 15.0356 16.7162 14.978 16.7162 14.9205C16.7162 13.5929 16.7193 12.2649 16.7139 10.9373C16.7121 10.6641 16.6942 10.3912 16.6604 10.1201C16.485 8.6935 15.6311 7.79644 14.2564 7.63636C13.2693 7.52168 12.4307 7.81718 11.8346 8.65749C11.81 8.69194 11.7807 8.72285 11.7174 8.79761V7.798H9.29551V15.1056H11.7174V14.8645C11.7174 13.8884 11.7174 12.9122 11.7174 11.9358C11.7174 11.5518 11.7174 11.1675 11.733 10.7839C11.7537 10.3448 11.9756 10.0043 12.3271 9.75769C13.0303 9.26767 13.9373 9.57765 14.1705 10.3968C14.243 10.6731 14.2785 10.9578 14.276 11.2434C14.2873 12.4606 14.2807 13.6778 14.2807 14.8951V15.1095L16.7072 15.1076ZM5.51035 7.80074V15.108H7.9248C7.93183 15.0617 7.93652 15.015 7.93887 14.9683C7.93887 12.6311 7.94004 10.294 7.94238 7.95691C7.94238 7.81679 7.89434 7.78156 7.76191 7.78274C7.06543 7.78782 6.36895 7.78469 5.67246 7.78587C5.62207 7.78587 5.57129 7.7937 5.51035 7.80074ZM6.73457 4.25788C6.08379 4.25788 5.57441 4.60113 5.4127 5.14751C5.20879 5.83557 5.56895 6.51542 6.24863 6.72246C7.02129 6.9573 7.81113 6.60505 8.03184 5.92833C8.31504 5.05749 7.6916 4.25554 6.73457 4.25632V4.25788Z" fill="#3C3C3E"/>
</svg>
