<svg width="24" height="18" viewBox="0 0 24 18" fill="none" xmlns="http://www.w3.org/2000/svg">
<g clip-path="url(#clip0_704_5875)">
<path d="M24.0002 0.399974C23.3433 0.993406 22.6807 1.57616 22.0369 2.18027C21.9303 2.29531 21.8706 2.44262 21.8684 2.59567C21.8605 6.87432 21.8615 11.1532 21.8715 15.4322C21.8821 15.6058 21.9568 15.7703 22.0826 15.8969C22.6199 16.4233 23.1742 16.9354 23.7384 17.4368C23.9176 17.5965 23.9952 17.7585 23.9313 18H14.5673C14.5235 17.8048 14.5272 17.6439 14.7076 17.4867C15.2969 16.968 15.8649 16.4274 16.4474 15.901C16.5251 15.8341 16.5864 15.7519 16.6269 15.6601C16.6675 15.5684 16.6864 15.4693 16.6822 15.3699C16.6789 12.0095 16.6789 8.64849 16.6822 5.28689C16.6845 5.23795 16.6676 5.18994 16.6346 5.15218C16.6052 5.21449 16.572 5.27502 16.5457 5.33852C14.8239 9.47 13.1043 13.6021 11.3871 17.7347C11.3057 17.93 11.1992 17.9792 10.9863 17.9958C10.6525 18.0214 10.4997 17.9086 10.3675 17.6208C9.8709 16.5437 9.34107 15.4809 8.82315 14.4127C7.35391 11.3834 5.88489 8.35375 4.41607 5.32368C4.3852 5.24789 4.33405 5.18102 4.26764 5.12963V5.35395C4.26764 8.0784 4.28142 10.8028 4.25637 13.5267C4.25136 14.0845 4.4167 14.5177 4.79872 14.9331C5.54336 15.7414 6.24291 16.5864 6.97439 17.406C7.12971 17.5798 7.16227 17.7496 7.1128 17.9674H0.0227704C-0.00623385 17.8708 -0.00814485 17.7687 0.0172261 17.6711C0.042597 17.5736 0.0943723 17.4841 0.167439 17.4113C0.966562 16.5105 1.75191 15.5984 2.54727 14.6928C2.75072 14.4745 2.86337 14.1936 2.86417 13.9023C2.85916 12.5992 2.85561 11.2964 2.85352 9.994C2.85352 7.88375 2.85352 5.7737 2.85352 3.66385C2.85503 3.41062 2.75753 3.16582 2.57984 2.97666C1.84961 2.15535 1.1225 1.33226 0.410433 0.497297C0.317745 0.388698 0.317744 0.208295 0.262006 0.0160227H0.563869C2.71762 0.0160227 4.87387 0.0183964 7.03013 0.0118687C7.2105 0.0118687 7.28627 0.0753659 7.35579 0.220757C9.07094 3.7857 10.7888 7.34907 12.5094 10.9109C12.5451 10.9844 12.5827 11.0562 12.6346 11.1619C12.6835 11.0545 12.7204 10.9767 12.7543 10.8972C14.2556 7.35876 15.7547 3.81933 17.2515 0.278913C17.3386 0.0735856 17.4394 0.00890149 17.6742 0.0100884C19.6896 0.0201767 21.7056 0.0160227 23.7209 0.0154292C23.8142 0.0154292 23.9088 0.00534089 24.0002 0V0.399974Z" fill="#3C3C3E"/>
</g>
<defs>
<clipPath id="clip0_704_5875">
<rect width="24" height="18" fill="white"/>
</clipPath>
</defs>
</svg>
