<svg width="21" height="18" viewBox="0 0 21 18" fill="none" xmlns="http://www.w3.org/2000/svg">
<path d="M5.12616 10.4922L0.420986 8.88177C0.420986 8.88177 -0.150385 8.6423 0.0381652 8.1005C0.0753039 7.98975 0.152445 7.89396 0.375276 7.72932C1.41801 6.969 19.6759 0.093195 19.6759 0.093195C19.939 -0.00391611 20.2221 -0.0256064 20.4958 0.0303456C20.5711 0.0556032 20.6388 0.100851 20.6924 0.161708C20.7459 0.222565 20.7836 0.296926 20.8015 0.377552C20.8335 0.519681 20.8469 0.665707 20.8415 0.811615C20.8415 0.94033 20.8244 1.05705 20.8129 1.24264C20.7015 3.12249 17.3848 17.1525 17.3848 17.1525C17.3848 17.1525 17.1848 17.9727 16.4706 17.9996C16.2956 18.0062 16.1211 17.9757 15.9576 17.9098C15.7941 17.844 15.645 17.7442 15.5193 17.6165C14.1194 16.3533 9.27997 12.9468 8.21152 12.1984C8.18745 12.1808 8.16714 12.1582 8.1519 12.1319C8.13665 12.1056 8.1268 12.0763 8.12296 12.0458C8.10868 11.9679 8.19152 11.8692 8.19152 11.8692C8.19152 11.8692 16.6163 4.0235 16.8391 3.18835C16.8563 3.12548 16.7905 3.09256 16.702 3.1195C16.1306 3.33503 6.44315 9.75285 5.37185 10.4623C5.29358 10.4934 5.20916 10.5037 5.12616 10.4922Z" fill="#3C3C3E"/>
</svg>
