<svg width="22" height="16" viewBox="0 0 22 16" fill="none" xmlns="http://www.w3.org/2000/svg">
<path d="M6.90175 16C15.2141 16 19.7481 9.84526 19.7481 4.50634C19.7481 4.33281 19.7481 4.15928 19.7481 3.98574C20.6313 3.41354 21.3939 2.70539 22 1.89435C21.1758 2.21954 20.3024 2.43371 19.4081 2.52988C20.3506 2.02449 21.056 1.23004 21.3929 0.294251C20.5072 0.765444 19.5376 1.09704 18.5264 1.27459C17.9069 0.684344 17.1034 0.274246 16.2202 0.0974715C15.337 -0.0793032 14.4149 -0.014599 13.5733 0.283191C12.7317 0.580982 12.0095 1.09812 11.5004 1.76756C10.9912 2.437 10.7186 3.22785 10.7179 4.03757C10.7164 4.3478 10.7553 4.65713 10.8338 4.95932C9.0387 4.87881 7.28264 4.4614 5.6796 3.73419C4.07657 3.00697 2.6624 1.98622 1.52897 0.738222C0.950957 1.62747 0.773774 2.68048 1.03354 3.68257C1.2933 4.68467 1.97045 5.56039 2.92695 6.13122C2.20988 6.11161 1.50851 5.9385 0.881612 5.62641C0.880296 5.64367 0.880296 5.66098 0.881612 5.67824C0.881905 6.61085 1.24276 7.51467 1.90296 8.23638C2.56315 8.95809 3.48206 9.45327 4.50379 9.63792C3.83927 9.79935 3.14238 9.82324 2.466 9.70778C2.75615 10.5093 3.31803 11.2102 4.07366 11.713C4.82928 12.2158 5.74113 12.4956 6.68261 12.5136C5.08296 13.6358 3.1083 14.2445 1.07557 14.2421C0.716109 14.2427 0.356929 14.2239 0 14.1858C2.06417 15.3719 4.46617 16.0017 6.9194 16" fill="#3C3C3E"/>
</svg>
