<svg width="60" height="69" viewBox="0 0 60 69" fill="none" xmlns="http://www.w3.org/2000/svg">
<path d="M33.3359 54.3055C33.3359 54.3222 33.3359 54.3389 33.3359 54.3472L29.9998 60.1292L26.6638 54.3472C26.6638 54.3305 26.6638 54.3222 26.6638 54.3055C26.6638 54.2889 26.6638 54.2723 26.6638 54.264L29.9998 48.4819L33.3359 54.264C33.3359 54.2723 33.3359 54.2889 33.3359 54.3055ZM38.4357 54.3055C38.4357 53.4403 38.2445 52.5668 37.8701 51.9095L31.3892 40.6782C30.6321 39.3638 29.3842 39.3638 28.6272 40.6782L22.1379 51.9095C21.7552 52.5668 21.5723 53.432 21.5723 54.3055C21.5723 55.1791 21.7636 56.0443 22.1379 56.7015L28.6272 67.9328C29.3842 69.2473 30.6321 69.2473 31.3892 67.9328L37.8701 56.7015C38.2445 56.036 38.4357 55.1708 38.4357 54.3055Z" fill="#CFB675"/>
<path d="M33.3359 14.6131C33.3359 14.6298 33.3359 14.6464 33.3359 14.6547L29.9998 20.4368L26.6638 14.6547C26.6638 14.638 26.6638 14.6298 26.6638 14.6131C26.6638 14.5965 26.6638 14.5798 26.6638 14.5715L29.9998 8.78952L33.3359 14.5715C33.3359 14.5798 33.3359 14.5965 33.3359 14.6131ZM38.4357 14.6131C38.4357 13.7479 38.2445 12.8744 37.8701 12.2171L31.3892 0.985857C30.6321 -0.328619 29.3842 -0.328619 28.6272 0.985857L22.1379 12.2171C21.7552 12.8744 21.5723 13.7396 21.5723 14.6131C21.5723 15.4784 21.7636 16.3519 22.1379 17.0092L28.6272 28.2404C29.3842 29.5549 30.6321 29.5549 31.3892 28.2404L37.8701 17.0092C38.2445 16.3436 38.4357 15.4784 38.4357 14.6131Z" fill="#CFB675"/>
<path d="M52.2296 21.6189L48.8935 27.4009C48.8686 27.4176 48.8436 27.4342 48.8187 27.4425H42.1381L45.4742 21.6605C45.4992 21.6439 45.5241 21.6272 45.5491 21.6189H52.2296ZM60 17.8585C60 17.0765 59.376 16.5273 58.2944 16.5273H45.3244C43.802 16.5273 41.9384 17.6089 41.1813 18.9234L34.7004 30.1546C34.4841 30.5373 34.376 30.8951 34.376 31.2196C34.376 32.0099 35 32.5506 36.0815 32.5506H49.0515C50.574 32.5506 52.4375 31.4774 53.1946 30.1546L59.6755 18.9234C59.8918 18.5323 60 18.1747 60 17.8585Z" fill="#CFB675"/>
<path d="M17.8535 41.469L14.5174 47.251C14.4925 47.2676 14.4675 47.2843 14.4426 47.2926H7.76203L11.0981 41.5105C11.1231 41.4939 11.1481 41.4773 11.1731 41.469H17.8535ZM25.624 37.7002C25.624 36.9182 25 36.3691 23.9185 36.3691H10.9484C9.42599 36.3691 7.56244 37.4424 6.80537 38.7652L0.324471 49.9964C0.108165 50.3791 0 50.7368 0 51.0613C0 51.8516 0.624001 52.3924 1.70553 52.3924H14.6756C16.198 52.3924 18.0616 51.3192 18.8186 49.9964L25.2995 38.7652C25.5158 38.3825 25.624 38.0247 25.624 37.7002Z" fill="#CFB675"/>
<path d="M17.8535 27.4502H11.1731C11.1481 27.4336 11.1231 27.4253 11.0981 27.4087L7.76203 21.6266H14.4426C14.4675 21.6433 14.4925 21.6516 14.5174 21.6683L17.8535 27.4502ZM25.624 31.2107C25.624 30.8862 25.5158 30.5284 25.2995 30.1457L18.8186 18.9145C18.0616 17.6 16.198 16.5186 14.6756 16.5186H1.70553C0.624001 16.5186 0 17.0593 0 17.8496C0 18.1741 0.108165 18.5318 0.324471 18.9145L6.80537 30.1457C7.56244 31.4602 9.43431 32.5418 10.9484 32.5418H23.9185C24.9917 32.5418 25.624 32.001 25.624 31.2107Z" fill="#CFB675"/>
<path d="M52.2296 47.2916H45.5491C45.5241 47.275 45.4992 47.2666 45.4742 47.25L42.1381 41.468H48.8187C48.8436 41.4846 48.8686 41.4929 48.8935 41.5095L52.2296 47.2916ZM60 51.0603C60 50.7358 59.8918 50.3782 59.6755 49.9955L53.1946 38.7642C52.4375 37.4497 50.574 36.3682 49.0515 36.3682H36.0815C35 36.3682 34.376 36.9089 34.376 37.6993C34.376 38.0237 34.4841 38.3815 34.7004 38.7642L41.1813 49.9955C41.9384 51.3099 43.8103 52.3915 45.3244 52.3915H58.2944C59.376 52.3915 60 51.8423 60 51.0603Z" fill="#CFB675"/>
</svg>
