<svg width="560" height="549" viewBox="0 0 560 549" fill="none" xmlns="http://www.w3.org/2000/svg">
<path d="M147.486 76.5678C147.486 77.1521 147.616 77.742 147.868 78.1858L152.245 85.7698C152.756 86.6575 153.599 86.6575 154.11 85.7698L158.486 78.1858C158.745 77.742 158.868 77.1577 158.868 76.5678C158.868 75.9836 158.739 75.3993 158.486 74.9499L154.11 67.3658C153.599 66.4782 152.756 66.4782 152.245 67.3658L147.868 74.9499C147.616 75.3993 147.486 75.9836 147.486 76.5678Z" fill="#979797"/>
<rect x="17.4854" y="101.111" width="188.309" height="43.0148" rx="21.5074" fill="#F6F6F6"/>
<rect x="402.706" y="326.701" width="156.765" height="30.5883" rx="15.2941" fill="#F6F6F6"/>
<rect x="357.78" y="353.465" width="156.765" height="30.5883" rx="15.2941" fill="#F6F6F6"/>
<rect x="15.5732" y="439.495" width="248.53" height="30.5883" rx="15.2941" fill="#F6F6F6"/>
<rect x="54.7646" y="409.861" width="248.53" height="30.5883" rx="15.2941" fill="#F6F6F6"/>
<rect x="26.0879" y="379.274" width="86.0295" height="30.5883" rx="15.2941" fill="#F6F6F6"/>
<rect x="101.604" y="135.523" width="243.75" height="43.0148" rx="21.5074" fill="#F6F6F6"/>
<path d="M310 518.26C310 519.045 310.173 519.838 310.513 520.434L316.394 530.625C317.081 531.818 318.213 531.818 318.9 530.625L324.781 520.434C325.128 519.838 325.294 519.052 325.294 518.26C325.294 517.475 325.12 516.69 324.781 516.086L318.9 505.895C318.213 504.702 317.081 504.702 316.394 505.895L310.513 516.086C310.173 516.69 310 517.475 310 518.26Z" fill="#CFB675"/>
<path d="M417.455 48.7788C417.455 49.363 417.584 49.9529 417.837 50.3967L422.214 57.9808C422.725 58.8684 423.567 58.8684 424.079 57.9808L428.455 50.3967C428.713 49.9529 428.837 49.3686 428.837 48.7788C428.837 48.1945 428.708 47.6103 428.455 47.1608L424.079 39.5768C423.567 38.6892 422.725 38.6892 422.214 39.5768L417.837 47.1608C417.584 47.6103 417.455 48.1945 417.455 48.7788Z" fill="#979797"/>
<path d="M385.591 53.2053C385.591 53.9394 385.753 54.6806 386.071 55.2383L391.57 64.768C392.212 65.8833 393.271 65.8833 393.914 64.768L399.413 55.2383C399.737 54.6806 399.893 53.9465 399.893 53.2053C399.893 52.4711 399.73 51.737 399.413 51.1723L393.914 41.6426C393.271 40.5272 392.212 40.5272 391.57 41.6426L386.071 51.1723C385.753 51.737 385.591 52.4711 385.591 53.2053Z" fill="white"/>
<path d="M396.667 52.7459C396.667 52.7638 396.667 52.7817 396.667 52.7907L393.072 59.0209L389.477 52.7907C389.477 52.7728 389.477 52.7638 389.477 52.7459C389.477 52.728 389.477 52.71 389.477 52.7011L393.072 46.4708L396.667 52.7011C396.667 52.71 396.667 52.728 396.667 52.7459ZM402.162 52.7459C402.162 51.8136 401.956 50.8723 401.552 50.1642L394.569 38.0623C393.753 36.6459 392.409 36.6459 391.593 38.0623L384.61 50.1642C384.197 50.8723 384 51.8046 384 52.7459C384 53.6782 384.206 54.6105 384.61 55.3276L391.593 67.4295C392.409 68.8459 393.753 68.8459 394.569 67.4295L401.552 55.3276C401.956 54.6105 402.162 53.6782 402.162 52.7459Z" fill="#232323"/>
<circle cx="278.5" cy="286.803" r="207.676" stroke="#BDBDBD" stroke-width="7.64707"/>
<rect x="204" y="0.744141" width="150" height="150" rx="75" fill="#E3E3E3"/>
<path d="M245.625 58.1953H247.703L252.966 65.0859V58.1953H255.058V68.4492H252.946L247.675 61.5449V68.4492H245.625V58.1953ZM256.976 58.1953H263.292V60.041H259.067V62.2559H263.018V64.1016H259.067V68.4492H256.976V58.1953ZM264.321 60.041V58.1953H272.278V60.041H269.345V68.4492H267.253V60.041H264.321ZM285.266 67.1436C284.792 67.613 284.229 67.9821 283.577 68.251C282.925 68.5199 282.215 68.6543 281.444 68.6543C280.674 68.6543 279.963 68.5221 279.312 68.2578C278.664 67.9935 278.102 67.6221 277.623 67.1436C277.145 66.665 276.773 66.1022 276.509 65.4551C276.244 64.8034 276.112 64.0924 276.112 63.3223C276.112 62.5521 276.244 61.8434 276.509 61.1963C276.773 60.5446 277.145 59.9795 277.623 59.501C278.102 59.0225 278.664 58.651 279.312 58.3867C279.963 58.1224 280.674 57.9902 281.444 57.9902C282.215 57.9902 282.925 58.1247 283.577 58.3936C284.229 58.6579 284.792 59.027 285.266 59.501L283.837 60.9297C283.55 60.5879 283.201 60.3213 282.791 60.1299C282.381 59.9339 281.932 59.8359 281.444 59.8359C280.825 59.8359 280.273 59.9863 279.79 60.2871C279.307 60.5879 278.926 61.0026 278.648 61.5312C278.37 62.0553 278.231 62.6523 278.231 63.3223C278.231 63.9922 278.37 64.5892 278.648 65.1133C278.926 65.6374 279.307 66.0521 279.79 66.3574C280.273 66.6582 280.825 66.8086 281.444 66.8086C281.932 66.8086 282.381 66.7129 282.791 66.5215C283.201 66.3255 283.55 66.0566 283.837 65.7148L285.266 67.1436ZM288.748 57.9219V68.4492H286.78V57.9219H288.748ZM290.529 61.6201H292.505V65.2842C292.505 65.7946 292.612 66.1888 292.826 66.4668C293.04 66.7448 293.348 66.8838 293.749 66.8838C294.177 66.8838 294.523 66.7334 294.788 66.4326C295.057 66.1318 295.191 65.7467 295.191 65.2773H295.198V61.6133H297.167V68.4492H295.444L295.362 67.6084C295.093 67.9183 294.772 68.1598 294.398 68.333C294.024 68.5016 293.614 68.5859 293.168 68.5859C292.302 68.5859 291.646 68.3057 291.199 67.7451C290.752 67.1846 290.529 66.3597 290.529 65.2705V61.6201ZM299.091 68.4492V58.1953H301.06V62.29C301.347 62.0348 301.675 61.8366 302.044 61.6953C302.413 61.5495 302.812 61.4766 303.24 61.4766C303.883 61.4766 304.455 61.6315 304.956 61.9414C305.457 62.2467 305.852 62.6683 306.139 63.2061C306.426 63.7393 306.569 64.3477 306.569 65.0312C306.569 65.7148 306.426 66.3255 306.139 66.8633C305.852 67.3965 305.457 67.818 304.956 68.1279C304.455 68.4333 303.883 68.5859 303.24 68.5859C302.798 68.5859 302.386 68.5107 302.003 68.3604C301.62 68.2054 301.285 67.9889 300.998 67.7109L300.95 68.4492H299.091ZM302.796 66.877C303.297 66.877 303.712 66.7015 304.04 66.3506C304.368 65.9997 304.532 65.5599 304.532 65.0312C304.532 64.5026 304.368 64.0628 304.04 63.7119C303.712 63.361 303.297 63.1855 302.796 63.1855C302.295 63.1855 301.88 63.361 301.552 63.7119C301.224 64.0628 301.06 64.5026 301.06 65.0312C301.06 65.5599 301.224 65.9997 301.552 66.3506C301.88 66.7015 302.295 66.877 302.796 66.877ZM239.44 87.8086C239.859 87.8086 240.21 87.6924 240.493 87.46C240.78 87.2275 240.923 86.9404 240.923 86.5986C240.923 86.3252 240.83 86.0928 240.643 85.9014C240.461 85.71 240.219 85.5391 239.918 85.3887C239.618 85.2337 239.292 85.0833 238.941 84.9375C238.595 84.7917 238.246 84.6344 237.895 84.4658C237.549 84.2926 237.23 84.0898 236.938 83.8574C236.646 83.625 236.412 83.3447 236.234 83.0166C236.056 82.6885 235.967 82.2943 235.967 81.834C235.967 81.2643 236.111 80.7676 236.398 80.3438C236.685 79.9154 237.088 79.5827 237.608 79.3457C238.127 79.1087 238.731 78.9902 239.419 78.9902C240.518 78.9902 241.57 79.2637 242.578 79.8105L241.716 81.5605C241.27 81.278 240.844 81.0866 240.438 80.9863C240.032 80.8861 239.695 80.8359 239.426 80.8359C239.021 80.8359 238.695 80.9225 238.449 81.0957C238.207 81.2643 238.086 81.4899 238.086 81.7725C238.086 82.014 238.173 82.2214 238.346 82.3945C238.519 82.5677 238.747 82.7227 239.03 82.8594C239.317 82.9961 239.629 83.1351 239.966 83.2764C240.317 83.4222 240.673 83.5817 241.033 83.7549C241.393 83.9281 241.725 84.1354 242.031 84.377C242.336 84.6185 242.58 84.9102 242.762 85.252C242.949 85.5938 243.042 86.0062 243.042 86.4893C243.042 87.1045 242.885 87.6514 242.571 88.1299C242.256 88.6038 241.823 88.9775 241.272 89.251C240.721 89.5199 240.087 89.6543 239.372 89.6543C238.711 89.6543 238.048 89.5381 237.382 89.3057C236.717 89.0687 236.109 88.736 235.557 88.3076L236.542 86.6396C236.797 86.863 237.091 87.0635 237.423 87.2412C237.756 87.4189 238.098 87.5579 238.449 87.6582C238.804 87.7585 239.135 87.8086 239.44 87.8086ZM244.557 82.6201H246.532V86.2842C246.532 86.7946 246.639 87.1888 246.853 87.4668C247.068 87.7448 247.375 87.8838 247.776 87.8838C248.205 87.8838 248.551 87.7334 248.815 87.4326C249.084 87.1318 249.219 86.7467 249.219 86.2773H249.225V82.6133H251.194V89.4492H249.472L249.39 88.6084C249.121 88.9183 248.799 89.1598 248.426 89.333C248.052 89.5016 247.642 89.5859 247.195 89.5859C246.329 89.5859 245.673 89.3057 245.226 88.7451C244.78 88.1846 244.557 87.3597 244.557 86.2705V82.6201ZM253.118 89.4492V79.1953H255.087V83.29C255.374 83.0348 255.702 82.8366 256.072 82.6953C256.441 82.5495 256.839 82.4766 257.268 82.4766C257.91 82.4766 258.482 82.6315 258.984 82.9414C259.485 83.2467 259.879 83.6683 260.166 84.2061C260.453 84.7393 260.597 85.3477 260.597 86.0312C260.597 86.7148 260.453 87.3255 260.166 87.8633C259.879 88.3965 259.485 88.818 258.984 89.1279C258.482 89.4333 257.91 89.5859 257.268 89.5859C256.826 89.5859 256.413 89.5107 256.031 89.3604C255.648 89.2054 255.313 88.9889 255.026 88.7109L254.978 89.4492H253.118ZM256.823 87.877C257.325 87.877 257.739 87.7015 258.068 87.3506C258.396 86.9997 258.56 86.5599 258.56 86.0312C258.56 85.5026 258.396 85.0628 258.068 84.7119C257.739 84.361 257.325 84.1855 256.823 84.1855C256.322 84.1855 255.907 84.361 255.579 84.7119C255.251 85.0628 255.087 85.5026 255.087 86.0312C255.087 86.5599 255.251 86.9997 255.579 87.3506C255.907 87.7015 256.322 87.877 256.823 87.877ZM261.626 88.5811L262.555 87.0977C262.947 87.3574 263.307 87.5648 263.635 87.7197C263.968 87.8701 264.264 87.9453 264.524 87.9453C264.725 87.9453 264.886 87.8997 265.009 87.8086C265.132 87.7174 265.194 87.6012 265.194 87.46C265.194 87.2549 265.078 87.0885 264.845 86.9609C264.617 86.8333 264.353 86.708 264.052 86.585C263.733 86.4528 263.412 86.3047 263.088 86.1406C262.769 85.972 262.501 85.7555 262.282 85.4912C262.068 85.2269 261.961 84.8851 261.961 84.4658C261.961 83.887 262.188 83.4108 262.644 83.0371C263.104 82.6634 263.754 82.4766 264.592 82.4766C265.003 82.4766 265.433 82.529 265.884 82.6338C266.34 82.734 266.755 82.8981 267.129 83.126L266.26 84.623C266.06 84.4909 265.798 84.3747 265.474 84.2744C265.155 84.1696 264.884 84.1172 264.661 84.1172C264.533 84.1172 264.392 84.1445 264.237 84.1992C264.087 84.2493 264.011 84.3496 264.011 84.5C264.011 84.6686 264.116 84.8076 264.326 84.917C264.54 85.0264 264.793 85.138 265.085 85.252C265.399 85.375 265.723 85.5208 266.055 85.6895C266.388 85.8535 266.668 86.0745 266.896 86.3525C267.129 86.626 267.245 86.986 267.245 87.4326C267.245 87.8792 267.122 88.2643 266.876 88.5879C266.629 88.9115 266.301 89.1598 265.891 89.333C265.481 89.5016 265.028 89.5859 264.531 89.5859C264.061 89.5859 263.574 89.5039 263.068 89.3398C262.567 89.1758 262.086 88.9229 261.626 88.5811ZM274.747 88.5742C274.414 88.8932 274.016 89.1416 273.551 89.3193C273.09 89.4971 272.589 89.5859 272.047 89.5859C271.322 89.5859 270.675 89.4333 270.105 89.1279C269.54 88.818 269.094 88.3965 268.766 87.8633C268.437 87.3255 268.273 86.7148 268.273 86.0312C268.273 85.3477 268.437 84.7393 268.766 84.2061C269.094 83.6683 269.54 83.2467 270.105 82.9414C270.675 82.6315 271.322 82.4766 272.047 82.4766C272.589 82.4766 273.09 82.5654 273.551 82.7432C274.016 82.9209 274.414 83.1693 274.747 83.4883L273.359 84.7939C273.031 84.3883 272.594 84.1855 272.047 84.1855C271.546 84.1855 271.131 84.361 270.803 84.7119C270.475 85.0628 270.311 85.5026 270.311 86.0312C270.311 86.5599 270.475 86.9997 270.803 87.3506C271.131 87.7015 271.546 87.877 272.047 87.877C272.594 87.877 273.031 87.6742 273.359 87.2686L274.747 88.5742ZM276.193 89.4492V82.6133H277.915L278.011 83.5908C278.508 82.848 279.191 82.4766 280.062 82.4766C280.358 82.4766 280.663 82.5221 280.978 82.6133L280.704 84.3154C280.44 84.2288 280.18 84.1855 279.925 84.1855C279.396 84.1855 278.97 84.3815 278.647 84.7734C278.323 85.1608 278.161 85.7145 278.161 86.4346V89.4492H276.193ZM281.651 80.2891C281.651 79.9609 281.751 79.6966 281.952 79.4961C282.152 79.2956 282.417 79.1953 282.745 79.1953C283.073 79.1953 283.337 79.2956 283.538 79.4961C283.738 79.6966 283.839 79.9609 283.839 80.2891C283.839 80.6172 283.738 80.8815 283.538 81.082C283.337 81.2826 283.073 81.3828 282.745 81.3828C282.417 81.3828 282.152 81.2826 281.952 81.082C281.751 80.8815 281.651 80.6172 281.651 80.2891ZM281.76 89.4492V82.6133H283.729V89.4492H281.76ZM285.537 82.6133H287.397L287.444 83.3516C287.731 83.0736 288.066 82.8594 288.449 82.709C288.832 82.554 289.245 82.4766 289.687 82.4766C290.329 82.4766 290.901 82.6315 291.402 82.9414C291.904 83.2467 292.298 83.6683 292.585 84.2061C292.872 84.7393 293.016 85.3477 293.016 86.0312C293.016 86.7148 292.872 87.3255 292.585 87.8633C292.298 88.3965 291.904 88.818 291.402 89.1279C290.901 89.4333 290.329 89.5859 289.687 89.5859C289.258 89.5859 288.859 89.5153 288.49 89.374C288.121 89.2282 287.793 89.0277 287.506 88.7725V92.8672H285.537V82.6133ZM289.242 84.1855C288.741 84.1855 288.326 84.361 287.998 84.7119C287.67 85.0628 287.506 85.5026 287.506 86.0312C287.506 86.5599 287.67 86.9997 287.998 87.3506C288.326 87.7015 288.741 87.877 289.242 87.877C289.744 87.877 290.158 87.7015 290.486 87.3506C290.814 86.9997 290.979 86.5599 290.979 86.0312C290.979 85.5026 290.814 85.0628 290.486 84.7119C290.158 84.361 289.744 84.1855 289.242 84.1855ZM293.976 82.6133H295.104V80.9043H297.073V82.6133H298.734V84.3223H297.073V86.8379C297.073 87.1615 297.175 87.4167 297.38 87.6035C297.59 87.7858 297.854 87.877 298.173 87.877C298.41 87.877 298.654 87.8245 298.905 87.7197V89.333C298.472 89.5016 298.046 89.5859 297.626 89.5859C296.815 89.5859 296.191 89.3695 295.753 88.9365C295.32 88.499 295.104 87.8747 295.104 87.0635V84.3223H293.976V82.6133ZM300.118 80.2891C300.118 79.9609 300.218 79.6966 300.419 79.4961C300.619 79.2956 300.884 79.1953 301.212 79.1953C301.54 79.1953 301.804 79.2956 302.005 79.4961C302.205 79.6966 302.305 79.9609 302.305 80.2891C302.305 80.6172 302.205 80.8815 302.005 81.082C301.804 81.2826 301.54 81.3828 301.212 81.3828C300.884 81.3828 300.619 81.2826 300.419 81.082C300.218 80.8815 300.118 80.6172 300.118 80.2891ZM300.227 89.4492V82.6133H302.196V89.4492H300.227ZM303.526 86.0312C303.526 85.3477 303.683 84.7393 303.997 84.2061C304.316 83.6683 304.749 83.2467 305.296 82.9414C305.847 82.6315 306.474 82.4766 307.176 82.4766C307.878 82.4766 308.502 82.6315 309.049 82.9414C309.596 83.2467 310.026 83.6683 310.341 84.2061C310.66 84.7393 310.819 85.3477 310.819 86.0312C310.819 86.7148 310.66 87.3255 310.341 87.8633C310.026 88.3965 309.596 88.818 309.049 89.1279C308.502 89.4333 307.878 89.5859 307.176 89.5859C306.474 89.5859 305.847 89.4333 305.296 89.1279C304.749 88.818 304.316 88.3965 303.997 87.8633C303.683 87.3255 303.526 86.7148 303.526 86.0312ZM305.44 86.0312C305.44 86.5599 305.604 86.9997 305.932 87.3506C306.26 87.7015 306.675 87.877 307.176 87.877C307.677 87.877 308.092 87.7015 308.42 87.3506C308.748 86.9997 308.912 86.5599 308.912 86.0312C308.912 85.5026 308.748 85.0628 308.42 84.7119C308.092 84.361 307.677 84.1855 307.176 84.1855C306.675 84.1855 306.26 84.361 305.932 84.7119C305.604 85.0628 305.44 85.5026 305.44 86.0312ZM312.265 89.4492V82.6133H313.988L314.07 83.4473C314.339 83.1374 314.66 82.8981 315.034 82.7295C315.412 82.5609 315.827 82.4766 316.278 82.4766C317.075 82.4766 317.711 82.7409 318.185 83.2695C318.659 83.7936 318.896 84.5251 318.896 85.4639V89.4492H316.92V85.8467C316.92 84.7393 316.506 84.1855 315.676 84.1855C315.248 84.1855 314.899 84.3428 314.63 84.6572C314.366 84.9717 314.234 85.4137 314.234 85.9834V89.4492H312.265Z" fill="#232323"/>
<rect x="406" y="176" width="150" height="150" rx="75" fill="#E3E3E3"/>
<path d="M439.967 233.746H442.045L447.309 240.637V233.746H449.401V244H447.288L442.018 237.096V244H439.967V233.746ZM451.318 233.746H457.634V235.592H453.41V237.807H457.361V239.652H453.41V244H451.318V233.746ZM458.663 235.592V233.746H466.62V235.592H463.687V244H461.596V235.592H458.663ZM471.002 244V233.746H473.722L475.978 238.579C476.083 238.843 476.186 239.11 476.286 239.379C476.391 239.643 476.491 239.91 476.587 240.179C476.682 239.901 476.783 239.625 476.887 239.352C476.997 239.078 477.108 238.821 477.222 238.579L479.471 233.746H482.137V244H480.046C480.046 242.751 480.057 241.532 480.08 240.343C480.103 239.153 480.15 237.962 480.223 236.768C480.105 237.082 479.979 237.394 479.847 237.704C479.72 238.014 479.585 238.319 479.444 238.62L477.714 242.325H475.418L473.695 238.634C473.554 238.287 473.417 237.948 473.285 237.615C473.153 237.278 473.023 236.941 472.895 236.604C472.945 237.396 472.984 238.164 473.011 238.907C473.043 239.646 473.064 240.423 473.073 241.238C473.087 242.054 473.093 242.975 473.093 244H471.002ZM483.843 234.84C483.843 234.512 483.943 234.247 484.144 234.047C484.344 233.846 484.608 233.746 484.937 233.746C485.265 233.746 485.529 233.846 485.729 234.047C485.93 234.247 486.03 234.512 486.03 234.84C486.03 235.168 485.93 235.432 485.729 235.633C485.529 235.833 485.265 235.934 484.937 235.934C484.608 235.934 484.344 235.833 484.144 235.633C483.943 235.432 483.843 235.168 483.843 234.84ZM483.952 244V237.164H485.921V244H483.952ZM487.729 244V237.164H489.452L489.534 237.998C489.802 237.688 490.124 237.449 490.497 237.28C490.876 237.112 491.29 237.027 491.742 237.027C492.539 237.027 493.175 237.292 493.649 237.82C494.123 238.344 494.36 239.076 494.36 240.015V244H492.384V240.397C492.384 239.29 491.969 238.736 491.14 238.736C490.712 238.736 490.363 238.894 490.094 239.208C489.83 239.522 489.698 239.965 489.698 240.534V244H487.729ZM495.593 237.164H496.721V235.455H498.69V237.164H500.351V238.873H498.69V241.389C498.69 241.712 498.793 241.967 498.998 242.154C499.207 242.337 499.472 242.428 499.791 242.428C500.028 242.428 500.272 242.375 500.522 242.271V243.884C500.089 244.052 499.663 244.137 499.244 244.137C498.433 244.137 497.808 243.92 497.371 243.487C496.938 243.05 496.721 242.425 496.721 241.614V238.873H495.593V237.164ZM501.735 234.84C501.735 234.512 501.836 234.247 502.036 234.047C502.237 233.846 502.501 233.746 502.829 233.746C503.157 233.746 503.422 233.846 503.622 234.047C503.823 234.247 503.923 234.512 503.923 234.84C503.923 235.168 503.823 235.432 503.622 235.633C503.422 235.833 503.157 235.934 502.829 235.934C502.501 235.934 502.237 235.833 502.036 235.633C501.836 235.432 501.735 235.168 501.735 234.84ZM501.845 244V237.164H503.814V244H501.845ZM505.622 244V237.164H507.344L507.426 237.998C507.695 237.688 508.016 237.449 508.39 237.28C508.768 237.112 509.183 237.027 509.634 237.027C510.432 237.027 511.067 237.292 511.541 237.82C512.015 238.344 512.252 239.076 512.252 240.015V244H510.277V240.397C510.277 239.29 509.862 238.736 509.033 238.736C508.604 238.736 508.256 238.894 507.987 239.208C507.722 239.522 507.59 239.965 507.59 240.534V244H505.622ZM516.884 237.027C517.33 237.027 517.743 237.105 518.121 237.26C518.504 237.41 518.839 237.624 519.126 237.902L519.174 237.164H521.033V243.2C521.033 244.075 520.867 244.839 520.534 245.49C520.206 246.142 519.743 246.648 519.146 247.008C518.554 247.372 517.857 247.555 517.054 247.555C516.612 247.555 516.143 247.493 515.646 247.37C515.15 247.247 514.641 247.056 514.122 246.796L514.717 245.162C514.944 245.354 515.263 245.515 515.674 245.647C516.084 245.784 516.478 245.853 516.856 245.853C517.535 245.853 518.073 245.625 518.47 245.169C518.866 244.718 519.064 244.107 519.064 243.337V243.323C518.777 243.578 518.449 243.779 518.08 243.925C517.711 244.066 517.312 244.137 516.884 244.137C516.246 244.137 515.674 243.984 515.168 243.679C514.666 243.369 514.272 242.947 513.985 242.414C513.698 241.876 513.554 241.266 513.554 240.582C513.554 239.898 513.698 239.29 513.985 238.757C514.272 238.219 514.666 237.798 515.168 237.492C515.674 237.182 516.246 237.027 516.884 237.027ZM517.328 242.428C517.829 242.428 518.244 242.252 518.572 241.901C518.9 241.55 519.064 241.111 519.064 240.582C519.064 240.053 518.9 239.614 518.572 239.263C518.244 238.912 517.829 238.736 517.328 238.736C516.827 238.736 516.412 238.912 516.084 239.263C515.756 239.614 515.592 240.053 515.592 240.582C515.592 241.111 515.756 241.55 516.084 241.901C516.412 242.252 516.827 242.428 517.328 242.428ZM449.546 254.746V265H447.454V254.746H449.546ZM451.463 265V258.164H453.186L453.268 258.998C453.537 258.688 453.858 258.449 454.232 258.28C454.61 258.112 455.025 258.027 455.476 258.027C456.273 258.027 456.909 258.292 457.383 258.82C457.857 259.344 458.094 260.076 458.094 261.015V265H456.118V261.397C456.118 260.29 455.704 259.736 454.874 259.736C454.446 259.736 454.097 259.894 453.828 260.208C453.564 260.522 453.432 260.965 453.432 261.534V265H451.463ZM465.87 264.125C465.537 264.444 465.138 264.692 464.673 264.87C464.213 265.048 463.712 265.137 463.17 265.137C462.445 265.137 461.798 264.984 461.228 264.679C460.663 264.369 460.216 263.947 459.888 263.414C459.56 262.876 459.396 262.266 459.396 261.582C459.396 260.898 459.56 260.29 459.888 259.757C460.216 259.219 460.663 258.798 461.228 258.492C461.798 258.182 462.445 258.027 463.17 258.027C463.712 258.027 464.213 258.116 464.673 258.294C465.138 258.472 465.537 258.72 465.87 259.039L464.482 260.345C464.154 259.939 463.716 259.736 463.17 259.736C462.668 259.736 462.254 259.912 461.925 260.263C461.597 260.614 461.433 261.053 461.433 261.582C461.433 262.111 461.597 262.55 461.925 262.901C462.254 263.252 462.668 263.428 463.17 263.428C463.716 263.428 464.154 263.225 464.482 262.819L465.87 264.125ZM468.689 262.17C468.812 262.548 469.038 262.856 469.366 263.093C469.699 263.33 470.086 263.448 470.528 263.448C471.002 263.448 471.394 263.373 471.704 263.223C472.019 263.068 472.303 262.869 472.559 262.628L473.748 264.05C473.219 264.465 472.695 264.749 472.176 264.904C471.661 265.059 471.166 265.137 470.692 265.137C469.936 265.137 469.268 264.984 468.689 264.679C468.111 264.369 467.657 263.945 467.329 263.407C467.001 262.865 466.837 262.25 466.837 261.562C466.837 260.882 466.994 260.279 467.309 259.75C467.623 259.217 468.051 258.798 468.594 258.492C469.141 258.182 469.76 258.027 470.453 258.027C471.141 258.027 471.752 258.18 472.285 258.485C472.823 258.791 473.247 259.21 473.557 259.743C473.866 260.276 474.021 260.887 474.021 261.575V262.17H468.689ZM471.998 261.076C471.902 260.675 471.706 260.352 471.41 260.105C471.114 259.859 470.758 259.736 470.344 259.736C469.924 259.736 469.56 259.862 469.25 260.112C468.945 260.363 468.744 260.684 468.648 261.076H471.998ZM475.467 265V258.164H477.19L477.272 258.998C477.541 258.688 477.862 258.449 478.236 258.28C478.614 258.112 479.029 258.027 479.48 258.027C480.277 258.027 480.913 258.292 481.387 258.82C481.861 259.344 482.098 260.076 482.098 261.015V265H480.122V261.397C480.122 260.29 479.708 259.736 478.878 259.736C478.45 259.736 478.101 259.894 477.832 260.208C477.568 260.522 477.436 260.965 477.436 261.534V265H475.467ZM483.332 258.164H484.46V256.455H486.428V258.164H488.09V259.873H486.428V262.389C486.428 262.712 486.531 262.967 486.736 263.154C486.946 263.337 487.21 263.428 487.529 263.428C487.766 263.428 488.01 263.375 488.26 263.271V264.884C487.827 265.052 487.401 265.137 486.982 265.137C486.171 265.137 485.547 264.92 485.109 264.487C484.676 264.05 484.46 263.425 484.46 262.614V259.873H483.332V258.164ZM489.474 255.84C489.474 255.512 489.574 255.247 489.774 255.047C489.975 254.846 490.239 254.746 490.567 254.746C490.896 254.746 491.16 254.846 491.36 255.047C491.561 255.247 491.661 255.512 491.661 255.84C491.661 256.168 491.561 256.432 491.36 256.633C491.16 256.833 490.896 256.934 490.567 256.934C490.239 256.934 489.975 256.833 489.774 256.633C489.574 256.432 489.474 256.168 489.474 255.84ZM489.583 265V258.164H491.552V265H489.583ZM492.403 258.164H494.542L495.78 261.493C495.843 261.666 495.914 261.919 495.992 262.252C496.074 262.585 496.137 262.885 496.183 263.154H496.21C496.265 262.885 496.333 262.587 496.415 262.259C496.502 261.931 496.577 261.675 496.641 261.493L497.783 258.164H499.854L497.154 265H495.24L492.403 258.164ZM501.969 262.17C502.093 262.548 502.318 262.856 502.646 263.093C502.979 263.33 503.366 263.448 503.808 263.448C504.282 263.448 504.674 263.373 504.984 263.223C505.299 263.068 505.583 262.869 505.839 262.628L507.028 264.05C506.499 264.465 505.975 264.749 505.456 264.904C504.941 265.059 504.446 265.137 503.972 265.137C503.216 265.137 502.548 264.984 501.969 264.679C501.391 264.369 500.937 263.945 500.609 263.407C500.281 262.865 500.117 262.25 500.117 261.562C500.117 260.882 500.274 260.279 500.589 259.75C500.903 259.217 501.331 258.798 501.874 258.492C502.421 258.182 503.04 258.027 503.733 258.027C504.421 258.027 505.032 258.18 505.565 258.485C506.103 258.791 506.527 259.21 506.837 259.743C507.147 260.276 507.302 260.887 507.302 261.575V262.17H501.969ZM505.278 261.076C505.182 260.675 504.986 260.352 504.69 260.105C504.394 259.859 504.039 259.736 503.624 259.736C503.205 259.736 502.84 259.862 502.53 260.112C502.225 260.363 502.024 260.684 501.928 261.076H505.278ZM508.337 264.132L509.267 262.648C509.659 262.908 510.019 263.116 510.347 263.271C510.679 263.421 510.976 263.496 511.235 263.496C511.436 263.496 511.598 263.451 511.721 263.359C511.844 263.268 511.905 263.152 511.905 263.011C511.905 262.806 511.789 262.639 511.557 262.512C511.329 262.384 511.065 262.259 510.764 262.136C510.445 262.004 510.123 261.855 509.8 261.691C509.481 261.523 509.212 261.306 508.993 261.042C508.779 260.778 508.672 260.436 508.672 260.017C508.672 259.438 508.9 258.962 509.356 258.588C509.816 258.214 510.465 258.027 511.304 258.027C511.714 258.027 512.145 258.08 512.596 258.185C513.052 258.285 513.466 258.449 513.84 258.677L512.972 260.174C512.771 260.042 512.509 259.925 512.186 259.825C511.867 259.72 511.595 259.668 511.372 259.668C511.245 259.668 511.103 259.695 510.948 259.75C510.798 259.8 510.723 259.9 510.723 260.051C510.723 260.219 510.828 260.358 511.037 260.468C511.251 260.577 511.504 260.689 511.796 260.803C512.11 260.926 512.434 261.072 512.767 261.24C513.099 261.404 513.38 261.625 513.608 261.903C513.84 262.177 513.956 262.537 513.956 262.983C513.956 263.43 513.833 263.815 513.587 264.139C513.341 264.462 513.013 264.711 512.603 264.884C512.192 265.052 511.739 265.137 511.242 265.137C510.773 265.137 510.285 265.055 509.779 264.891C509.278 264.727 508.797 264.474 508.337 264.132Z" fill="#232323"/>
<rect y="176" width="150" height="150" rx="75" fill="#E3E3E3"/>
<path d="M29.3625 244V233.746H32.9035C34.175 233.746 35.1685 234.049 35.8839 234.655C36.5994 235.257 36.9572 236.075 36.9572 237.109C36.9572 237.798 36.7954 238.395 36.4718 238.9C36.1483 239.406 35.6834 239.798 35.0773 240.076C34.4757 240.354 33.7511 240.493 32.9035 240.493H31.4474V244H29.3625ZM32.6916 235.489H31.4474V238.757H32.6916C33.3934 238.757 33.9266 238.602 34.2912 238.292C34.6558 237.982 34.838 237.59 34.838 237.116C34.838 236.642 34.6558 236.253 34.2912 235.947C33.9266 235.642 33.3934 235.489 32.6916 235.489ZM40.1665 233.473V244H38.1978V233.473H40.1665ZM41.8651 242.12C41.8651 241.664 41.995 241.257 42.2548 240.896C42.5191 240.536 42.8814 240.252 43.3417 240.042C43.802 239.832 44.3283 239.728 44.9208 239.728C45.1076 239.728 45.3036 239.739 45.5087 239.762C45.7183 239.785 45.9279 239.814 46.1376 239.851C45.9872 239.108 45.4471 238.736 44.5175 238.736C43.966 238.736 43.4123 238.944 42.8563 239.358L42.1796 237.697C42.6535 237.469 43.1207 237.301 43.5809 237.191C44.0412 237.082 44.4787 237.027 44.8934 237.027C45.5542 237.027 46.1262 237.153 46.6093 237.403C47.0969 237.649 47.4751 238 47.744 238.456C48.0129 238.907 48.1473 239.438 48.1473 240.049V244H46.493L46.3632 243.269C46.108 243.537 45.7958 243.749 45.4266 243.904C45.0621 244.059 44.661 244.137 44.2235 244.137C43.5308 244.137 42.9634 243.95 42.5214 243.576C42.0839 243.202 41.8651 242.717 41.8651 242.12ZM43.8339 241.669C43.8339 241.897 43.9205 242.081 44.0936 242.223C44.2714 242.359 44.5038 242.428 44.7909 242.428C45.1828 242.428 45.511 242.309 45.7753 242.072C46.0442 241.835 46.1786 241.544 46.1786 241.197V241.061C46.01 241.006 45.8277 240.963 45.6317 240.931C45.4403 240.899 45.2512 240.883 45.0643 240.883C44.677 240.883 44.3739 240.951 44.1552 241.088C43.941 241.225 43.8339 241.418 43.8339 241.669ZM49.3059 237.164H50.4338V235.455H52.4026V237.164H54.0637V238.873H52.4026V241.389C52.4026 241.712 52.5051 241.967 52.7102 242.154C52.9198 242.337 53.1842 242.428 53.5032 242.428C53.7401 242.428 53.984 242.375 54.2346 242.271V243.884C53.8017 244.052 53.3756 244.137 52.9563 244.137C52.1451 244.137 51.5207 243.92 51.0832 243.487C50.6503 243.05 50.4338 242.425 50.4338 241.614V238.873H49.3059V237.164ZM56.3844 237.164V236.241C56.3844 235.685 56.5051 235.211 56.7467 234.819C56.9882 234.427 57.3072 234.129 57.7037 233.924C58.1002 233.714 58.5286 233.609 58.9889 233.609C59.2896 233.609 59.5927 233.655 59.898 233.746C60.2079 233.837 60.5087 233.979 60.8004 234.17L60.0416 235.558C59.9277 235.462 59.8069 235.398 59.6793 235.366C59.5517 235.334 59.4355 235.318 59.3307 235.318C59.039 235.318 58.802 235.416 58.6197 235.612C58.442 235.804 58.3531 236.102 58.3531 236.508V237.164H60.0143V238.873H58.3531V244H56.3844V238.873H55.2564V237.164H56.3844ZM61.1523 240.582C61.1523 239.898 61.3095 239.29 61.624 238.757C61.943 238.219 62.3759 237.798 62.9228 237.492C63.4742 237.182 64.1009 237.027 64.8027 237.027C65.5045 237.027 66.1289 237.182 66.6757 237.492C67.2226 237.798 67.6533 238.219 67.9677 238.757C68.2867 239.29 68.4463 239.898 68.4463 240.582C68.4463 241.266 68.2867 241.876 67.9677 242.414C67.6533 242.947 67.2226 243.369 66.6757 243.679C66.1289 243.984 65.5045 244.137 64.8027 244.137C64.1009 244.137 63.4742 243.984 62.9228 243.679C62.3759 243.369 61.943 242.947 61.624 242.414C61.3095 241.876 61.1523 241.266 61.1523 240.582ZM63.0664 240.582C63.0664 241.111 63.2304 241.55 63.5586 241.901C63.8867 242.252 64.3014 242.428 64.8027 242.428C65.304 242.428 65.7187 242.252 66.0468 241.901C66.375 241.55 66.539 241.111 66.539 240.582C66.539 240.053 66.375 239.614 66.0468 239.263C65.7187 238.912 65.304 238.736 64.8027 238.736C64.3014 238.736 63.8867 238.912 63.5586 239.263C63.2304 239.614 63.0664 240.053 63.0664 240.582ZM69.8919 244V237.164H71.6146L71.7103 238.142C72.207 237.399 72.8906 237.027 73.7611 237.027C74.0573 237.027 74.3626 237.073 74.6771 237.164L74.4036 238.866C74.1393 238.78 73.8795 238.736 73.6243 238.736C73.0957 238.736 72.6696 238.932 72.346 239.324C72.0224 239.712 71.8607 240.265 71.8607 240.985V244H69.8919ZM77.5378 244H75.569V237.164H77.4284L77.4762 237.889C77.9593 237.314 78.6133 237.027 79.4382 237.027C80.4909 237.027 81.236 237.476 81.6735 238.374C81.9014 237.941 82.209 237.608 82.5964 237.376C82.9837 237.144 83.4395 237.027 83.9636 237.027C84.793 237.027 85.4378 237.319 85.8981 237.902C86.3584 238.481 86.5886 239.288 86.5886 240.322V244H84.6198V240.322C84.6198 239.794 84.4945 239.397 84.2438 239.133C83.9977 238.868 83.6992 238.736 83.3483 238.736C82.9929 238.736 82.6898 238.873 82.4391 239.146C82.1885 239.42 82.0632 239.828 82.0632 240.37V244H80.0944V240.322C80.0944 239.794 79.9691 239.397 79.7184 239.133C79.4723 238.868 79.1738 238.736 78.8229 238.736C78.4675 238.736 78.1644 238.873 77.9137 239.146C77.6631 239.42 77.5378 239.828 77.5378 240.37V244ZM94.9382 233.746H101.255V235.592H97.03V237.807H100.981V239.652H97.03V244H94.9382V233.746ZM104.341 241.17C104.464 241.548 104.69 241.856 105.018 242.093C105.35 242.33 105.738 242.448 106.18 242.448C106.654 242.448 107.046 242.373 107.356 242.223C107.67 242.068 107.955 241.869 108.21 241.628L109.4 243.05C108.871 243.465 108.347 243.749 107.827 243.904C107.312 244.059 106.818 244.137 106.344 244.137C105.587 244.137 104.92 243.984 104.341 243.679C103.762 243.369 103.309 242.945 102.981 242.407C102.652 241.865 102.488 241.25 102.488 240.562C102.488 239.882 102.646 239.279 102.96 238.75C103.275 238.217 103.703 237.798 104.245 237.492C104.792 237.182 105.412 237.027 106.105 237.027C106.793 237.027 107.403 237.18 107.937 237.485C108.474 237.791 108.898 238.21 109.208 238.743C109.518 239.276 109.673 239.887 109.673 240.575V241.17H104.341ZM107.65 240.076C107.554 239.675 107.358 239.352 107.062 239.105C106.765 238.859 106.41 238.736 105.995 238.736C105.576 238.736 105.211 238.862 104.901 239.112C104.596 239.363 104.396 239.684 104.3 240.076H107.65ZM112.493 241.17C112.616 241.548 112.841 241.856 113.169 242.093C113.502 242.33 113.889 242.448 114.332 242.448C114.805 242.448 115.197 242.373 115.507 242.223C115.822 242.068 116.107 241.869 116.362 241.628L117.551 243.05C117.023 243.465 116.499 243.749 115.979 243.904C115.464 244.059 114.97 244.137 114.496 244.137C113.739 244.137 113.071 243.984 112.493 243.679C111.914 243.369 111.46 242.945 111.132 242.407C110.804 241.865 110.64 241.25 110.64 240.562C110.64 239.882 110.797 239.279 111.112 238.75C111.426 238.217 111.855 237.798 112.397 237.492C112.944 237.182 113.564 237.027 114.256 237.027C114.944 237.027 115.555 237.18 116.088 237.485C116.626 237.791 117.05 238.21 117.36 238.743C117.67 239.276 117.825 239.887 117.825 240.575V241.17H112.493ZM115.801 240.076C115.706 239.675 115.51 239.352 115.213 239.105C114.917 238.859 114.562 238.736 114.147 238.736C113.728 238.736 113.363 238.862 113.053 239.112C112.748 239.363 112.547 239.684 112.452 240.076H115.801ZM49.2786 265.014H46.052V254.76H49.2786C51.2929 254.76 52.8401 255.206 53.9202 256.1C55.0002 256.988 55.5403 258.246 55.5403 259.873C55.5403 261.505 55.0002 262.769 53.9202 263.667C52.8401 264.565 51.2929 265.014 49.2786 265.014ZM49.3264 263.168C50.648 263.168 51.6597 262.881 52.3616 262.307C53.0679 261.728 53.4211 260.917 53.4211 259.873C53.4211 258.834 53.0679 258.03 52.3616 257.46C51.6597 256.89 50.648 256.605 49.3264 256.605H48.1438V263.168H49.3264ZM56.692 255.84C56.692 255.512 56.7923 255.247 56.9928 255.047C57.1933 254.846 57.4576 254.746 57.7857 254.746C58.1139 254.746 58.3782 254.846 58.5787 255.047C58.7792 255.247 58.8795 255.512 58.8795 255.84C58.8795 256.168 58.7792 256.432 58.5787 256.633C58.3782 256.833 58.1139 256.934 57.7857 256.934C57.4576 256.934 57.1933 256.833 56.9928 256.633C56.7923 256.432 56.692 256.168 56.692 255.84ZM56.8014 265V258.164H58.7701V265H56.8014ZM60.1679 264.132L61.0976 262.648C61.4895 262.908 61.8496 263.116 62.1777 263.271C62.5104 263.421 62.8066 263.496 63.0664 263.496C63.2669 263.496 63.4287 263.451 63.5517 263.359C63.6748 263.268 63.7363 263.152 63.7363 263.011C63.7363 262.806 63.6201 262.639 63.3877 262.512C63.1598 262.384 62.8955 262.259 62.5947 262.136C62.2757 262.004 61.9544 261.855 61.6308 261.691C61.3118 261.523 61.0429 261.306 60.8242 261.042C60.61 260.778 60.5029 260.436 60.5029 260.017C60.5029 259.438 60.7308 258.962 61.1865 258.588C61.6468 258.214 62.2962 258.027 63.1347 258.027C63.5449 258.027 63.9755 258.08 64.4267 258.185C64.8824 258.285 65.2972 258.449 65.6709 258.677L64.8027 260.174C64.6022 260.042 64.3401 259.925 64.0166 259.825C63.6976 259.72 63.4264 259.668 63.2031 259.668C63.0755 259.668 62.9342 259.695 62.7793 259.75C62.6289 259.8 62.5537 259.9 62.5537 260.051C62.5537 260.219 62.6585 260.358 62.8681 260.468C63.0823 260.577 63.3352 260.689 63.6269 260.803C63.9414 260.926 64.2649 261.072 64.5976 261.24C64.9303 261.404 65.2106 261.625 65.4384 261.903C65.6709 262.177 65.7871 262.537 65.7871 262.983C65.7871 263.43 65.664 263.815 65.4179 264.139C65.1718 264.462 64.8437 264.711 64.4336 264.884C64.0234 265.052 63.5699 265.137 63.0732 265.137C62.6038 265.137 62.1162 265.055 61.6103 264.891C61.109 264.727 60.6282 264.474 60.1679 264.132ZM73.2894 264.125C72.9567 264.444 72.5579 264.692 72.0931 264.87C71.6328 265.048 71.1315 265.137 70.5892 265.137C69.8646 265.137 69.2174 264.984 68.6478 264.679C68.0827 264.369 67.6361 263.947 67.3079 263.414C66.9798 262.876 66.8157 262.266 66.8157 261.582C66.8157 260.898 66.9798 260.29 67.3079 259.757C67.6361 259.219 68.0827 258.798 68.6478 258.492C69.2174 258.182 69.8646 258.027 70.5892 258.027C71.1315 258.027 71.6328 258.116 72.0931 258.294C72.5579 258.472 72.9567 258.72 73.2894 259.039L71.9017 260.345C71.5736 259.939 71.1361 259.736 70.5892 259.736C70.0879 259.736 69.6732 259.912 69.345 260.263C69.0169 260.614 68.8529 261.053 68.8529 261.582C68.8529 262.111 69.0169 262.55 69.345 262.901C69.6732 263.252 70.0879 263.428 70.5892 263.428C71.1361 263.428 71.5736 263.225 71.9017 262.819L73.2894 264.125ZM74.2565 261.582C74.2565 260.898 74.4137 260.29 74.7282 259.757C75.0472 259.219 75.4802 258.798 76.027 258.492C76.5785 258.182 77.2051 258.027 77.9069 258.027C78.6087 258.027 79.2331 258.182 79.78 258.492C80.3268 258.798 80.7575 259.219 81.072 259.757C81.391 260.29 81.5505 260.898 81.5505 261.582C81.5505 262.266 81.391 262.876 81.072 263.414C80.7575 263.947 80.3268 264.369 79.78 264.679C79.2331 264.984 78.6087 265.137 77.9069 265.137C77.2051 265.137 76.5785 264.984 76.027 264.679C75.4802 264.369 75.0472 263.947 74.7282 263.414C74.4137 262.876 74.2565 262.266 74.2565 261.582ZM76.1706 261.582C76.1706 262.111 76.3346 262.55 76.6628 262.901C76.9909 263.252 77.4056 263.428 77.9069 263.428C78.4082 263.428 78.8229 263.252 79.1511 262.901C79.4792 262.55 79.6432 262.111 79.6432 261.582C79.6432 261.053 79.4792 260.614 79.1511 260.263C78.8229 259.912 78.4082 259.736 77.9069 259.736C77.4056 259.736 76.9909 259.912 76.6628 260.263C76.3346 260.614 76.1706 261.053 76.1706 261.582ZM82.8594 258.171H84.835V261.835C84.835 262.345 84.9421 262.74 85.1563 263.018C85.3705 263.296 85.6781 263.435 86.0791 263.435C86.5075 263.435 86.8539 263.284 87.1182 262.983C87.3871 262.683 87.5215 262.298 87.5215 261.828H87.5284V258.164H89.4971V265H87.7745L87.6924 264.159C87.4235 264.469 87.1023 264.711 86.7286 264.884C86.3549 265.052 85.9447 265.137 85.4981 265.137C84.6322 265.137 83.9759 264.856 83.5293 264.296C83.0827 263.735 82.8594 262.91 82.8594 261.821V258.171ZM91.4213 265V258.164H93.1439L93.226 258.998C93.4949 258.688 93.8161 258.449 94.1898 258.28C94.5681 258.112 94.9828 258.027 95.434 258.027C96.2315 258.027 96.8673 258.292 97.3412 258.82C97.8152 259.344 98.0521 260.076 98.0521 261.015V265H96.0766V261.397C96.0766 260.29 95.6618 259.736 94.8324 259.736C94.404 259.736 94.0554 259.894 93.7865 260.208C93.5222 260.522 93.39 260.965 93.39 261.534V265H91.4213ZM99.2859 258.164H100.414V256.455H102.383V258.164H104.044V259.873H102.383V262.389C102.383 262.712 102.485 262.967 102.69 263.154C102.9 263.337 103.164 263.428 103.483 263.428C103.72 263.428 103.964 263.375 104.215 263.271V264.884C103.782 265.052 103.356 265.137 102.936 265.137C102.125 265.137 101.501 264.92 101.063 264.487C100.63 264.05 100.414 263.425 100.414 262.614V259.873H99.2859V258.164Z" fill="#232323"/>
<rect x="323" y="374" width="150" height="150" rx="75" fill="#E3E3E3"/>
<rect x="84" y="374" width="150" height="150" rx="75" fill="#E3E3E3"/>
<path d="M114.39 432.014H111.164V421.76H114.39C116.404 421.76 117.952 422.206 119.032 423.1C120.112 423.988 120.652 425.246 120.652 426.873C120.652 428.505 120.112 429.769 119.032 430.667C117.952 431.565 116.404 432.014 114.39 432.014ZM114.438 430.168C115.76 430.168 116.771 429.881 117.473 429.307C118.18 428.728 118.533 427.917 118.533 426.873C118.533 425.834 118.18 425.03 117.473 424.46C116.771 423.89 115.76 423.605 114.438 423.605H113.255V430.168H114.438ZM123.396 429.17C123.519 429.548 123.745 429.856 124.073 430.093C124.406 430.33 124.793 430.448 125.235 430.448C125.709 430.448 126.101 430.373 126.411 430.223C126.725 430.068 127.01 429.869 127.265 429.628L128.455 431.05C127.926 431.465 127.402 431.749 126.883 431.904C126.368 432.059 125.873 432.137 125.399 432.137C124.643 432.137 123.975 431.984 123.396 431.679C122.818 431.369 122.364 430.945 122.036 430.407C121.708 429.865 121.544 429.25 121.544 428.562C121.544 427.882 121.701 427.279 122.015 426.75C122.33 426.217 122.758 425.798 123.301 425.492C123.848 425.182 124.467 425.027 125.16 425.027C125.848 425.027 126.459 425.18 126.992 425.485C127.53 425.791 127.954 426.21 128.264 426.743C128.573 427.276 128.728 427.887 128.728 428.575V429.17H123.396ZM126.705 428.076C126.609 427.675 126.413 427.352 126.117 427.105C125.821 426.859 125.465 426.736 125.051 426.736C124.631 426.736 124.267 426.862 123.957 427.112C123.652 427.363 123.451 427.684 123.355 428.076H126.705ZM130.174 421.746H136.49V423.592H132.266V425.807H136.217V427.652H132.266V432H130.174V421.746ZM137.574 422.84C137.574 422.512 137.674 422.247 137.875 422.047C138.075 421.846 138.339 421.746 138.668 421.746C138.996 421.746 139.26 421.846 139.461 422.047C139.661 422.247 139.761 422.512 139.761 422.84C139.761 423.168 139.661 423.432 139.461 423.633C139.26 423.833 138.996 423.934 138.668 423.934C138.339 423.934 138.075 423.833 137.875 423.633C137.674 423.432 137.574 423.168 137.574 422.84ZM137.683 432V425.164H139.652V432H137.683ZM146.836 421.746V432H144.744V421.746H146.836ZM148.754 432V425.164H150.476L150.558 425.998C150.827 425.688 151.148 425.449 151.522 425.28C151.9 425.112 152.315 425.027 152.766 425.027C153.564 425.027 154.2 425.292 154.673 425.82C155.147 426.344 155.384 427.076 155.384 428.015V432H153.409V428.397C153.409 427.29 152.994 426.736 152.165 426.736C151.736 426.736 151.388 426.894 151.119 427.208C150.854 427.522 150.722 427.965 150.722 428.534V432H148.754ZM163.16 431.125C162.827 431.444 162.429 431.692 161.964 431.87C161.504 432.048 161.002 432.137 160.46 432.137C159.735 432.137 159.088 431.984 158.519 431.679C157.953 431.369 157.507 430.947 157.179 430.414C156.851 429.876 156.687 429.266 156.687 428.582C156.687 427.898 156.851 427.29 157.179 426.757C157.507 426.219 157.953 425.798 158.519 425.492C159.088 425.182 159.735 425.027 160.46 425.027C161.002 425.027 161.504 425.116 161.964 425.294C162.429 425.472 162.827 425.72 163.16 426.039L161.772 427.345C161.444 426.939 161.007 426.736 160.46 426.736C159.959 426.736 159.544 426.912 159.216 427.263C158.888 427.614 158.724 428.053 158.724 428.582C158.724 429.111 158.888 429.55 159.216 429.901C159.544 430.252 159.959 430.428 160.46 430.428C161.007 430.428 161.444 430.225 161.772 429.819L163.16 431.125ZM165.98 429.17C166.103 429.548 166.328 429.856 166.657 430.093C166.989 430.33 167.377 430.448 167.819 430.448C168.293 430.448 168.685 430.373 168.994 430.223C169.309 430.068 169.594 429.869 169.849 429.628L171.038 431.05C170.51 431.465 169.986 431.749 169.466 431.904C168.951 432.059 168.457 432.137 167.983 432.137C167.226 432.137 166.559 431.984 165.98 431.679C165.401 431.369 164.948 430.945 164.619 430.407C164.291 429.865 164.127 429.25 164.127 428.562C164.127 427.882 164.285 427.279 164.599 426.75C164.913 426.217 165.342 425.798 165.884 425.492C166.431 425.182 167.051 425.027 167.744 425.027C168.432 425.027 169.042 425.18 169.576 425.485C170.113 425.791 170.537 426.21 170.847 426.743C171.157 427.276 171.312 427.887 171.312 428.575V429.17H165.98ZM169.288 428.076C169.193 427.675 168.997 427.352 168.701 427.105C168.404 426.859 168.049 426.736 167.634 426.736C167.215 426.736 166.85 426.862 166.54 427.112C166.235 427.363 166.035 427.684 165.939 428.076H169.288ZM172.758 432V425.164H174.48L174.562 425.998C174.831 425.688 175.152 425.449 175.526 425.28C175.904 425.112 176.319 425.027 176.77 425.027C177.568 425.027 178.204 425.292 178.677 425.82C179.151 426.344 179.388 427.076 179.388 428.015V432H177.413V428.397C177.413 427.29 176.998 426.736 176.169 426.736C175.74 426.736 175.392 426.894 175.123 427.208C174.858 427.522 174.726 427.965 174.726 428.534V432H172.758ZM180.622 425.164H181.75V423.455H183.719V425.164H185.38V426.873H183.719V429.389C183.719 429.712 183.821 429.967 184.026 430.154C184.236 430.337 184.5 430.428 184.819 430.428C185.056 430.428 185.3 430.375 185.551 430.271V431.884C185.118 432.052 184.692 432.137 184.273 432.137C183.461 432.137 182.837 431.92 182.399 431.487C181.967 431.05 181.75 430.425 181.75 429.614V426.873H180.622V425.164ZM186.764 422.84C186.764 422.512 186.864 422.247 187.065 422.047C187.265 421.846 187.53 421.746 187.858 421.746C188.186 421.746 188.45 421.846 188.651 422.047C188.851 422.247 188.952 422.512 188.952 422.84C188.952 423.168 188.851 423.432 188.651 423.633C188.45 423.833 188.186 423.934 187.858 423.934C187.53 423.934 187.265 423.833 187.065 423.633C186.864 423.432 186.764 423.168 186.764 422.84ZM186.873 432V425.164H188.842V432H186.873ZM189.693 425.164H191.833L193.07 428.493C193.134 428.666 193.205 428.919 193.282 429.252C193.364 429.585 193.428 429.885 193.473 430.154H193.501C193.555 429.885 193.624 429.587 193.706 429.259C193.792 428.931 193.868 428.675 193.931 428.493L195.073 425.164H197.144L194.444 432H192.53L189.693 425.164ZM199.26 429.17C199.383 429.548 199.609 429.856 199.937 430.093C200.269 430.33 200.657 430.448 201.099 430.448C201.573 430.448 201.965 430.373 202.275 430.223C202.589 430.068 202.874 429.869 203.129 429.628L204.319 431.05C203.79 431.465 203.266 431.749 202.746 431.904C202.231 432.059 201.737 432.137 201.263 432.137C200.506 432.137 199.839 431.984 199.26 431.679C198.681 431.369 198.228 430.945 197.9 430.407C197.571 429.865 197.407 429.25 197.407 428.562C197.407 427.882 197.565 427.279 197.879 426.75C198.194 426.217 198.622 425.798 199.164 425.492C199.711 425.182 200.331 425.027 201.024 425.027C201.712 425.027 202.322 425.18 202.856 425.485C203.393 425.791 203.817 426.21 204.127 426.743C204.437 427.276 204.592 427.887 204.592 428.575V429.17H199.26ZM202.569 428.076C202.473 427.675 202.277 427.352 201.981 427.105C201.684 426.859 201.329 426.736 200.914 426.736C200.495 426.736 200.13 426.862 199.82 427.112C199.515 427.363 199.315 427.684 199.219 428.076H202.569ZM205.627 431.132L206.557 429.648C206.949 429.908 207.309 430.116 207.637 430.271C207.97 430.421 208.266 430.496 208.526 430.496C208.726 430.496 208.888 430.451 209.011 430.359C209.134 430.268 209.196 430.152 209.196 430.011C209.196 429.806 209.08 429.639 208.847 429.512C208.619 429.384 208.355 429.259 208.054 429.136C207.735 429.004 207.414 428.855 207.09 428.691C206.771 428.523 206.502 428.306 206.284 428.042C206.07 427.778 205.962 427.436 205.962 427.017C205.962 426.438 206.19 425.962 206.646 425.588C207.106 425.214 207.756 425.027 208.594 425.027C209.004 425.027 209.435 425.08 209.886 425.185C210.342 425.285 210.757 425.449 211.13 425.677L210.262 427.174C210.062 427.042 209.8 426.925 209.476 426.825C209.157 426.72 208.886 426.668 208.663 426.668C208.535 426.668 208.394 426.695 208.239 426.75C208.088 426.8 208.013 426.9 208.013 427.051C208.013 427.219 208.118 427.358 208.328 427.468C208.542 427.577 208.795 427.689 209.086 427.803C209.401 427.926 209.724 428.072 210.057 428.24C210.39 428.404 210.67 428.625 210.898 428.903C211.13 429.177 211.247 429.537 211.247 429.983C211.247 430.43 211.124 430.815 210.877 431.139C210.631 431.462 210.303 431.711 209.893 431.884C209.483 432.052 209.029 432.137 208.533 432.137C208.063 432.137 207.576 432.055 207.07 431.891C206.569 431.727 206.088 431.474 205.627 431.132ZM126.084 454.976H124.991C124.344 454.105 123.838 453.139 123.473 452.077C123.113 451.015 122.933 449.899 122.933 448.728C122.933 447.556 123.113 446.44 123.473 445.378C123.838 444.316 124.344 443.348 124.991 442.473H126.084C125.428 443.325 124.909 444.284 124.526 445.351C124.148 446.412 123.959 447.536 123.959 448.721C123.959 449.901 124.15 451.024 124.533 452.091C124.916 453.157 125.433 454.119 126.084 454.976ZM134.496 453H128.48V442.746H129.677V451.906H134.496V453ZM136.413 442.746H139.934C141.078 442.746 141.95 443.029 142.552 443.594C143.154 444.154 143.454 444.897 143.454 445.822C143.454 446.743 143.154 447.486 142.552 448.051C141.95 448.616 141.078 448.898 139.934 448.898H137.61V453H136.413V442.746ZM137.61 443.84V447.805H139.934C140.681 447.805 141.249 447.622 141.636 447.258C142.028 446.893 142.224 446.415 142.224 445.822C142.224 445.225 142.028 444.747 141.636 444.387C141.249 444.022 140.681 443.84 139.934 443.84H137.61ZM148.793 442.746H150.598L153.961 449.951L157.317 442.746H159.081V453H157.885V444.284L154.603 451.325H153.284L149.989 444.271V453H148.793V442.746ZM161.197 443.532C161.197 443.304 161.27 443.118 161.415 442.972C161.566 442.821 161.753 442.746 161.976 442.746C162.204 442.746 162.393 442.821 162.543 442.972C162.694 443.118 162.769 443.304 162.769 443.532C162.769 443.756 162.694 443.942 162.543 444.093C162.393 444.243 162.204 444.318 161.976 444.318C161.753 444.318 161.566 444.243 161.415 444.093C161.27 443.942 161.197 443.756 161.197 443.532ZM161.415 453V446.164H162.55V453H161.415ZM164.878 453V446.164H165.896L165.958 447.203C166.227 446.834 166.557 446.547 166.949 446.342C167.341 446.132 167.778 446.027 168.261 446.027C168.813 446.027 169.3 446.162 169.724 446.431C170.153 446.695 170.488 447.062 170.729 447.531C170.975 448.001 171.098 448.538 171.098 449.145V453H169.97V449.281C169.97 448.616 169.79 448.078 169.43 447.668C169.075 447.258 168.61 447.053 168.036 447.053C167.648 447.053 167.302 447.148 166.997 447.34C166.691 447.527 166.45 447.782 166.272 448.105C166.094 448.429 166.006 448.798 166.006 449.213V453H164.878ZM173.07 443.532C173.07 443.304 173.143 443.118 173.289 442.972C173.439 442.821 173.626 442.746 173.85 442.746C174.078 442.746 174.267 442.821 174.417 442.972C174.567 443.118 174.643 443.304 174.643 443.532C174.643 443.756 174.567 443.942 174.417 444.093C174.267 444.243 174.078 444.318 173.85 444.318C173.626 444.318 173.439 444.243 173.289 444.093C173.143 443.942 173.07 443.756 173.07 443.532ZM173.289 453V446.164H174.424V453H173.289ZM176.751 453V446.164H177.77L177.831 447.203C178.1 446.834 178.431 446.547 178.823 446.342C179.215 446.132 179.652 446.027 180.135 446.027C180.687 446.027 181.174 446.162 181.598 446.431C182.026 446.695 182.361 447.062 182.603 447.531C182.849 448.001 182.972 448.538 182.972 449.145V453H181.844V449.281C181.844 448.616 181.664 448.078 181.304 447.668C180.949 447.258 180.484 447.053 179.91 447.053C179.522 447.053 179.176 447.148 178.871 447.34C178.565 447.527 178.324 447.782 178.146 448.105C177.968 448.429 177.879 448.798 177.879 449.213V453H176.751ZM188.136 453.137C187.476 453.137 186.883 452.984 186.359 452.679C185.84 452.369 185.429 451.947 185.129 451.414C184.832 450.876 184.684 450.266 184.684 449.582C184.684 448.898 184.832 448.29 185.129 447.757C185.429 447.219 185.84 446.798 186.359 446.492C186.883 446.182 187.476 446.027 188.136 446.027C188.651 446.027 189.128 446.125 189.565 446.321C190.003 446.513 190.374 446.777 190.679 447.114L190.741 446.164H191.76V452.33C191.76 453.173 191.607 453.911 191.302 454.545C190.996 455.178 190.545 455.671 189.948 456.021C189.356 456.377 188.624 456.555 187.754 456.555C187.275 456.555 186.826 456.484 186.407 456.343C185.988 456.206 185.609 456.012 185.272 455.762L185.833 454.818C186.088 455.042 186.38 455.215 186.708 455.338C187.036 455.465 187.391 455.529 187.774 455.529C188.745 455.529 189.463 455.249 189.927 454.688C190.397 454.132 190.632 453.39 190.632 452.46V452.104C190.326 452.428 189.959 452.681 189.531 452.863C189.103 453.046 188.638 453.137 188.136 453.137ZM185.846 449.582C185.846 450.065 185.949 450.498 186.154 450.881C186.364 451.264 186.649 451.564 187.009 451.783C187.369 452.002 187.779 452.111 188.239 452.111C188.699 452.111 189.109 452.002 189.469 451.783C189.83 451.564 190.112 451.264 190.317 450.881C190.527 450.498 190.632 450.065 190.632 449.582C190.632 449.094 190.527 448.661 190.317 448.283C190.112 447.9 189.83 447.6 189.469 447.381C189.109 447.162 188.699 447.053 188.239 447.053C187.779 447.053 187.369 447.162 187.009 447.381C186.649 447.6 186.364 447.9 186.154 448.283C185.949 448.661 185.846 449.094 185.846 449.582ZM194.374 451.462H195.502L194.415 454.538H193.684L194.374 451.462ZM138.84 474H132.824V463.746H134.021V472.906H138.84V474ZM146.855 470.575V471.033H141.058C141.172 471.639 141.464 472.138 141.933 472.53C142.407 472.918 142.977 473.111 143.642 473.111C144.011 473.111 144.401 473.041 144.811 472.899C145.221 472.754 145.595 472.521 145.932 472.202L146.595 473.05C146.099 473.465 145.602 473.749 145.105 473.904C144.613 474.059 144.137 474.137 143.676 474.137C142.938 474.137 142.282 473.984 141.708 473.679C141.133 473.369 140.682 472.943 140.354 472.4C140.031 471.858 139.869 471.241 139.869 470.548C139.869 469.873 140.021 469.272 140.327 468.743C140.632 468.21 141.051 467.791 141.585 467.485C142.118 467.18 142.722 467.027 143.396 467.027C144.071 467.027 144.668 467.18 145.187 467.485C145.707 467.791 146.115 468.21 146.411 468.743C146.707 469.276 146.855 469.887 146.855 470.575ZM141.045 470.076H145.679C145.579 469.479 145.322 468.994 144.907 468.62C144.492 468.242 143.986 468.053 143.389 468.053C142.783 468.053 142.266 468.244 141.837 468.627C141.409 469.005 141.145 469.488 141.045 470.076ZM148.704 474V467.164H149.723L149.784 468.203C150.053 467.834 150.383 467.547 150.775 467.342C151.167 467.132 151.605 467.027 152.088 467.027C152.639 467.027 153.127 467.162 153.551 467.431C153.979 467.695 154.314 468.062 154.556 468.531C154.802 469.001 154.925 469.538 154.925 470.145V474H153.797V470.281C153.797 469.616 153.617 469.078 153.257 468.668C152.901 468.258 152.436 468.053 151.862 468.053C151.475 468.053 151.129 468.148 150.823 468.34C150.518 468.527 150.276 468.782 150.099 469.105C149.921 469.429 149.832 469.798 149.832 470.213V474H148.704ZM160.089 467.027C160.59 467.027 161.055 467.118 161.484 467.301C161.912 467.483 162.279 467.736 162.584 468.06V463.746H163.712V474H162.694L162.632 473.05C162.327 473.387 161.955 473.654 161.518 473.85C161.08 474.041 160.604 474.137 160.089 474.137C159.428 474.137 158.836 473.984 158.312 473.679C157.792 473.369 157.382 472.947 157.081 472.414C156.785 471.876 156.637 471.266 156.637 470.582C156.637 469.898 156.785 469.29 157.081 468.757C157.382 468.219 157.792 467.798 158.312 467.492C158.836 467.182 159.428 467.027 160.089 467.027ZM157.799 470.582C157.799 471.065 157.902 471.498 158.107 471.881C158.316 472.264 158.601 472.564 158.961 472.783C159.321 473.002 159.731 473.111 160.192 473.111C160.652 473.111 161.062 473.002 161.422 472.783C161.782 472.564 162.065 472.264 162.27 471.881C162.479 471.498 162.584 471.065 162.584 470.582C162.584 470.094 162.479 469.661 162.27 469.283C162.065 468.9 161.782 468.6 161.422 468.381C161.062 468.162 160.652 468.053 160.192 468.053C159.731 468.053 159.321 468.162 158.961 468.381C158.601 468.6 158.316 468.9 158.107 469.283C157.902 469.661 157.799 470.094 157.799 470.582ZM165.828 464.532C165.828 464.304 165.901 464.118 166.047 463.972C166.197 463.821 166.384 463.746 166.607 463.746C166.835 463.746 167.024 463.821 167.174 463.972C167.325 464.118 167.4 464.304 167.4 464.532C167.4 464.756 167.325 464.942 167.174 465.093C167.024 465.243 166.835 465.318 166.607 465.318C166.384 465.318 166.197 465.243 166.047 465.093C165.901 464.942 165.828 464.756 165.828 464.532ZM166.047 474V467.164H167.181V474H166.047ZM169.509 474V467.164H170.527L170.589 468.203C170.858 467.834 171.188 467.547 171.58 467.342C171.972 467.132 172.41 467.027 172.893 467.027C173.444 467.027 173.932 467.162 174.356 467.431C174.784 467.695 175.119 468.062 175.36 468.531C175.606 469.001 175.73 469.538 175.73 470.145V474H174.602V470.281C174.602 469.616 174.422 469.078 174.062 468.668C173.706 468.258 173.241 468.053 172.667 468.053C172.28 468.053 171.933 468.148 171.628 468.34C171.323 468.527 171.081 468.782 170.903 469.105C170.726 469.429 170.637 469.798 170.637 470.213V474H169.509ZM180.894 474.137C180.233 474.137 179.641 473.984 179.117 473.679C178.597 473.369 178.187 472.947 177.886 472.414C177.59 471.876 177.442 471.266 177.442 470.582C177.442 469.898 177.59 469.29 177.886 468.757C178.187 468.219 178.597 467.798 179.117 467.492C179.641 467.182 180.233 467.027 180.894 467.027C181.409 467.027 181.885 467.125 182.323 467.321C182.76 467.513 183.132 467.777 183.437 468.114L183.498 467.164H184.517V473.33C184.517 474.173 184.364 474.911 184.059 475.545C183.754 476.178 183.302 476.671 182.705 477.021C182.113 477.377 181.382 477.555 180.511 477.555C180.033 477.555 179.584 477.484 179.164 477.343C178.745 477.206 178.367 477.012 178.03 476.762L178.59 475.818C178.845 476.042 179.137 476.215 179.465 476.338C179.793 476.465 180.149 476.529 180.532 476.529C181.502 476.529 182.22 476.249 182.685 475.688C183.154 475.132 183.389 474.39 183.389 473.46V473.104C183.084 473.428 182.717 473.681 182.288 473.863C181.86 474.046 181.395 474.137 180.894 474.137ZM178.604 470.582C178.604 471.065 178.706 471.498 178.912 471.881C179.121 472.264 179.406 472.564 179.766 472.783C180.126 473.002 180.536 473.111 180.996 473.111C181.457 473.111 181.867 473.002 182.227 472.783C182.587 472.564 182.87 472.264 183.075 471.881C183.284 471.498 183.389 471.065 183.389 470.582C183.389 470.094 183.284 469.661 183.075 469.283C182.87 468.9 182.587 468.6 182.227 468.381C181.867 468.162 181.457 468.053 180.996 468.053C180.536 468.053 180.126 468.162 179.766 468.381C179.406 468.6 179.121 468.9 178.912 469.283C178.706 469.661 178.604 470.094 178.604 470.582ZM186.304 475.976C186.956 475.119 187.473 474.157 187.856 473.091C188.239 472.024 188.43 470.901 188.43 469.721C188.43 468.536 188.239 467.412 187.856 466.351C187.478 465.284 186.961 464.325 186.304 463.473H187.398C188.045 464.348 188.549 465.316 188.909 466.378C189.274 467.44 189.456 468.556 189.456 469.728C189.456 470.899 189.274 472.015 188.909 473.077C188.549 474.139 188.045 475.105 187.398 475.976H186.304Z" fill="#232323"/>
<path d="M133.634 128.427C133.634 129.534 133.879 130.652 134.358 131.494L142.654 145.869C143.623 147.551 145.22 147.551 146.189 145.869L154.484 131.494C154.974 130.652 155.208 129.545 155.208 128.427C155.208 127.319 154.963 126.212 154.484 125.36L146.189 110.985C145.22 109.302 143.623 109.302 142.654 110.985L134.358 125.36C133.879 126.212 133.634 127.319 133.634 128.427Z" fill="white"/>
<path d="M150.344 127.733C150.344 127.76 150.344 127.787 150.344 127.8L144.921 137.199L139.499 127.8C139.499 127.773 139.499 127.76 139.499 127.733C139.499 127.706 139.499 127.679 139.499 127.665L144.921 118.267L150.344 127.665C150.344 127.679 150.344 127.706 150.344 127.733ZM158.633 127.733C158.633 126.326 158.322 124.907 157.713 123.838L147.179 105.583C145.949 103.446 143.92 103.446 142.69 105.583L132.156 123.838C131.534 124.907 131.236 126.313 131.236 127.733C131.236 129.139 131.547 130.546 132.156 131.627L142.69 149.883C143.92 152.019 145.949 152.019 147.179 149.883L157.713 131.627C158.322 130.546 158.633 129.139 158.633 127.733Z" fill="#BDBDBD"/>
<path d="M267.399 498.444C267.399 499.552 267.644 500.67 268.123 501.511L276.418 515.887C277.387 517.569 278.984 517.569 279.953 515.887L288.249 501.511C288.738 500.67 288.973 499.563 288.973 498.444C288.973 497.337 288.728 496.23 288.249 495.378L279.953 481.002C278.984 479.32 277.387 479.32 276.418 481.002L268.123 495.378C267.644 496.23 267.399 497.337 267.399 498.444Z" fill="white"/>
<path d="M284.107 497.752C284.107 497.779 284.107 497.806 284.107 497.82L278.685 507.218L273.262 497.82C273.262 497.793 273.262 497.779 273.262 497.752C273.262 497.725 273.262 497.698 273.262 497.685L278.685 488.287L284.107 497.685C284.107 497.698 284.107 497.725 284.107 497.752ZM292.397 497.752C292.397 496.346 292.086 494.926 291.477 493.858L280.943 475.602C279.712 473.466 277.684 473.466 276.454 475.602L265.919 493.858C265.297 494.926 265 496.333 265 497.752C265 499.159 265.311 500.565 265.919 501.647L276.454 519.902C277.684 522.039 279.712 522.039 280.943 519.902L291.477 501.647C292.086 500.565 292.397 499.159 292.397 497.752Z" fill="#BDBDBD"/>
<circle cx="120.243" cy="102.545" r="10.9927" fill="#BDBDBD"/>
<circle cx="129.324" cy="97.2888" r="6.69119" fill="#E3E3E3"/>
<circle cx="474.398" cy="387.877" r="11.4706" fill="#E3E3E3"/>
<circle cx="293.735" cy="451.735" r="5.7353" fill="#BDBDBD"/>
<path d="M237.071 397.656C237.67 397.656 238.171 397.49 238.575 397.158C238.985 396.826 239.19 396.416 239.19 395.928C239.19 395.537 239.057 395.205 238.79 394.932C238.529 394.658 238.184 394.414 237.755 394.199C237.325 393.978 236.86 393.763 236.358 393.555C235.863 393.346 235.365 393.122 234.864 392.881C234.369 392.633 233.914 392.344 233.497 392.012C233.08 391.68 232.745 391.279 232.491 390.811C232.237 390.342 232.11 389.779 232.11 389.121C232.11 388.307 232.315 387.598 232.725 386.992C233.136 386.38 233.712 385.905 234.454 385.566C235.196 385.228 236.059 385.059 237.042 385.059C238.611 385.059 240.115 385.449 241.554 386.23L240.323 388.73C239.685 388.327 239.076 388.053 238.497 387.91C237.917 387.767 237.436 387.695 237.052 387.695C236.472 387.695 236.007 387.819 235.655 388.066C235.31 388.307 235.138 388.63 235.138 389.033C235.138 389.378 235.261 389.674 235.509 389.922C235.756 390.169 236.082 390.391 236.485 390.586C236.895 390.781 237.341 390.98 237.823 391.182C238.324 391.39 238.832 391.618 239.346 391.865C239.861 392.113 240.336 392.409 240.772 392.754C241.208 393.099 241.557 393.516 241.817 394.004C242.084 394.492 242.218 395.081 242.218 395.771C242.218 396.65 241.993 397.432 241.544 398.115C241.095 398.792 240.476 399.326 239.688 399.717C238.901 400.101 237.996 400.293 236.973 400.293C236.029 400.293 235.082 400.127 234.132 399.795C233.181 399.456 232.312 398.981 231.524 398.369L232.93 395.986C233.295 396.305 233.715 396.592 234.19 396.846C234.665 397.1 235.154 397.298 235.655 397.441C236.163 397.585 236.635 397.656 237.071 397.656ZM244.576 400V385.352H249.634C251.451 385.352 252.87 385.785 253.892 386.65C254.914 387.51 255.425 388.678 255.425 390.156C255.425 391.139 255.194 391.992 254.732 392.715C254.27 393.438 253.606 393.997 252.74 394.395C251.88 394.792 250.845 394.99 249.634 394.99H247.554V400H244.576ZM249.332 387.842H247.554V392.51H249.332C250.334 392.51 251.096 392.288 251.617 391.846C252.138 391.403 252.398 390.843 252.398 390.166C252.398 389.489 252.138 388.932 251.617 388.496C251.096 388.06 250.334 387.842 249.332 387.842ZM256.416 392.676C256.416 391.576 256.605 390.563 256.983 389.639C257.36 388.708 257.891 387.9 258.575 387.217C259.258 386.533 260.062 386.003 260.987 385.625C261.918 385.247 262.933 385.059 264.034 385.059C265.134 385.059 266.146 385.247 267.071 385.625C268.002 386.003 268.809 386.533 269.493 387.217C270.176 387.9 270.707 388.708 271.084 389.639C271.462 390.563 271.651 391.576 271.651 392.676C271.651 393.776 271.462 394.792 271.084 395.723C270.707 396.647 270.176 397.451 269.493 398.135C268.809 398.818 268.002 399.349 267.071 399.727C266.146 400.104 265.134 400.293 264.034 400.293C262.933 400.293 261.918 400.104 260.987 399.727C260.062 399.349 259.258 398.818 258.575 398.135C257.891 397.451 257.36 396.647 256.983 395.723C256.605 394.792 256.416 393.776 256.416 392.676ZM259.444 392.676C259.444 393.633 259.642 394.486 260.039 395.234C260.437 395.983 260.98 396.576 261.67 397.012C262.36 397.441 263.148 397.656 264.034 397.656C264.919 397.656 265.707 397.441 266.397 397.012C267.087 396.576 267.631 395.983 268.028 395.234C268.425 394.486 268.623 393.633 268.623 392.676C268.623 391.719 268.425 390.866 268.028 390.117C267.631 389.362 267.087 388.77 266.397 388.34C265.707 387.91 264.919 387.695 264.034 387.695C263.148 387.695 262.36 387.91 261.67 388.34C260.98 388.77 260.437 389.362 260.039 390.117C259.642 390.866 259.444 391.719 259.444 392.676ZM277.129 387.988V385.352H288.496V387.988H284.307V400H281.318V387.988H277.129ZM287.817 395.117C287.817 394.141 288.042 393.271 288.491 392.51C288.947 391.742 289.565 391.139 290.346 390.703C291.134 390.26 292.029 390.039 293.032 390.039C294.035 390.039 294.927 390.26 295.708 390.703C296.489 391.139 297.104 391.742 297.554 392.51C298.009 393.271 298.237 394.141 298.237 395.117C298.237 396.094 298.009 396.966 297.554 397.734C297.104 398.496 296.489 399.098 295.708 399.541C294.927 399.977 294.035 400.195 293.032 400.195C292.029 400.195 291.134 399.977 290.346 399.541C289.565 399.098 288.947 398.496 288.491 397.734C288.042 396.966 287.817 396.094 287.817 395.117ZM290.552 395.117C290.552 395.872 290.786 396.501 291.255 397.002C291.723 397.503 292.316 397.754 293.032 397.754C293.748 397.754 294.341 397.503 294.809 397.002C295.278 396.501 295.513 395.872 295.513 395.117C295.513 394.362 295.278 393.734 294.809 393.232C294.341 392.731 293.748 392.48 293.032 392.48C292.316 392.48 291.723 392.731 291.255 393.232C290.786 393.734 290.552 394.362 290.552 395.117ZM300.302 400V385.352H303.115V394.238C303.31 393.932 303.525 393.636 303.759 393.35C303.994 393.057 304.251 392.747 304.531 392.422L306.425 390.234H309.502L305.752 394.619L310.205 400H306.757L303.964 396.699L303.115 397.695V400H300.302ZM313.539 395.957C313.715 396.497 314.038 396.937 314.506 397.275C314.982 397.614 315.535 397.783 316.166 397.783C316.843 397.783 317.403 397.676 317.846 397.461C318.295 397.24 318.702 396.956 319.067 396.611L320.766 398.643C320.011 399.235 319.262 399.642 318.52 399.863C317.784 400.085 317.078 400.195 316.401 400.195C315.32 400.195 314.366 399.977 313.539 399.541C312.713 399.098 312.065 398.493 311.596 397.725C311.127 396.95 310.893 396.071 310.893 395.088C310.893 394.118 311.118 393.255 311.567 392.5C312.016 391.738 312.628 391.139 313.403 390.703C314.184 390.26 315.069 390.039 316.059 390.039C317.042 390.039 317.914 390.257 318.676 390.693C319.444 391.13 320.05 391.729 320.493 392.49C320.935 393.252 321.157 394.124 321.157 395.107V395.957H313.539ZM318.266 394.395C318.129 393.822 317.849 393.359 317.426 393.008C317.003 392.656 316.495 392.48 315.903 392.48C315.304 392.48 314.783 392.66 314.34 393.018C313.904 393.376 313.618 393.835 313.481 394.395H318.266ZM323.222 400V390.234H325.683L325.8 391.426C326.184 390.983 326.643 390.641 327.177 390.4C327.717 390.16 328.31 390.039 328.954 390.039C330.094 390.039 331.002 390.417 331.679 391.172C332.356 391.921 332.695 392.965 332.695 394.307V400H329.872V394.854C329.872 393.271 329.28 392.48 328.095 392.48C327.483 392.48 326.985 392.705 326.601 393.154C326.223 393.604 326.034 394.235 326.034 395.049V400H323.222Z" fill="#232323"/>
<path d="M316.371 219.056L369.003 167.656L340.853 143.029L267.897 230.94C265.815 233.449 267.573 237.251 270.833 237.289C287.829 237.491 304.21 230.932 316.371 219.056Z" fill="#A7862F"/>
<path d="M256.93 230.707L309.562 179.307L281.412 154.679L208.456 242.59C206.374 245.099 208.132 248.901 211.393 248.94C228.389 249.141 244.769 242.582 256.93 230.707Z" fill="#C2A557"/>
<circle cx="280.599" cy="282.202" r="82.0482" fill="#232323"/>
<path d="M288.334 256.699C288.334 256.735 288.334 256.772 288.334 256.79L281 269.532L273.667 256.79C273.667 256.754 273.667 256.735 273.667 256.699C273.667 256.662 273.667 256.625 273.667 256.607L281 243.865L288.334 256.607C288.334 256.625 288.334 256.662 288.334 256.699Z" stroke="#A7862F" stroke-width="7.33333" stroke-linejoin="round"/>
<path d="M288.334 307.298C288.334 307.335 288.334 307.372 288.334 307.39L281 320.132L273.667 307.39C273.667 307.353 273.667 307.335 273.667 307.298C273.667 307.262 273.667 307.225 273.667 307.207L281 294.465L288.334 307.207C288.334 307.225 288.334 307.262 288.334 307.298Z" stroke="#A7862F" stroke-width="7.33333" stroke-linejoin="round"/>
<path d="M306.783 275.448C306.751 275.467 306.719 275.485 306.703 275.494L292.002 275.514L299.37 262.793C299.402 262.774 299.418 262.765 299.449 262.747C299.481 262.728 299.513 262.71 299.529 262.701L314.23 262.681L306.862 275.403C306.846 275.412 306.815 275.43 306.783 275.448Z" stroke="#A7862F" stroke-width="7.33333" stroke-linejoin="round"/>
<path d="M255.448 275.448C255.479 275.467 255.511 275.485 255.527 275.494L270.228 275.514L262.86 262.793C262.829 262.774 262.813 262.765 262.781 262.747C262.749 262.728 262.717 262.71 262.702 262.701L248 262.681L255.368 275.403C255.384 275.412 255.416 275.43 255.448 275.448Z" stroke="#A7862F" stroke-width="7.33333" stroke-linejoin="round"/>
<path d="M299.449 301.115C299.417 301.097 299.386 301.078 299.37 301.069L292.002 288.348L306.703 288.368C306.735 288.386 306.751 288.395 306.782 288.413C306.814 288.432 306.846 288.45 306.862 288.459L314.23 301.181L299.529 301.161C299.513 301.152 299.481 301.133 299.449 301.115Z" stroke="#A7862F" stroke-width="7.33333" stroke-linejoin="round"/>
<path d="M262.781 301.115C262.813 301.097 262.845 301.078 262.861 301.069L270.229 288.348L255.527 288.368C255.496 288.386 255.48 288.395 255.448 288.413C255.416 288.432 255.384 288.45 255.369 288.459L248.001 301.181L262.702 301.161C262.718 301.152 262.75 301.133 262.781 301.115Z" stroke="#A7862F" stroke-width="7.33333" stroke-linejoin="round"/>
<path fill-rule="evenodd" clip-rule="evenodd" d="M236.527 350.972C235.782 354.642 235.357 357.797 235.247 360.381C235.143 362.827 235.338 364.455 235.623 365.421C235.638 365.473 235.653 365.521 235.668 365.566C235.713 365.552 235.761 365.536 235.812 365.518C236.764 365.187 238.2 364.396 240.127 362.887C243.955 359.888 248.772 354.81 254.262 347.837C265.187 333.96 278.121 313.426 290.39 289.534C302.658 265.642 311.81 243.166 316.722 226.2C319.19 217.676 320.511 210.802 320.717 205.944C320.821 203.498 320.626 201.87 320.341 200.904C320.326 200.852 320.311 200.803 320.296 200.759C320.251 200.773 320.203 200.789 320.152 200.807C319.201 201.138 317.764 201.928 315.837 203.438C314.786 204.261 313.661 205.24 312.469 206.372C312.215 205.962 311.82 205.644 311.269 205.412C310.031 204.892 308.788 204.404 307.54 203.949C314.2 197.295 319.568 194.253 322.788 195.906C332.183 200.731 319.74 243.708 294.994 291.898C270.249 340.088 242.572 375.243 233.176 370.419C229.365 368.461 229.147 360.225 231.888 347.908C233.391 348.976 234.938 349.998 236.527 350.972ZM320.848 200.64C320.848 200.641 320.839 200.641 320.821 200.64C320.84 200.639 320.849 200.64 320.848 200.64ZM320.086 200.262C320.075 200.249 320.07 200.241 320.071 200.241C320.071 200.24 320.076 200.247 320.086 200.262ZM235.116 365.685C235.116 365.684 235.125 365.684 235.143 365.685C235.124 365.686 235.115 365.685 235.116 365.685ZM235.878 366.062C235.889 366.076 235.894 366.084 235.894 366.084C235.893 366.085 235.888 366.078 235.878 366.062Z" fill="#979797"/>
<path fill-rule="evenodd" clip-rule="evenodd" d="M212.435 327.978C211.372 326.434 210.369 324.863 209.425 323.269C202.799 332.424 200.115 339.298 202.607 342.454C209.152 350.743 248.925 330.25 291.442 296.68C333.959 263.11 363.12 229.176 356.575 220.887C354.158 217.825 347.208 218.69 337.261 222.689C338.592 223.984 339.887 225.333 341.145 226.734C343.369 225.904 345.368 225.276 347.125 224.853C349.504 224.28 351.14 224.157 352.142 224.251C352.196 224.256 352.247 224.261 352.294 224.267C352.291 224.289 352.289 224.312 352.286 224.336C352.282 224.362 352.278 224.39 352.274 224.418C352.133 225.415 351.634 226.977 350.524 229.159C348.32 233.493 344.265 239.199 338.481 245.929C326.969 259.325 309.313 275.974 288.234 292.617C267.155 309.261 246.864 322.573 231.164 330.663C223.275 334.728 216.785 337.348 212.057 338.487C209.677 339.061 208.042 339.183 207.039 339.09C206.985 339.085 206.935 339.079 206.888 339.074C206.893 339.027 206.899 338.976 206.907 338.923C207.049 337.926 207.548 336.363 208.657 334.182C209.589 332.35 210.851 330.273 212.435 327.978ZM352.821 224.377C352.836 224.385 352.845 224.389 352.845 224.388C352.846 224.388 352.844 224.387 352.839 224.385C352.835 224.383 352.829 224.38 352.821 224.377ZM352.309 223.729C352.304 223.712 352.303 223.703 352.304 223.702C352.304 223.702 352.306 223.71 352.309 223.729ZM206.336 338.952C206.337 338.952 206.345 338.955 206.361 338.964C206.343 338.957 206.336 338.953 206.336 338.952ZM206.873 339.612C206.877 339.629 206.879 339.638 206.878 339.639C206.878 339.639 206.875 339.631 206.873 339.612Z" fill="#676767"/>
<path d="M227.118 336.109C227.367 336.512 227.708 336.864 228.072 337.062L234.324 340.428C235.055 340.822 235.637 340.462 235.611 339.632L235.396 332.535C235.385 332.118 235.221 331.663 234.969 331.256C234.72 330.853 234.382 330.505 234.016 330.303L227.763 326.937C227.032 326.543 226.451 326.902 226.477 327.733L226.692 334.83C226.709 335.248 226.869 335.706 227.118 336.109Z" fill="#232323"/>
<path d="M233.042 332.098C233.048 332.108 233.054 332.118 233.057 332.123L233.198 336.763L229.11 334.563C229.104 334.553 229.101 334.548 229.095 334.538C229.089 334.528 229.083 334.518 229.08 334.514L228.939 329.874L233.027 332.074C233.03 332.079 233.036 332.089 233.042 332.098ZM236.058 330.234C235.742 329.722 235.309 329.275 234.848 329.023L226.907 324.75C225.979 324.249 225.241 324.705 225.274 325.76L225.547 334.773C225.561 335.301 225.769 335.88 226.088 336.397C226.405 336.909 226.834 337.35 227.299 337.607L235.239 341.881C236.168 342.382 236.906 341.925 236.873 340.871L236.6 331.858C236.578 331.327 236.375 330.745 236.058 330.234Z" fill="#676767"/>
<path d="M311.942 246.742C312.379 246.925 312.861 247.014 313.272 246.965L320.317 246.076C321.141 245.972 321.406 245.342 320.903 244.681L316.608 239.027C316.357 238.694 315.959 238.418 315.518 238.233C315.082 238.049 314.604 237.962 314.189 238.01L307.144 238.899C306.32 239.002 306.055 239.632 306.558 240.293L310.853 245.948C311.109 246.278 311.506 246.558 311.942 246.742Z" fill="#232323"/>
<path d="M314.439 240.036C314.449 240.04 314.46 240.045 314.465 240.047L317.273 243.743L312.668 244.324C312.657 244.32 312.652 244.318 312.641 244.313C312.631 244.309 312.62 244.304 312.615 244.302L309.807 240.605L314.412 240.024C314.417 240.027 314.428 240.031 314.439 240.036ZM315.813 236.766C315.258 236.533 314.647 236.42 314.124 236.483L305.178 237.612C304.131 237.743 303.795 238.543 304.434 239.383L309.888 246.564C310.206 246.986 310.712 247.336 311.272 247.572C311.826 247.805 312.433 247.915 312.96 247.855L321.906 246.726C322.953 246.595 323.289 245.795 322.651 244.955L317.196 237.774C316.871 237.355 316.367 236.999 315.813 236.766Z" fill="#979797"/>
<path d="M225.915 192.119L230.831 199.178L304.66 183.152L347.927 199.358L373.824 190.725C406.242 179.919 433.836 158.074 451.791 129L402.798 89.1644L375.929 111.124L288.5 137.471L229.197 175.562C223.607 179.152 222.117 186.667 225.915 192.119Z" fill="#CFB675"/>
<path d="M213.809 255.432L258.806 192.64L241.252 188.271L225.821 178.32L169.078 274.917C167.49 277.621 169.746 280.958 172.847 280.493C189.326 278.017 204.102 268.977 213.809 255.432Z" fill="#CFB675"/>
<path d="M376.228 283.265L406.542 182.967C414.823 155.57 401.639 126.26 375.646 114.279L336.161 194.648L362.736 205.596L351.474 243.223C346.215 260.792 356.166 279.303 373.721 284.609C374.784 284.93 375.907 284.329 376.228 283.265Z" fill="#CFB675"/>
<path d="M350.177 441.359C350.596 441.359 350.947 441.243 351.229 441.011C351.516 440.778 351.66 440.491 351.66 440.149C351.66 439.876 351.567 439.644 351.38 439.452C351.197 439.261 350.956 439.09 350.655 438.939C350.354 438.785 350.028 438.634 349.678 438.488C349.331 438.342 348.983 438.185 348.632 438.017C348.285 437.843 347.966 437.641 347.675 437.408C347.383 437.176 347.148 436.896 346.971 436.567C346.793 436.239 346.704 435.845 346.704 435.385C346.704 434.815 346.847 434.318 347.135 433.895C347.422 433.466 347.825 433.133 348.345 432.896C348.864 432.66 349.468 432.541 350.156 432.541C351.254 432.541 352.307 432.814 353.314 433.361L352.453 435.111C352.006 434.829 351.58 434.637 351.175 434.537C350.769 434.437 350.432 434.387 350.163 434.387C349.757 434.387 349.431 434.473 349.185 434.646C348.944 434.815 348.823 435.041 348.823 435.323C348.823 435.565 348.91 435.772 349.083 435.945C349.256 436.118 349.484 436.273 349.766 436.41C350.054 436.547 350.366 436.686 350.703 436.827C351.054 436.973 351.409 437.132 351.769 437.306C352.129 437.479 352.462 437.686 352.767 437.928C353.073 438.169 353.317 438.461 353.499 438.803C353.686 439.145 353.779 439.557 353.779 440.04C353.779 440.655 353.622 441.202 353.307 441.681C352.993 442.155 352.56 442.528 352.009 442.802C351.457 443.071 350.824 443.205 350.108 443.205C349.447 443.205 348.784 443.089 348.119 442.856C347.454 442.619 346.845 442.287 346.294 441.858L347.278 440.19C347.533 440.414 347.827 440.614 348.16 440.792C348.493 440.97 348.834 441.109 349.185 441.209C349.541 441.309 349.871 441.359 350.177 441.359ZM354.61 436.164H355.737V434.455H357.706V436.164H359.367V437.873H357.706V440.389C357.706 440.712 357.809 440.967 358.014 441.154C358.223 441.337 358.488 441.428 358.807 441.428C359.044 441.428 359.288 441.375 359.538 441.271V442.884C359.105 443.052 358.679 443.137 358.26 443.137C357.449 443.137 356.824 442.92 356.387 442.487C355.954 442.05 355.737 441.425 355.737 440.614V437.873H354.61V436.164ZM360.834 441.12C360.834 440.664 360.963 440.257 361.223 439.896C361.487 439.536 361.85 439.252 362.31 439.042C362.77 438.832 363.297 438.728 363.889 438.728C364.076 438.728 364.272 438.739 364.477 438.762C364.687 438.785 364.896 438.814 365.106 438.851C364.956 438.108 364.416 437.736 363.486 437.736C362.934 437.736 362.381 437.944 361.825 438.358L361.148 436.697C361.622 436.469 362.089 436.301 362.549 436.191C363.01 436.082 363.447 436.027 363.862 436.027C364.523 436.027 365.095 436.153 365.578 436.403C366.065 436.649 366.444 437 366.712 437.456C366.981 437.907 367.116 438.438 367.116 439.049V443H365.461L365.332 442.269C365.076 442.537 364.764 442.749 364.395 442.904C364.03 443.059 363.629 443.137 363.192 443.137C362.499 443.137 361.932 442.95 361.49 442.576C361.052 442.202 360.834 441.717 360.834 441.12ZM362.802 440.669C362.802 440.897 362.889 441.081 363.062 441.223C363.24 441.359 363.472 441.428 363.759 441.428C364.151 441.428 364.479 441.309 364.744 441.072C365.013 440.835 365.147 440.544 365.147 440.197V440.061C364.978 440.006 364.796 439.963 364.6 439.931C364.409 439.899 364.22 439.883 364.033 439.883C363.645 439.883 363.342 439.951 363.124 440.088C362.909 440.225 362.802 440.418 362.802 440.669ZM368.903 443V432.746H370.872V438.967C371.009 438.753 371.159 438.545 371.323 438.345C371.487 438.14 371.667 437.923 371.863 437.695L373.189 436.164H375.343L372.718 439.233L375.835 443H373.422L371.467 440.689L370.872 441.387V443H368.903ZM376.713 433.84C376.713 433.512 376.813 433.247 377.014 433.047C377.214 432.846 377.479 432.746 377.807 432.746C378.135 432.746 378.399 432.846 378.6 433.047C378.8 433.247 378.901 433.512 378.901 433.84C378.901 434.168 378.8 434.432 378.6 434.633C378.399 434.833 378.135 434.934 377.807 434.934C377.479 434.934 377.214 434.833 377.014 434.633C376.813 434.432 376.713 434.168 376.713 433.84ZM376.823 443V436.164H378.791V443H376.823ZM380.599 443V436.164H382.322L382.404 436.998C382.673 436.688 382.994 436.449 383.368 436.28C383.746 436.112 384.161 436.027 384.612 436.027C385.409 436.027 386.045 436.292 386.519 436.82C386.993 437.344 387.23 438.076 387.23 439.015V443H385.254V439.397C385.254 438.29 384.84 437.736 384.01 437.736C383.582 437.736 383.233 437.894 382.964 438.208C382.7 438.522 382.568 438.965 382.568 439.534V443H380.599ZM391.861 436.027C392.308 436.027 392.72 436.105 393.099 436.26C393.481 436.41 393.816 436.624 394.103 436.902L394.151 436.164H396.011V442.2C396.011 443.075 395.844 443.839 395.512 444.49C395.184 445.142 394.721 445.648 394.124 446.008C393.532 446.372 392.834 446.555 392.032 446.555C391.59 446.555 391.121 446.493 390.624 446.37C390.127 446.247 389.619 446.056 389.1 445.796L389.694 444.162C389.922 444.354 390.241 444.515 390.651 444.647C391.061 444.784 391.456 444.853 391.834 444.853C392.513 444.853 393.051 444.625 393.447 444.169C393.844 443.718 394.042 443.107 394.042 442.337V442.323C393.755 442.578 393.427 442.779 393.058 442.925C392.688 443.066 392.29 443.137 391.861 443.137C391.223 443.137 390.651 442.984 390.145 442.679C389.644 442.369 389.25 441.947 388.963 441.414C388.676 440.876 388.532 440.266 388.532 439.582C388.532 438.898 388.676 438.29 388.963 437.757C389.25 437.219 389.644 436.798 390.145 436.492C390.651 436.182 391.223 436.027 391.861 436.027ZM392.306 441.428C392.807 441.428 393.222 441.252 393.55 440.901C393.878 440.55 394.042 440.111 394.042 439.582C394.042 439.053 393.878 438.614 393.55 438.263C393.222 437.912 392.807 437.736 392.306 437.736C391.804 437.736 391.39 437.912 391.061 438.263C390.733 438.614 390.569 439.053 390.569 439.582C390.569 440.111 390.733 440.55 391.061 440.901C391.39 441.252 391.804 441.428 392.306 441.428ZM406.51 432.609L402.033 443.137H400.256L404.733 432.609H406.51ZM410.079 432.746H412.3C412.569 433.402 412.817 433.999 413.045 434.537C413.278 435.07 413.499 435.588 413.708 436.089C413.923 436.59 414.139 437.112 414.358 437.654C414.577 438.192 414.804 438.794 415.041 439.459C415.105 439.641 415.164 439.817 415.219 439.985C415.274 440.149 415.324 440.311 415.37 440.471C415.415 440.311 415.465 440.149 415.52 439.985C415.575 439.817 415.634 439.641 415.698 439.459C415.939 438.794 416.167 438.192 416.381 437.654C416.6 437.112 416.814 436.59 417.024 436.089C417.238 435.588 417.461 435.07 417.694 434.537C417.926 433.999 418.175 433.402 418.439 432.746H420.661L416.47 443H414.269L410.079 432.746ZM420.322 439.582C420.322 438.898 420.479 438.29 420.794 437.757C421.113 437.219 421.546 436.798 422.093 436.492C422.644 436.182 423.271 436.027 423.972 436.027C424.674 436.027 425.299 436.182 425.845 436.492C426.392 436.798 426.823 437.219 427.137 437.757C427.456 438.29 427.616 438.898 427.616 439.582C427.616 440.266 427.456 440.876 427.137 441.414C426.823 441.947 426.392 442.369 425.845 442.679C425.299 442.984 424.674 443.137 423.972 443.137C423.271 443.137 422.644 442.984 422.093 442.679C421.546 442.369 421.113 441.947 420.794 441.414C420.479 440.876 420.322 440.266 420.322 439.582ZM422.236 439.582C422.236 440.111 422.4 440.55 422.728 440.901C423.056 441.252 423.471 441.428 423.972 441.428C424.474 441.428 424.888 441.252 425.217 440.901C425.545 440.55 425.709 440.111 425.709 439.582C425.709 439.053 425.545 438.614 425.217 438.263C424.888 437.912 424.474 437.736 423.972 437.736C423.471 437.736 423.056 437.912 422.728 438.263C422.4 438.614 422.236 439.053 422.236 439.582ZM428.583 436.164H429.711V434.455H431.68V436.164H433.341V437.873H431.68V440.389C431.68 440.712 431.782 440.967 431.987 441.154C432.197 441.337 432.461 441.428 432.78 441.428C433.017 441.428 433.261 441.375 433.512 441.271V442.884C433.079 443.052 432.653 443.137 432.234 443.137C431.422 443.137 430.798 442.92 430.36 442.487C429.928 442.05 429.711 441.425 429.711 440.614V437.873H428.583V436.164ZM434.725 433.84C434.725 433.512 434.825 433.247 435.026 433.047C435.226 432.846 435.491 432.746 435.819 432.746C436.147 432.746 436.411 432.846 436.612 433.047C436.812 433.247 436.913 433.512 436.913 433.84C436.913 434.168 436.812 434.432 436.612 434.633C436.411 434.833 436.147 434.934 435.819 434.934C435.491 434.934 435.226 434.833 435.026 434.633C434.825 434.432 434.725 434.168 434.725 433.84ZM434.834 443V436.164H436.803V443H434.834ZM438.611 443V436.164H440.334L440.416 436.998C440.685 436.688 441.006 436.449 441.38 436.28C441.758 436.112 442.173 436.027 442.624 436.027C443.421 436.027 444.057 436.292 444.531 436.82C445.005 437.344 445.242 438.076 445.242 439.015V443H443.266V439.397C443.266 438.29 442.852 437.736 442.022 437.736C441.594 437.736 441.245 437.894 440.976 438.208C440.712 438.522 440.58 438.965 440.58 439.534V443H438.611ZM449.873 436.027C450.32 436.027 450.732 436.105 451.111 436.26C451.493 436.41 451.828 436.624 452.115 436.902L452.163 436.164H454.023V442.2C454.023 443.075 453.856 443.839 453.524 444.49C453.196 445.142 452.733 445.648 452.136 446.008C451.543 446.372 450.846 446.555 450.044 446.555C449.602 446.555 449.133 446.493 448.636 446.37C448.139 446.247 447.631 446.056 447.112 445.796L447.706 444.162C447.934 444.354 448.253 444.515 448.663 444.647C449.073 444.784 449.468 444.853 449.846 444.853C450.525 444.853 451.063 444.625 451.459 444.169C451.856 443.718 452.054 443.107 452.054 442.337V442.323C451.767 442.578 451.439 442.779 451.07 442.925C450.7 443.066 450.302 443.137 449.873 443.137C449.235 443.137 448.663 442.984 448.157 442.679C447.656 442.369 447.262 441.947 446.975 441.414C446.688 440.876 446.544 440.266 446.544 439.582C446.544 438.898 446.688 438.29 446.975 437.757C447.262 437.219 447.656 436.798 448.157 436.492C448.663 436.182 449.235 436.027 449.873 436.027ZM450.318 441.428C450.819 441.428 451.234 441.252 451.562 440.901C451.89 440.55 452.054 440.111 452.054 439.582C452.054 439.053 451.89 438.614 451.562 438.263C451.234 437.912 450.819 437.736 450.318 437.736C449.816 437.736 449.402 437.912 449.073 438.263C448.745 438.614 448.581 439.053 448.581 439.582C448.581 440.111 448.745 440.55 449.073 440.901C449.402 441.252 449.816 441.428 450.318 441.428ZM361.743 453.609L357.265 464.137H355.488L359.965 453.609H361.743ZM370.78 453.541C371.527 453.541 372.229 453.671 372.885 453.931C373.541 454.19 374.113 454.564 374.601 455.052L373.035 456.419C372.762 456.091 372.425 455.838 372.024 455.66C371.627 455.478 371.185 455.387 370.697 455.387C370.073 455.387 369.524 455.533 369.05 455.824C368.581 456.111 368.216 456.517 367.956 457.041C367.697 457.565 367.567 458.176 367.567 458.873C367.567 459.57 367.697 460.181 367.956 460.705C368.216 461.225 368.581 461.63 369.05 461.922C369.524 462.214 370.073 462.359 370.697 462.359C371.463 462.359 372.11 462.145 372.639 461.717C373.172 461.284 373.53 460.703 373.712 459.974H370.684V458.128H375.619L375.674 458.504C375.688 458.627 375.699 458.752 375.708 458.88C375.717 459.007 375.722 459.142 375.722 459.283C375.722 459.994 375.599 460.65 375.353 461.252C375.107 461.849 374.758 462.368 374.307 462.811C373.86 463.253 373.332 463.597 372.721 463.843C372.115 464.084 371.449 464.205 370.725 464.205C369.968 464.205 369.269 464.073 368.626 463.809C367.984 463.54 367.423 463.166 366.945 462.688C366.471 462.209 366.101 461.646 365.837 460.999C365.577 460.347 365.447 459.639 365.447 458.873C365.447 458.103 365.58 457.394 365.844 456.747C366.108 456.095 366.48 455.53 366.958 455.052C367.437 454.573 368 454.202 368.647 453.938C369.298 453.673 370.009 453.541 370.78 453.541ZM376.621 460.582C376.621 459.898 376.778 459.29 377.092 458.757C377.411 458.219 377.844 457.798 378.391 457.492C378.943 457.182 379.569 457.027 380.271 457.027C380.973 457.027 381.597 457.182 382.144 457.492C382.691 457.798 383.122 458.219 383.436 458.757C383.755 459.29 383.915 459.898 383.915 460.582C383.915 461.266 383.755 461.876 383.436 462.414C383.122 462.947 382.691 463.369 382.144 463.679C381.597 463.984 380.973 464.137 380.271 464.137C379.569 464.137 378.943 463.984 378.391 463.679C377.844 463.369 377.411 462.947 377.092 462.414C376.778 461.876 376.621 461.266 376.621 460.582ZM378.535 460.582C378.535 461.111 378.699 461.55 379.027 461.901C379.355 462.252 379.77 462.428 380.271 462.428C380.772 462.428 381.187 462.252 381.515 461.901C381.843 461.55 382.007 461.111 382.007 460.582C382.007 460.053 381.843 459.614 381.515 459.263C381.187 458.912 380.772 458.736 380.271 458.736C379.77 458.736 379.355 458.912 379.027 459.263C378.699 459.614 378.535 460.053 378.535 460.582ZM384.185 457.164H386.324L387.561 460.493C387.625 460.666 387.696 460.919 387.773 461.252C387.855 461.585 387.919 461.885 387.965 462.154H387.992C388.047 461.885 388.115 461.587 388.197 461.259C388.284 460.931 388.359 460.675 388.423 460.493L389.564 457.164H391.636L388.936 464H387.021L384.185 457.164ZM393.751 461.17C393.874 461.548 394.1 461.856 394.428 462.093C394.761 462.33 395.148 462.448 395.59 462.448C396.064 462.448 396.456 462.373 396.766 462.223C397.08 462.068 397.365 461.869 397.62 461.628L398.81 463.05C398.281 463.465 397.757 463.749 397.238 463.904C396.723 464.059 396.228 464.137 395.754 464.137C394.998 464.137 394.33 463.984 393.751 463.679C393.173 463.369 392.719 462.945 392.391 462.407C392.063 461.865 391.899 461.25 391.899 460.562C391.899 459.882 392.056 459.279 392.37 458.75C392.685 458.217 393.113 457.798 393.656 457.492C394.202 457.182 394.822 457.027 395.515 457.027C396.203 457.027 396.814 457.18 397.347 457.485C397.885 457.791 398.309 458.21 398.618 458.743C398.928 459.276 399.083 459.887 399.083 460.575V461.17H393.751ZM397.06 460.076C396.964 459.675 396.768 459.352 396.472 459.105C396.176 458.859 395.82 458.736 395.406 458.736C394.986 458.736 394.622 458.862 394.312 459.112C394.006 459.363 393.806 459.684 393.71 460.076H397.06ZM400.529 464V457.164H402.252L402.347 458.142C402.844 457.399 403.528 457.027 404.398 457.027C404.694 457.027 405 457.073 405.314 457.164L405.041 458.866C404.776 458.78 404.517 458.736 404.261 458.736C403.733 458.736 403.307 458.932 402.983 459.324C402.66 459.712 402.498 460.265 402.498 460.985V464H400.529ZM406.206 464V457.164H407.929L408.011 457.998C408.28 457.688 408.601 457.449 408.975 457.28C409.353 457.112 409.768 457.027 410.219 457.027C411.016 457.027 411.652 457.292 412.126 457.82C412.6 458.344 412.837 459.076 412.837 460.015V464H410.861V460.397C410.861 459.29 410.447 458.736 409.617 458.736C409.189 458.736 408.84 458.894 408.571 459.208C408.307 459.522 408.175 459.965 408.175 460.534V464H406.206ZM414.399 462.12C414.399 461.664 414.529 461.257 414.788 460.896C415.053 460.536 415.415 460.252 415.875 460.042C416.336 459.832 416.862 459.728 417.454 459.728C417.641 459.728 417.837 459.739 418.042 459.762C418.252 459.785 418.462 459.814 418.671 459.851C418.521 459.108 417.981 458.736 417.051 458.736C416.5 458.736 415.946 458.944 415.39 459.358L414.713 457.697C415.187 457.469 415.654 457.301 416.115 457.191C416.575 457.082 417.012 457.027 417.427 457.027C418.088 457.027 418.66 457.153 419.143 457.403C419.631 457.649 420.009 458 420.278 458.456C420.547 458.907 420.681 459.438 420.681 460.049V464H419.027L418.897 463.269C418.642 463.537 418.329 463.749 417.96 463.904C417.596 464.059 417.195 464.137 416.757 464.137C416.065 464.137 415.497 463.95 415.055 463.576C414.618 463.202 414.399 462.717 414.399 462.12ZM416.368 461.669C416.368 461.897 416.454 462.081 416.627 462.223C416.805 462.359 417.037 462.428 417.325 462.428C417.717 462.428 418.045 462.309 418.309 462.072C418.578 461.835 418.712 461.544 418.712 461.197V461.061C418.544 461.006 418.361 460.963 418.165 460.931C417.974 460.899 417.785 460.883 417.598 460.883C417.211 460.883 416.908 460.951 416.689 461.088C416.475 461.225 416.368 461.418 416.368 461.669ZM422.469 464V457.164H424.191L424.273 457.998C424.542 457.688 424.863 457.449 425.237 457.28C425.615 457.112 426.03 457.027 426.481 457.027C427.279 457.027 427.914 457.292 428.388 457.82C428.862 458.344 429.099 459.076 429.099 460.015V464H427.124V460.397C427.124 459.29 426.709 458.736 425.88 458.736C425.451 458.736 425.103 458.894 424.834 459.208C424.569 459.522 424.437 459.965 424.437 460.534V464H422.469ZM436.875 463.125C436.542 463.444 436.144 463.692 435.679 463.87C435.219 464.048 434.717 464.137 434.175 464.137C433.45 464.137 432.803 463.984 432.234 463.679C431.668 463.369 431.222 462.947 430.894 462.414C430.566 461.876 430.401 461.266 430.401 460.582C430.401 459.898 430.566 459.29 430.894 458.757C431.222 458.219 431.668 457.798 432.234 457.492C432.803 457.182 433.45 457.027 434.175 457.027C434.717 457.027 435.219 457.116 435.679 457.294C436.144 457.472 436.542 457.72 436.875 458.039L435.487 459.345C435.159 458.939 434.722 458.736 434.175 458.736C433.674 458.736 433.259 458.912 432.931 459.263C432.603 459.614 432.439 460.053 432.439 460.582C432.439 461.111 432.603 461.55 432.931 461.901C433.259 462.252 433.674 462.428 434.175 462.428C434.722 462.428 435.159 462.225 435.487 461.819L436.875 463.125ZM439.695 461.17C439.818 461.548 440.043 461.856 440.372 462.093C440.704 462.33 441.092 462.448 441.534 462.448C442.008 462.448 442.4 462.373 442.709 462.223C443.024 462.068 443.309 461.869 443.564 461.628L444.753 463.05C444.225 463.465 443.701 463.749 443.181 463.904C442.666 464.059 442.172 464.137 441.698 464.137C440.941 464.137 440.274 463.984 439.695 463.679C439.116 463.369 438.663 462.945 438.334 462.407C438.006 461.865 437.842 461.25 437.842 460.562C437.842 459.882 437.999 459.279 438.314 458.75C438.628 458.217 439.057 457.798 439.599 457.492C440.146 457.182 440.766 457.027 441.458 457.027C442.147 457.027 442.757 457.18 443.291 457.485C443.828 457.791 444.252 458.21 444.562 458.743C444.872 459.276 445.027 459.887 445.027 460.575V461.17H439.695ZM443.003 460.076C442.908 459.675 442.712 459.352 442.416 459.105C442.119 458.859 441.764 458.736 441.349 458.736C440.93 458.736 440.565 458.862 440.255 459.112C439.95 459.363 439.749 459.684 439.654 460.076H443.003Z" fill="#232323"/>
<path d="M235.59 533.206C235.59 533.94 235.752 534.682 236.07 535.239L241.569 544.769C242.211 545.884 243.27 545.884 243.913 544.769L249.412 535.239C249.736 534.682 249.892 533.947 249.892 533.206C249.892 532.472 249.729 531.738 249.412 531.173L243.913 521.644C243.27 520.528 242.211 520.528 241.569 521.644L236.07 531.173C235.752 531.738 235.59 532.472 235.59 533.206Z" fill="white"/>
<path d="M246.667 532.746C246.667 532.764 246.667 532.782 246.667 532.791L243.072 539.021L239.477 532.791C239.477 532.773 239.477 532.764 239.477 532.746C239.477 532.728 239.477 532.71 239.477 532.701L243.072 526.471L246.667 532.701C246.667 532.71 246.667 532.728 246.667 532.746ZM252.162 532.746C252.162 531.814 251.956 530.872 251.552 530.164L244.569 518.062C243.753 516.646 242.409 516.646 241.593 518.062L234.61 530.164C234.197 530.872 234 531.805 234 532.746C234 533.678 234.206 534.61 234.61 535.328L241.593 547.43C242.409 548.846 243.753 548.846 244.569 547.43L251.552 535.328C251.956 534.61 252.162 533.678 252.162 532.746Z" fill="#232323"/>
</svg>
