<svg width="17" height="21" viewBox="0 0 17 21" fill="none" xmlns="http://www.w3.org/2000/svg">
<g clip-path="url(#clip0_397_10678)">
<path d="M17.0001 6.77687V7.08933C16.9745 7.26994 16.9559 7.45056 16.9226 7.62635C16.7581 8.50353 16.4321 9.33075 16.021 10.1285C15.1444 11.8323 13.9861 13.3554 12.6273 14.7468C12.561 14.8052 12.5137 14.8801 12.491 14.9628C12.4683 15.0456 12.4712 15.1327 12.4993 15.2139C12.5748 15.474 12.6337 15.7389 12.7016 16.0014C12.8149 16.4367 12.7067 16.8088 12.3661 17.1279C11.1281 18.289 9.89014 19.452 8.65217 20.6167C8.51258 20.7474 8.36467 20.8708 8.22059 20.9978H8.05475C7.9158 20.9111 7.88762 20.7732 7.86265 20.6366C7.71751 19.7684 7.57259 18.8999 7.42787 18.0309C7.39908 17.8659 7.40697 17.6971 7.45106 17.5352C7.49514 17.3732 7.57446 17.2216 7.684 17.0899C7.8364 16.8991 7.83832 16.8449 7.66223 16.6787C6.63771 15.7154 5.61169 14.7508 4.58418 13.7847C4.40361 13.6143 4.35687 13.6167 4.1494 13.763C3.88367 13.9502 3.58143 14.0604 3.24975 14.0147C2.27005 13.8804 1.29227 13.7323 0.314493 13.586C0.19027 13.5673 0.0545187 13.5445 0.00649422 13.409C-0.0415302 13.2735 0.0545197 13.1838 0.139683 13.0935C0.154411 13.0779 0.17106 13.064 0.186428 13.049C1.50251 11.812 2.81838 10.575 4.13404 9.33797C4.27584 9.19588 4.4563 9.09299 4.65586 9.04046C4.85542 8.98793 5.06647 8.98775 5.26613 9.03996C5.54083 9.10016 5.81937 9.14833 6.08767 9.2278C6.39118 9.3169 6.62426 9.25549 6.85606 9.0514C7.67762 8.33599 8.55922 7.68407 9.49228 7.10197C10.762 6.30486 12.0856 5.60528 13.5667 5.21154C14.1763 5.04959 14.7948 4.94965 15.4345 5.02732C16.1907 5.11823 16.7286 5.55832 16.9073 6.2585C16.947 6.42949 16.9687 6.60528 17.0001 6.77687ZM14.5822 8.98939C14.581 8.66082 14.476 8.34001 14.2806 8.06758C14.0853 7.79514 13.8083 7.58335 13.4849 7.45903C13.1614 7.3347 12.8059 7.30344 12.4636 7.36919C12.1212 7.43495 11.8072 7.59476 11.5615 7.8284C11.3158 8.06204 11.1494 8.35898 11.0833 8.68162C11.0173 9.00426 11.0545 9.33808 11.1904 9.64079C11.3262 9.94351 11.5546 10.2015 11.8465 10.3821C12.1385 10.5627 12.4809 10.6578 12.8303 10.6553C13.0617 10.6548 13.2907 10.6113 13.5041 10.5274C13.7176 10.4434 13.9113 10.3206 14.0741 10.166C14.2369 10.0114 14.3656 9.82809 14.4528 9.62658C14.54 9.42507 14.584 9.20934 14.5822 8.9918V8.98939Z" fill="#3C3C3E"/>
<path d="M1.68035 19.2678C1.71499 19.0917 1.75966 18.9175 1.81418 18.7459C2.28994 17.4262 2.9277 16.1884 3.93301 15.1432C4.11166 14.9578 4.19299 14.9506 4.38508 15.1288C5.02541 15.7256 5.66317 16.3256 6.29838 16.9289C6.49047 17.1095 6.46934 17.183 6.27596 17.3672C5.64268 17.9692 4.88902 18.381 4.04571 18.6772C3.33815 18.9259 2.653 19.2317 1.95953 19.5159C1.73606 19.6068 1.67651 19.5767 1.68035 19.2678Z" fill="#3C3C3E"/>
</g>
<defs>
<clipPath id="clip0_397_10678">
<rect width="17" height="16" fill="white" transform="translate(0 5)"/>
</clipPath>
</defs>
</svg>
