<svg width="26" height="24" viewBox="0 0 26 24" fill="none" xmlns="http://www.w3.org/2000/svg">
<path d="M5.32413 0H20.3303V1.23983H20.6053C21.2464 1.23983 21.8883 1.23278 22.5294 1.23983C24.0322 1.26176 25.133 2.17968 25.2737 3.57145C25.3185 4.0171 25.2501 4.47606 25.2029 4.92563C25.0215 6.6628 24.6009 8.34122 23.7978 9.91548C22.2699 12.9113 19.8266 14.7714 16.3989 15.3917C16.1386 15.4387 15.8774 15.4771 15.6032 15.5217C15.9344 16.6323 16.2541 17.7147 16.5795 18.8049C16.5941 18.8975 16.6241 18.9871 16.6682 19.0705C16.7204 19.145 16.8006 19.1973 16.892 19.2161C17.4726 19.26 18.0159 19.509 18.4172 19.9154C18.8186 20.3217 19.0496 20.8565 19.0659 21.417C19.083 21.9864 19.0716 22.5573 19.0724 23.1283C19.0724 23.4149 19.0724 23.7016 19.0724 24H6.61939C6.61939 23.0531 6.54616 22.1117 6.6381 21.1804C6.74794 20.0636 7.64209 19.3156 8.80311 19.2224C8.95118 19.2107 8.99105 19.1441 9.02522 19.0289C9.35799 17.9035 9.69563 16.7796 10.03 15.6541C10.0386 15.6128 10.0438 15.5709 10.0455 15.5288C10.0273 15.5176 10.0079 15.5084 9.98772 15.5014C9.73143 15.4606 9.47433 15.423 9.21886 15.38C6.77805 14.9406 4.74403 13.8323 3.19086 11.9605C1.66779 10.1285 0.91277 7.98956 0.549902 5.70023C0.468542 5.20759 0.418909 4.71181 0.353821 4.21682V3.51193C0.372534 3.43831 0.394502 3.36468 0.410774 3.29028C0.523826 2.73761 0.825368 2.23711 1.26755 1.8682C1.70974 1.49929 2.26723 1.2831 2.85159 1.25392C3.58383 1.21946 4.31608 1.23826 5.04344 1.23356H5.32007L5.32413 0ZM7.88699 12.5565L7.92034 12.5009C7.72345 12.1539 7.51355 11.814 7.33374 11.4584C6.32406 9.43145 5.88877 7.26038 5.61784 5.04937C5.56171 4.58728 5.5194 4.1244 5.46895 3.65134H3.05662C2.87925 3.65134 2.84426 3.76177 2.85484 3.9051C2.95491 5.21776 3.1689 6.51007 3.62126 7.75773C4.20624 9.37114 5.09877 10.7817 6.57058 11.7913C6.98714 12.0764 7.44683 12.3027 7.88699 12.5565ZM17.7178 12.5361C19.2856 11.8743 20.4165 10.8358 21.2301 9.4667C22.2569 7.74363 22.649 5.84512 22.8036 3.88943C22.8174 3.72183 22.7402 3.64429 22.5595 3.64586C22.2186 3.64977 21.8777 3.64586 21.5368 3.64586H20.1944C19.8925 6.74268 19.4451 9.77842 17.7178 12.5361Z" fill="white"/>
</svg>
