<svg width="19" height="20" viewBox="0 0 19 20" fill="none" xmlns="http://www.w3.org/2000/svg">
<g clip-path="url(#clip0_397_2548)">
<path d="M0.506437 11.7593V11.57C0.506437 9.80813 0.50294 8.04674 0.506437 6.28486C0.511934 4.24752 1.87164 2.54773 3.85798 2.10501C4.16236 2.03864 4.47294 2.00506 4.78444 2.00485C7.91362 1.99783 11.0431 1.99667 14.173 2.00134C16.3172 2.00384 18.0707 3.49679 18.415 5.61726C18.4507 5.85192 18.4674 6.08908 18.465 6.32643C18.469 8.17545 18.465 10.0245 18.47 11.8735C18.47 12.0087 18.4395 12.0854 18.3106 12.1455C17.6 12.4765 16.9164 12.8827 16.1813 13.1426C13.9656 13.9254 11.8778 13.6079 9.9919 12.2026C8.966 11.4383 7.87564 10.8438 6.61837 10.5874C4.84807 10.2261 3.15173 10.4477 1.52934 11.252L0.506437 11.7593ZM13.9781 7.99967C14.2745 7.99906 14.5641 7.9102 14.81 7.74438C15.056 7.57856 15.2473 7.34325 15.3596 7.0683C15.4719 6.79336 15.5002 6.49117 15.4409 6.20009C15.3815 5.90901 15.2372 5.64215 15.0263 5.43338C14.8154 5.22461 14.5474 5.08334 14.2562 5.02749C13.9651 4.97164 13.664 5.00373 13.391 5.11969C13.1181 5.23566 12.8857 5.43026 12.7233 5.67881C12.5609 5.92736 12.4759 6.21866 12.479 6.51574C12.4838 6.91065 12.6436 7.28776 12.9238 7.56547C13.204 7.84319 13.582 7.99917 13.9761 7.99967H13.9781Z" fill="white"/>
<path d="M18.5 13.4459C18.4641 14.4681 18.5086 15.4993 18.3741 16.5099C18.1338 18.3169 16.5252 19.7778 14.7098 19.9656C14.5239 19.9864 14.3371 19.9974 14.1501 19.9986C11.0326 20.0006 7.91456 20.0006 4.79605 19.9986C2.8137 19.9986 1.13318 18.705 0.648466 16.7994C0.564686 16.4603 0.519262 16.1129 0.513047 15.7637C0.494058 14.9268 0.505048 14.089 0.510045 13.2516C0.510045 13.1895 0.54353 13.0938 0.589003 13.0713C1.33857 12.7062 2.06814 12.2775 2.85168 12.007C5.0579 11.2463 7.13619 11.5743 9.0041 12.9801C10.091 13.7985 11.2613 14.3965 12.602 14.6298C14.336 14.9303 15.9875 14.6654 17.5541 13.8641C17.8469 13.7138 18.1428 13.5701 18.4366 13.4234L18.5 13.4459Z" fill="white"/>
</g>
<defs>
<clipPath id="clip0_397_2548">
<rect width="18" height="18" fill="white" transform="translate(0.5 2)"/>
</clipPath>
</defs>
</svg>
