<svg width="21" height="15" viewBox="0 0 21 15" fill="none" xmlns="http://www.w3.org/2000/svg">
<path d="M20.0049 10.8004C19.9651 11.1847 19.9451 11.5691 19.8804 11.9429C19.8165 12.4258 19.7114 12.9016 19.5665 13.3645C19.4538 13.7402 19.2159 14.0599 18.897 14.2642C18.5781 14.4685 18.1999 14.5436 17.8325 14.4754C17.5885 14.4327 17.3559 14.3358 17.1499 14.1911C16.4423 13.7018 15.7989 13.1158 15.2366 12.4483C14.8779 12.0535 14.5391 11.6428 14.2002 11.2374C14.0674 11.0701 13.901 10.9361 13.7132 10.845C13.5253 10.7539 13.3207 10.7081 13.1141 10.7109H6.90577C6.6951 10.7053 6.48594 10.7497 6.29365 10.8408C6.10137 10.9319 5.93087 11.0675 5.79467 11.2374C5.06729 12.1656 4.25996 13.0204 3.3831 13.791C3.19874 13.9437 2.99945 14.0753 2.80513 14.2122C2.61241 14.3417 2.39568 14.4261 2.16952 14.4597C1.94336 14.4932 1.71302 14.4753 1.49399 14.4069C1.27495 14.3386 1.0723 14.2215 0.899676 14.0635C0.727054 13.9055 0.588462 13.7102 0.493216 13.4909C0.298415 13.0175 0.175652 12.5147 0.129484 12.0008C-0.153503 9.8411 0.0287456 7.64172 0.662621 5.56683C0.994469 4.4497 1.48684 3.3931 2.12251 2.43406C2.64918 1.54831 3.46893 0.901335 4.42217 0.619096C5.37541 0.336858 6.39393 0.439553 7.27946 0.907178C7.65963 1.08577 8.02612 1.29525 8.37563 1.53373C8.7433 1.7971 9.17709 1.93828 9.62127 1.93914H10.3437C10.8214 1.94683 11.2891 1.79379 11.6791 1.50214C12.4168 0.952816 13.2736 0.608754 14.1704 0.501752C14.8184 0.425247 15.4741 0.527097 16.0738 0.797402C16.6736 1.06771 17.1971 1.4973 17.5934 2.04445C18.4283 3.16996 19.0416 4.4607 19.3971 5.84061C19.7053 6.89219 19.891 7.97957 19.9501 9.07866C19.9501 9.15238 19.975 9.2261 19.985 9.29981L20.0049 10.8004ZM6.28794 5.23512C6.28794 4.79285 6.28794 4.38217 6.28794 3.97149C6.29537 3.92485 6.28555 3.87696 6.26051 3.83776C6.23546 3.79856 6.19713 3.77103 6.15341 3.76087C5.80761 3.62961 5.43212 3.61308 5.07718 3.71349C5.04749 3.71658 5.01873 3.72618 4.99276 3.74169C4.96678 3.75719 4.94416 3.77826 4.92634 3.80353C4.90852 3.82881 4.89588 3.85775 4.88925 3.88848C4.88262 3.91922 4.88215 3.95107 4.88784 3.98202C4.88784 4.3927 4.88784 4.80338 4.88784 5.23512C4.47927 5.23512 4.09063 5.23512 3.70199 5.23512C3.64161 5.22703 3.58054 5.24307 3.53077 5.28008C3.481 5.31709 3.4461 5.37241 3.43292 5.4352C3.31894 5.77588 3.31894 6.14755 3.43292 6.48823C3.43949 6.52676 3.45327 6.56352 3.47343 6.59636C3.49359 6.62921 3.51973 6.65749 3.55034 6.67955C3.58095 6.7016 3.61542 6.717 3.65172 6.72483C3.68802 6.73266 3.72543 6.73276 3.76177 6.72515C4.02087 6.72515 4.26003 6.72515 4.53905 6.72515H4.84797C4.84797 7.15689 4.84797 7.54652 4.84797 7.93614C4.84068 7.99418 4.85193 8.05312 4.8799 8.10366C4.90788 8.1542 4.95098 8.19345 5.00243 8.21519C5.15726 8.29322 5.32563 8.33675 5.49707 8.34309C5.6685 8.34943 5.83933 8.31844 5.99894 8.25203C6.07589 8.23665 6.14406 8.18998 6.18878 8.12205C6.23351 8.05411 6.25122 7.97035 6.23811 7.88875C6.23811 7.50967 6.23811 7.1253 6.23811 6.72515C6.66661 6.72515 7.0702 6.72515 7.4688 6.72515C7.50169 6.72397 7.53404 6.71592 7.56397 6.70146C7.59391 6.687 7.62083 6.66642 7.64319 6.6409C7.75148 6.45905 7.8118 6.24993 7.81794 6.03518C7.82407 5.82042 7.77578 5.60783 7.67808 5.4194C7.65534 5.36379 7.61666 5.31711 7.5675 5.28594C7.51834 5.25478 7.46116 5.24068 7.40403 5.24565C7.03532 5.24565 6.67159 5.23512 6.28794 5.23512ZM17.6681 5.68792C17.6671 5.46172 17.6026 5.24094 17.4827 5.05352C17.3629 4.86611 17.1931 4.72051 16.9949 4.63516C16.7966 4.54981 16.5789 4.52855 16.3692 4.57409C16.1596 4.61963 15.9674 4.72992 15.8171 4.89096C15.6668 5.05201 15.5651 5.25657 15.5249 5.47874C15.4847 5.70092 15.5079 5.93069 15.5914 6.13896C15.6749 6.34723 15.815 6.52463 15.994 6.64866C16.173 6.7727 16.3828 6.83781 16.5969 6.83573C16.7386 6.83504 16.8788 6.80477 17.0095 6.74665C17.1401 6.68853 17.2586 6.6037 17.3582 6.49705C17.4577 6.39039 17.5364 6.26401 17.5895 6.12516C17.6427 5.9863 17.6694 5.83771 17.6681 5.68792ZM14.9676 3.99781C14.9666 3.77184 14.9022 3.55125 14.7826 3.36395C14.663 3.17664 14.4935 3.03103 14.2955 2.94552C14.0976 2.86001 13.8801 2.83844 13.6705 2.88355C13.461 2.92865 13.2688 3.03841 13.1183 3.19893C12.9678 3.35945 12.8657 3.56353 12.8249 3.78536C12.7842 4.00719 12.8066 4.2368 12.8894 4.44517C12.9721 4.65354 13.1114 4.8313 13.2898 4.95597C13.4681 5.08065 13.6775 5.14665 13.8913 5.14561C14.0335 5.14561 14.1743 5.11586 14.3055 5.05805C14.4367 5.00024 14.5558 4.91551 14.6559 4.80879C14.756 4.70207 14.835 4.57545 14.8885 4.43626C14.942 4.29706 14.9689 4.14804 14.9676 3.99781ZM14.9676 7.15689C14.9666 6.9307 14.9021 6.70991 14.7822 6.5225C14.6624 6.33508 14.4926 6.18947 14.2943 6.10412C14.0961 6.01877 13.8783 5.99753 13.6687 6.04306C13.459 6.0886 13.2669 6.19888 13.1165 6.35992C12.9662 6.52097 12.8645 6.72555 12.8244 6.94772C12.7842 7.16989 12.8073 7.39967 12.8908 7.60794C12.9743 7.81621 13.1144 7.99361 13.2934 8.11764C13.4724 8.24168 13.6823 8.30677 13.8963 8.30469C14.0391 8.30473 14.1805 8.2746 14.3121 8.21607C14.4437 8.15755 14.5629 8.07181 14.6627 7.96389C14.7625 7.85597 14.8409 7.72805 14.8933 7.58766C14.9456 7.44726 14.9709 7.29723 14.9676 7.14637V7.15689Z" fill="white"/>
</svg>
