<svg width="36" height="34" viewBox="0 0 36 34" fill="none" xmlns="http://www.w3.org/2000/svg">
<path fill-rule="evenodd" clip-rule="evenodd" d="M7.00005 17.0854C6.99328 11.2624 11.9127 6.53627 17.9878 6.5292C24.0629 6.52214 28.9933 11.2369 29 17.0598C29.0068 22.8828 24.0874 27.609 18.0123 27.616C11.9372 27.6231 7.00683 22.9084 7.00005 17.0854ZM17.3019 7.94882C16.3818 8.2197 15.467 9.03254 14.7098 10.3972C14.4727 10.8244 14.2574 11.296 14.0683 11.8055L17.3064 11.8017L17.3019 7.94882ZM12.617 11.8072L10.0941 11.8101C11.1396 10.3699 12.6026 9.2287 14.3151 8.54773C14.0149 8.92245 13.7411 9.33645 13.4959 9.77837C13.1567 10.3895 12.8615 11.0707 12.617 11.8072ZM11.8234 16.4208L8.39846 16.4248C8.48341 15.2524 8.79695 14.1402 9.29669 13.1289L12.248 13.1255C12.0095 14.156 11.863 15.2652 11.8234 16.4208ZM13.6599 13.1239L17.3079 13.1196L17.3118 16.4144L13.1992 16.4192C13.2425 15.2433 13.4042 14.1324 13.6599 13.1239ZM18.6829 13.118L18.6868 16.4128L22.7993 16.4081C22.7533 15.2322 22.589 14.1217 22.331 13.1138L18.6829 13.118ZM13.2008 17.7372L17.3133 17.7324L17.3171 21.0272L13.6691 21.0314C13.4111 20.0235 13.2468 18.913 13.2008 17.7372ZM18.6883 17.7308L18.6921 21.0256L22.3402 21.0213C22.5959 20.0129 22.7576 18.9019 22.8008 17.726L18.6883 17.7308ZM14.0805 22.3489L17.3187 22.3451L17.3232 26.198C16.4024 25.9293 15.4858 25.1185 14.7253 23.7557C14.4873 23.329 14.2709 22.8579 14.0805 22.3489ZM14.335 25.606C14.0339 25.232 13.7591 24.8186 13.5128 24.3773C13.1723 23.767 12.8755 23.0865 12.6293 22.3506L10.1064 22.3535C11.1553 23.7913 12.6208 24.9291 14.335 25.606ZM12.2572 21.0331L9.30589 21.0365C8.8038 20.0264 8.48767 18.9149 8.39999 17.7427L11.8249 17.7388C11.8672 18.8943 12.0163 20.0031 12.2572 21.0331ZM21.685 25.5975C23.3975 24.9165 24.8604 23.7754 25.906 22.3351L23.383 22.3381C23.1386 23.0746 22.8433 23.7557 22.5042 24.3668C22.259 24.8088 21.9852 25.2228 21.685 25.5975ZM18.6937 22.3435L21.9318 22.3398C21.7426 22.8492 21.5273 23.3208 21.2903 23.7481C20.533 25.1127 19.6183 25.9255 18.6982 26.1964L18.6937 22.3435ZM23.7521 21.0197L26.7034 21.0163C27.2031 20.005 27.5167 18.8928 27.6016 17.7204L24.1767 17.7244C24.1371 18.88 23.9906 19.9892 23.7521 21.0197ZM27.6001 16.4025L24.1751 16.4065C24.1329 15.2509 23.9838 14.1421 23.7429 13.1121L26.6942 13.1087C27.1963 14.1188 27.5124 15.2303 27.6001 16.4025ZM22.4873 9.76792C22.8278 10.3782 23.1246 11.0587 23.3708 11.7946L25.8937 11.7917C24.8448 10.3539 23.3793 9.21616 21.6651 8.53918C21.9662 8.9132 22.241 9.32657 22.4873 9.76792ZM21.9195 11.7963L18.6814 11.8001L18.6769 7.94722C19.5977 8.21596 20.5143 9.02667 21.2747 10.3895C21.5128 10.8162 21.7292 11.2874 21.9195 11.7963Z" fill="white"/>
</svg>
