<svg width="14" height="14" viewBox="0 0 14 14" fill="none" xmlns="http://www.w3.org/2000/svg">
<path fill-rule="evenodd" clip-rule="evenodd" d="M0 7C0 3.13401 3.13401 0 7 0C10.866 0 14 3.13401 14 7C14 10.866 10.866 14 7 14C3.13401 14 0 10.866 0 7ZM6.5625 0.941984C5.97675 1.12112 5.39404 1.66007 4.91115 2.56549C4.75997 2.84895 4.62262 3.16192 4.50187 3.49999H6.5625V0.941984ZM3.57835 3.49999H1.97285C2.63925 2.54461 3.57104 1.78809 4.66135 1.33731C4.47005 1.58586 4.29547 1.86051 4.13909 2.15372C3.92285 2.55919 3.73446 3.01121 3.57835 3.49999ZM3.06989 6.56249H0.890381C0.945311 5.78418 1.14566 5.04601 1.46442 4.37499H3.34251C3.18998 5.05898 3.09592 5.79527 3.06989 6.56249ZM4.241 4.37499H6.5625V6.56249H3.94543C3.97383 5.78181 4.07755 5.04435 4.241 4.37499ZM7.4375 4.37499V6.56249H10.0546C10.0262 5.78181 9.92244 5.04435 9.75899 4.37499H7.4375ZM3.94543 7.43749H6.5625V9.62499H4.241C4.07755 8.95564 3.97383 8.21818 3.94543 7.43749ZM7.4375 7.43749V9.62499H9.75899C9.92244 8.95564 10.0262 8.21818 10.0546 7.43749H7.4375ZM4.50187 10.5H6.5625V13.058C5.97675 12.8789 5.39404 12.3399 4.91115 11.4345C4.75997 11.151 4.62262 10.8381 4.50187 10.5ZM4.66136 12.6627C4.47005 12.4141 4.29547 12.1395 4.13909 11.8463C3.92285 11.4408 3.73446 10.9888 3.57835 10.5H1.97285C2.63925 11.4554 3.57104 12.2119 4.66136 12.6627ZM3.34251 9.62499H1.46442C1.14566 8.95398 0.945311 8.21581 0.890381 7.43749H3.06989C3.09592 8.20472 3.18998 8.941 3.34251 9.62499ZM9.33864 12.6627C10.429 12.2119 11.3607 11.4554 12.0271 10.5H10.4216C10.2655 10.9888 10.0771 11.4408 9.8609 11.8463C9.70452 12.1395 9.52994 12.4141 9.33864 12.6627ZM7.4375 10.5H9.49813C9.37737 10.8381 9.24002 11.151 9.08884 11.4345C8.60595 12.3399 8.02325 12.8789 7.4375 13.058V10.5ZM10.6575 9.62499H12.5356C12.8543 8.95398 13.0547 8.21581 13.1096 7.43749H10.9301C10.9041 8.20472 10.81 8.941 10.6575 9.62499ZM13.1096 6.56249H10.9301C10.9041 5.79527 10.81 5.05898 10.6575 4.37499H12.5356C12.8543 5.04601 13.0547 5.78418 13.1096 6.56249ZM9.8609 2.15372C10.0771 2.55919 10.2655 3.01121 10.4216 3.49999H12.0271C11.3607 2.54461 10.429 1.78809 9.33864 1.33731C9.52994 1.58586 9.70452 1.86051 9.8609 2.15372ZM9.49813 3.49999H7.4375V0.941984C8.02325 1.12112 8.60595 1.66007 9.08884 2.56549C9.24002 2.84895 9.37737 3.16192 9.49813 3.49999Z" fill="#3C3C3E"/>
</svg>
