<svg width="17" height="17" viewBox="0 0 17 17" fill="none" xmlns="http://www.w3.org/2000/svg">
<path d="M0.011824 11.3459H1.88771V15.0883H15.0922V1.91169H1.89657V5.65346H0.0106416C0.00709442 5.57837 0 5.50682 0 5.43586C0 4.28439 0 3.13352 0 1.98323C0 0.802991 0.80699 0 1.99176 0H15.0041C16.1989 0 16.9994 0.807131 16.9994 2.00334C16.9994 6.33366 16.9994 10.6638 16.9994 14.9937C16.9994 16.2006 16.1966 16.9994 14.9846 16.9994H2.01659C0.79221 16.9994 0 16.2017 0 14.9748C0 13.7871 0 12.5995 0 11.4122C0.00261357 11.3899 0.00656201 11.3678 0.011824 11.3459Z" fill="white"/>
<path d="M0.00732422 9.45086V7.56874H9.09881L6.6879 5.20352L8.0317 3.86304L12.6774 8.51483L8.04057 13.1507L6.72987 11.8498L9.1136 9.51295L9.07694 9.4485L0.00732422 9.45086Z" fill="white"/>
</svg>
