<svg width="17" height="17" viewBox="0 0 17 17" fill="none" xmlns="http://www.w3.org/2000/svg">
<g clip-path="url(#clip0_704_5728)">
<path d="M0.0123123 11.3459H1.88819V15.0883H15.0927V1.91169H1.89706V5.65346H0.0111299C0.0075827 5.57837 0.000488281 5.50682 0.000488281 5.43586C0.000488281 4.28439 0.000488281 3.13352 0.000488281 1.98323C0.000488281 0.802991 0.807478 0 1.99225 0H15.0046C16.1994 0 16.9999 0.807131 16.9999 2.00334C16.9999 6.33366 16.9999 10.6638 16.9999 14.9937C16.9999 16.2006 16.197 16.9994 14.9851 16.9994H2.01708C0.792698 16.9994 0.000488281 16.2017 0.000488281 14.9748C0.000488281 13.7871 0.000488281 12.5995 0.000488281 11.4122C0.00310186 11.3899 0.00705029 11.3678 0.0123123 11.3459Z" fill="#3C3C3E"/>
<path d="M0.0078125 9.45086V7.56874H9.0993L6.68839 5.20352L8.03219 3.86304L12.6778 8.51483L8.04105 13.1507L6.73036 11.8498L9.11408 9.51295L9.07743 9.4485L0.0078125 9.45086Z" fill="#3C3C3E"/>
</g>
<defs>
<clipPath id="clip0_704_5728">
<rect width="17" height="17" fill="white" transform="translate(0.000488281)"/>
</clipPath>
</defs>
</svg>
