<svg width="17" height="18" viewBox="0 0 17 18" fill="none" xmlns="http://www.w3.org/2000/svg">
<path d="M12.5397 15.1874H9.08098C9.38159 16.1608 9.22333 16.8013 8.58062 17.2354C8.30379 17.4228 7.97348 17.515 7.63957 17.4982C7.30567 17.4815 6.98629 17.3565 6.72968 17.1423C6.15066 16.66 6.03245 15.978 6.38758 15.145L6.14874 15.0779C5.70246 14.9509 5.30433 14.6935 5.00541 14.3388C4.70648 13.984 4.5204 13.5481 4.47103 13.0869C4.27802 11.3809 4.06909 9.67638 3.86885 7.97137C3.68195 6.3797 3.49618 4.78803 3.31154 3.19636C3.29272 3.03526 3.27439 2.8732 3.24881 2.71403C3.22458 2.52982 3.13348 2.36093 2.99284 2.23946C2.85219 2.11799 2.67181 2.05241 2.48596 2.05518C1.90694 2.05036 1.32792 2.05856 0.748898 2.05132C0.55567 2.03713 0.374845 1.95083 0.242315 1.80955C0.109786 1.66828 0.0352411 1.48236 0.0334792 1.28869C0.0317174 1.09503 0.102867 0.907784 0.232804 0.764123C0.362742 0.620463 0.541967 0.53089 0.734905 0.513187C1.36797 0.509329 2.00344 0.482801 2.63409 0.525246C3.81915 0.604829 4.68382 1.48507 4.80058 2.66677C4.84884 3.14523 4.91253 3.62177 4.96754 4.08576C5.24353 4.01969 5.50216 3.90972 5.7632 3.90489C6.19026 3.90494 6.61682 3.93395 7.03994 3.99171C8.26071 4.13641 9.48002 4.29123 10.6998 4.44365C11.9077 4.5951 13.1153 4.74719 14.3226 4.89993C14.5735 4.93128 14.8268 4.95347 15.0753 4.99929C16.1257 5.19222 16.9122 6.01699 16.9648 7.08437C17.014 8.07164 17.0112 9.0608 16.9566 10.0478C16.8948 11.1388 15.9095 12.0369 14.8133 12.0774C14.3308 12.0952 13.8482 12.0846 13.3657 12.0846H5.89155C5.94704 12.4247 5.97551 12.8081 6.07973 13.1728C6.16417 13.4665 6.42859 13.6068 6.73692 13.629C6.80303 13.6343 6.86961 13.629 6.9362 13.629H16.1474C16.5817 13.629 16.8915 13.8644 16.9677 14.244C17.0642 14.735 16.7154 15.1604 16.1918 15.1739C15.8849 15.1816 15.5781 15.1739 15.2524 15.1739C15.6089 16.0107 15.4729 16.7174 14.725 17.2392C14.4655 17.4158 14.1565 17.5051 13.8428 17.494C13.5291 17.483 13.2271 17.3723 12.9807 17.178C12.3066 16.6445 12.2053 15.9616 12.5397 15.1874Z" fill="white"/>
</svg>
