<svg width="19" height="22" viewBox="0 0 19 22" fill="none" xmlns="http://www.w3.org/2000/svg">
<g clip-path="url(#clip0_704_5736)">
<path d="M18.9995 9.36794C18.7053 10.1663 18.0311 10.566 17.3137 10.9065C16.1717 11.4483 14.9501 11.7288 13.7063 11.9323C12.0597 12.1987 10.3907 12.305 8.72304 12.2499C6.74508 12.1917 4.78709 11.9749 2.89229 11.3754C2.02621 11.1004 1.1866 10.7663 0.506838 10.1379C-0.172928 9.50956 -0.165029 8.74691 0.51102 8.1213C1.02166 7.64969 1.63219 7.34765 2.27618 7.10383C3.50469 6.63588 4.78523 6.38197 6.09226 6.2156C7.45886 6.03998 8.83742 5.97148 10.215 6.01073C12.2129 6.06893 14.1886 6.28205 16.102 6.88429C16.9509 7.15149 17.7714 7.48011 18.4498 8.08051C18.7102 8.30674 18.9007 8.60076 18.9995 8.92887V9.36794Z" fill="#3C3C3E"/>
<path d="M19.0006 13.7415C18.8291 14.3901 18.3427 14.7709 17.7967 15.0863C16.7661 15.6821 15.6306 15.9933 14.4718 16.2275C12.1853 16.689 9.87416 16.7747 7.55236 16.6244C5.95911 16.5213 4.38492 16.2871 2.85951 15.7962C2.1291 15.5611 1.41913 15.2792 0.801158 14.8168C0.418761 14.5317 0.0786451 14.204 0.02103 13.7072C-0.0156765 13.3863 0.00848471 13.0619 0.00616152 12.7387C0.00616152 12.5884 0.00616152 12.4381 0.00616152 12.2639C0.0614535 12.2896 0.0944429 12.301 0.123715 12.3189C1.34804 13.0568 2.70014 13.4519 4.08941 13.7388C6.18725 14.1719 8.31204 14.3085 10.4494 14.2407C12.5867 14.1728 14.6976 13.9166 16.7434 13.2663C17.4794 13.0325 18.1898 12.7378 18.8519 12.3386C18.8998 12.3145 18.9495 12.2941 19.0006 12.2777V13.7415Z" fill="#3C3C3E"/>
<path d="M18.9986 18.3368C18.7236 19.1669 18.0266 19.5638 17.2976 19.9103C16.1532 20.4548 14.9279 20.7353 13.6794 20.9346C11.6388 21.2637 9.58505 21.3325 7.52484 21.1867C5.73924 21.0602 3.97733 20.7962 2.29301 20.1628C1.64995 19.9208 1.03849 19.6229 0.527383 19.1504C0.18448 18.835 -0.0148502 18.4661 0.0014122 17.9922C0.0153514 17.5724 0.00420003 17.1516 0.00420003 16.7194C0.0303011 16.722 0.0559337 16.728 0.0804008 16.7373C1.16347 17.4023 2.35713 17.785 3.58796 18.0738C4.7316 18.3344 5.89356 18.5095 7.06392 18.5976C8.54294 18.7205 10.0293 18.7314 11.5101 18.6302C13.5006 18.4927 15.466 18.2067 17.3385 17.4922C17.9109 17.274 18.4462 16.9619 18.9986 16.6924V18.3368Z" fill="#3C3C3E"/>
</g>
<defs>
<clipPath id="clip0_704_5736">
<rect width="19.0001" height="21.2592" fill="white" transform="translate(0.000488281)"/>
</clipPath>
</defs>
</svg>
