<svg width="35" height="34" viewBox="0 0 35 34" fill="none" xmlns="http://www.w3.org/2000/svg">
<path d="M13.0052 21.6837L12.6651 26.1927C12.6651 26.1927 12.489 27.7616 13.8591 26.1914C15.2292 24.6211 16.5367 23.4086 16.5367 23.4086L13.0052 21.6837Z" fill="white"/>
<path d="M10.1377 20.1717L5.31541 18.5274C5.31541 18.5274 4.72976 18.2828 4.92229 17.7275C4.9602 17.614 5.03912 17.5157 5.26721 17.3468C6.33457 16.5666 25.0313 9.50075 25.0313 9.50075C25.3007 9.40094 25.5906 9.37839 25.8712 9.43538C25.9483 9.46117 26.0177 9.50744 26.0727 9.56973C26.1276 9.63201 26.1663 9.70815 26.1847 9.79072C26.2176 9.93629 26.2316 10.0859 26.2262 10.2354C26.2264 10.3672 26.209 10.4868 26.1975 10.677C26.0856 12.603 22.7043 26.9804 22.7043 26.9804C22.7043 26.9804 22.5004 27.8209 21.7688 27.8494C21.5895 27.8563 21.4107 27.8252 21.2431 27.758C21.0756 27.6907 20.9227 27.5887 20.7937 27.458C19.3581 26.1655 14.3961 22.6814 13.3006 21.916C13.2759 21.898 13.2551 21.8748 13.2395 21.8479C13.2238 21.821 13.2137 21.7909 13.2097 21.7597C13.195 21.68 13.2797 21.5787 13.2797 21.5787C13.2797 21.5787 21.9014 13.5309 22.1287 12.6751C22.1462 12.6106 22.0788 12.577 21.9881 12.6047C21.403 12.8262 11.486 19.4127 10.3894 20.1407C10.3092 20.1727 10.2227 20.1833 10.1377 20.1717Z" fill="white"/>
</svg>
