<svg width="36" height="34" viewBox="0 0 36 34" fill="none" xmlns="http://www.w3.org/2000/svg">
<path d="M14.5757 26.7337C22.8868 26.724 27.4124 20.043 27.4056 14.2521C27.4054 14.0638 27.4052 13.8756 27.405 13.6874C28.2874 13.0657 29.0489 12.2967 29.6539 11.4163C28.8303 11.77 27.9572 12.0033 27.0631 12.1087C28.0049 11.5594 28.7092 10.6969 29.0449 9.68149C28.1599 10.1936 27.1909 10.5544 26.1801 10.7482C25.5599 10.1087 24.756 9.66478 23.8727 9.47407C22.9895 9.28336 22.0675 9.35461 21.2264 9.67859C20.3853 10.0026 19.6639 10.5643 19.1557 11.291C18.6474 12.0177 18.3759 12.8758 18.3762 13.7541C18.3751 14.0906 18.4144 14.4261 18.4932 14.7538C16.6983 14.6685 14.942 14.2178 13.3383 13.4309C11.7345 12.644 10.3193 11.5385 9.18446 10.1861C8.60765 11.1513 8.43183 12.2937 8.69282 13.3803C8.95381 14.467 9.63196 15.416 10.589 16.0341C9.87204 16.0136 9.17056 15.8267 8.54336 15.4889C8.54207 15.5076 8.54209 15.5264 8.54343 15.5451C8.5449 16.5567 8.90684 17.5366 9.56785 18.3186C10.2289 19.1007 11.1482 19.6367 12.1701 19.8358C11.5059 20.0117 10.8091 20.0384 10.1327 19.9139C10.4238 20.783 10.9865 21.5425 11.7426 22.087C12.4988 22.6315 13.4108 22.9339 14.3522 22.9524C12.7542 24.1714 10.7806 24.834 8.74816 24.8338C8.38875 24.8348 8.0296 24.8148 7.67268 24.7739C9.73804 26.058 12.1405 26.7383 14.5933 26.7336" fill="white"/>
</svg>
