<svg width="13" height="15" viewBox="0 0 13 15" fill="none" xmlns="http://www.w3.org/2000/svg">
<g clip-path="url(#clip0_397_10689)">
<path d="M11.8106 15H1.18631C1.07 14.9709 0.955642 14.9343 0.843924 14.8906C0.272772 14.6297 -0.000976562 14.1734 -0.000976562 13.5461C-0.000976562 9.51536 -0.000976562 5.48477 -0.000976562 1.4543C-0.000976562 1.41016 -0.000977462 1.36602 0.00173677 1.32227C0.0405115 0.800781 0.280915 0.405078 0.738456 0.159375C0.876494 0.085156 1.03586 0.0519531 1.18553 0H7.45695C7.45695 1.36719 7.45876 2.73437 7.46238 4.10156C7.45951 4.24282 7.47252 4.38395 7.50115 4.52226C7.65315 5.175 8.19561 5.58711 8.89705 5.58828C10.203 5.5901 11.5084 5.5901 12.8133 5.58828H12.994V13.0609C12.994 13.2609 12.9986 13.4613 12.9913 13.6613C12.9822 13.9462 12.8861 14.2213 12.7161 14.449C12.5461 14.6768 12.3104 14.8462 12.0413 14.934C11.9703 14.9594 11.8889 14.9781 11.8106 15Z" fill="white"/>
<path d="M12.6929 4.70957H8.94302C8.5165 4.70957 8.33154 4.52441 8.33154 4.09668V0.307617L12.6929 4.70957Z" fill="white"/>
</g>
<defs>
<clipPath id="clip0_397_10689">
<rect width="13" height="15" fill="white"/>
</clipPath>
</defs>
</svg>
