<svg width="195" height="53" viewBox="0 0 195 53" fill="none" xmlns="http://www.w3.org/2000/svg">
<g clip-path="url(#clip0_704_5850)">
<path d="M84.7055 41.7635L82.1231 46.2113L79.5406 41.7635V41.6978L82.1231 37.25L84.7055 41.6978V41.7635ZM88.6417 41.6978C88.6534 41.057 88.5042 40.4234 88.2076 39.8543L83.1899 31.2223C82.6013 30.2054 81.6375 30.2054 81.0562 31.2223L76.0385 39.8543C75.7518 40.4218 75.6025 41.0481 75.6025 41.6832C75.6025 42.3182 75.7518 42.9445 76.0385 43.512L81.0562 52.1515C81.6375 53.161 82.6013 53.161 83.1899 52.1515L88.2076 43.512C88.5042 42.9456 88.6534 42.3141 88.6417 41.6756V41.6978Z" fill="#CEB575"/>
<path d="M84.7057 11.2365V11.2733L82.1233 15.7136L79.5408 11.2658V11.2072L82.1233 6.75939L84.7057 11.2001V11.2365ZM88.6419 11.2365C88.6527 10.5958 88.5035 9.96239 88.2078 9.393L83.1901 0.760987C82.6015 -0.248537 81.6377 -0.255852 81.0564 0.760987L76.0387 9.393C75.7532 9.96084 75.6045 10.587 75.6045 11.2219C75.6045 11.8567 75.7532 12.4829 76.0387 13.0507L81.0564 21.6831C81.6377 22.6926 82.6015 22.6926 83.1901 21.6831L88.2078 13.0507C88.5035 12.4813 88.6527 11.8479 88.6419 11.2072V11.2365Z" fill="#CEB575"/>
<path d="M99.3171 16.6279L96.7347 21.0757H96.6758H91.5257L94.1081 16.6279H94.167H99.3171ZM105.328 13.7018C105.328 13.0946 104.843 12.6777 104.004 12.6777H93.9757C93.3333 12.7146 92.7086 12.9005 92.1516 13.2206C91.5946 13.5407 91.1206 13.9862 90.7678 14.5212L85.7575 23.1532C85.6038 23.4 85.5176 23.6825 85.5073 23.9726C85.5073 24.5798 85.9856 24.9967 86.8243 24.9967H96.8524C97.4951 24.9615 98.1205 24.7762 98.6778 24.4559C99.2351 24.1356 99.7087 23.6894 100.06 23.1532L105.071 14.5212C105.229 14.2763 105.318 13.993 105.328 13.7018Z" fill="#CEB575"/>
<path d="M72.7498 31.8877L70.1674 36.3356L70.1159 36.372H64.9657L67.5482 31.9245L67.607 31.8877H72.7572H72.7498ZM78.7682 28.9616C78.7682 28.3617 78.2826 27.9446 77.4438 27.9446H67.3863C66.7458 27.9813 66.1227 28.1666 65.567 28.4854C65.0113 28.8043 64.5383 29.2479 64.1858 29.781L59.1681 38.4205C59.0144 38.6673 58.9282 38.9498 58.918 39.2399C58.918 39.8398 59.4035 40.2565 60.2349 40.2565H70.263C70.9048 40.221 71.5294 40.0364 72.0864 39.7175C72.6435 39.3986 73.1177 38.9545 73.4709 38.4205L78.4886 29.781C78.6423 29.5342 78.7285 29.2517 78.7388 28.9616H78.7682Z" fill="#CEB575"/>
<path d="M72.7498 21.105H67.5997H67.5408L64.9584 16.6572H70.1085H70.1674L72.7498 21.105ZM78.7608 24.0312C78.7496 23.7435 78.6634 23.4635 78.5106 23.2189L73.4856 14.5869C73.1328 14.0519 72.6588 13.6065 72.1018 13.2863C71.5448 12.9662 70.9201 12.7803 70.2777 12.7434H60.2423C59.4109 12.7434 58.9253 13.1676 58.9253 13.7675C58.9356 14.0576 59.0218 14.3401 59.1754 14.5869L64.1932 23.2189C64.5431 23.755 65.0153 24.2013 65.5715 24.5216C66.1276 24.842 66.7519 25.0273 67.3936 25.0624H77.4218C78.2605 25.0624 78.7461 24.6455 78.7461 24.0383L78.7608 24.0312Z" fill="#CEB575"/>
<path d="M99.3171 36.3719H94.167L94.1081 36.3355L91.5257 31.8877H96.6758L96.7347 31.9245L99.3171 36.3719ZM105.328 39.2981C105.318 39.0068 105.229 38.7239 105.071 38.479L100.06 29.8395C99.707 29.3055 99.2329 28.8611 98.6758 28.5422C98.1187 28.2233 97.4942 28.0387 96.8524 28.0032H86.8243C85.9856 28.0032 85.5073 28.4204 85.5073 29.0276C85.5185 29.3153 85.6047 29.595 85.7575 29.8395L90.7678 38.479C91.121 39.0131 91.5952 39.4571 92.1523 39.776C92.7094 40.0949 93.3339 40.2795 93.9757 40.315H104.004C104.843 40.315 105.328 39.8908 105.328 39.291V39.2981Z" fill="#CEB575"/>
<path d="M4.73815 39.781C3.00876 39.3159 1.39533 38.499 0 37.3817L1.78785 33.3947C3.04493 34.3576 4.45827 35.0998 5.96684 35.5893C7.56483 36.1486 9.24634 36.4356 10.9404 36.438C13.0005 36.438 14.5406 36.111 15.5609 35.4575C16.0237 35.1961 16.4085 34.8174 16.676 34.3598C16.9436 33.9023 17.0843 33.3828 17.0838 32.8535C17.0949 32.4856 17.0241 32.1196 16.8766 31.782C16.729 31.4443 16.5084 31.1431 16.2304 30.9C15.6046 30.3539 14.8701 29.9454 14.0747 29.7006C13.1991 29.408 12.0146 29.0787 10.5063 28.7129C8.75977 28.3358 7.03948 27.8471 5.35617 27.2498C4.0577 26.751 2.90109 25.945 1.9865 24.9016C0.998917 23.6844 0.498454 22.1474 0.581239 20.5856C0.564634 19.1042 1.00079 17.6524 1.83199 16.4229C2.76856 15.0909 4.07494 14.0592 5.59161 13.4531C7.54746 12.6637 9.64712 12.2873 11.7571 12.3483C13.4423 12.3488 15.1207 12.5601 16.7528 12.9773C18.2598 13.342 19.6948 13.9553 20.998 14.7915L19.372 18.7714C18.1792 18.0722 16.9008 17.5285 15.5682 17.1544C14.3166 16.7987 13.022 16.6141 11.7203 16.6057C9.68232 16.6057 8.17406 16.9498 7.18081 17.6302C6.72129 17.9201 6.34454 18.3227 6.08683 18.7993C5.82912 19.2759 5.69913 19.8103 5.70933 20.3513C5.69851 20.716 5.76948 21.0785 5.9171 21.4125C6.06472 21.7466 6.28528 22.0439 6.56278 22.2827C7.19369 22.8164 7.9271 23.217 8.7185 23.4603C9.59157 23.753 10.781 24.0822 12.2868 24.448C14.0112 24.8176 15.7076 25.3064 17.3634 25.9111C18.6676 26.4109 19.8312 27.2165 20.7552 28.2593C21.7415 29.4515 22.2429 30.968 22.1604 32.5096C22.1726 33.9835 21.7366 35.4268 20.9097 36.6502C19.9584 37.967 18.6454 38.983 17.128 39.5763C15.1642 40.3649 13.0575 40.7408 10.9404 40.6808C8.83944 40.6902 6.74885 40.3869 4.73815 39.781Z" fill="#161616"/>
<path d="M48.5364 13.8553C50.2142 14.5551 51.6438 15.7371 52.6419 17.2497C53.5762 18.8363 54.0687 20.6416 54.0687 22.4802C54.0687 24.3187 53.5762 26.124 52.6419 27.7106C51.6491 29.2314 50.2184 30.4194 48.5364 31.1197C46.5516 31.9493 44.4131 32.3532 42.2606 32.3049H35.9627V40.2639H30.8125V12.6776H42.2311C44.3926 12.6272 46.5407 13.0284 48.5364 13.8553ZM47.1312 26.5476C47.6827 26.0231 48.1216 25.3929 48.4215 24.6951C48.7214 23.9974 48.876 23.2461 48.876 22.4873C48.876 21.7285 48.7214 20.9776 48.4215 20.2798C48.1216 19.582 47.6827 18.9519 47.1312 18.4274C45.9687 17.4837 44.2692 17.0083 42.0178 17.0083H35.9627V27.9814H41.9884C44.2691 27.996 45.9687 27.5279 47.1312 26.5769V26.5476Z" fill="#161616"/>
<path d="M130.454 40.2934L124.789 32.2465C124.553 32.2465 124.193 32.2465 123.714 32.2465H117.453V40.2934H112.303V12.7071H123.714C125.869 12.6598 128.009 13.0609 129.998 13.8848C131.676 14.5846 133.105 15.7666 134.103 17.2792C135.053 18.8893 135.546 20.7254 135.53 22.5922C135.513 24.4589 134.987 26.2862 134.007 27.8791C132.924 29.4273 131.381 30.5991 129.593 31.2296L135.979 40.2934H130.454ZM128.592 18.4569C127.43 17.5108 125.726 17.0378 123.479 17.0378H117.453V28.0109H123.516C125.757 28.0109 127.462 27.5232 128.629 26.5478C129.18 26.0208 129.619 25.3885 129.919 24.6889C130.218 23.9894 130.372 23.2371 130.372 22.4768C130.372 21.7165 130.218 20.9639 129.919 20.2643C129.619 19.5648 129.18 18.9328 128.629 18.4058L128.592 18.4569Z" fill="#161616"/>
<path d="M165.659 35.9991V40.2933H144.852V12.707H165.107V17.0008H150.002V24.1773H163.407V28.3911H150.002V35.9991H165.659Z" fill="#161616"/>
<path d="M177.622 39.7518C175.897 39.2854 174.289 38.4685 172.898 37.3525L174.679 33.3801C175.934 34.3414 177.345 35.0835 178.851 35.5747C180.445 36.1298 182.121 36.4167 183.809 36.4234C185.87 36.4234 187.4 36.094 188.415 35.4429C188.877 35.1827 189.262 34.8054 189.529 34.3492C189.797 33.8929 189.938 33.3742 189.938 32.8461C189.949 32.4789 189.878 32.114 189.732 31.7766C189.586 31.4393 189.368 31.1377 189.092 30.8929C188.464 30.3519 187.73 29.946 186.936 29.7006C186.068 29.408 184.876 29.0787 183.375 28.713C181.629 28.3367 179.908 27.848 178.225 27.2499C176.928 26.7563 175.773 25.9522 174.863 24.9088C173.875 23.6974 173.374 22.1648 173.458 20.6075C173.446 19.1291 173.882 17.6812 174.708 16.4522C175.643 15.1228 176.947 14.0934 178.461 13.4896C180.411 12.7001 182.506 12.324 184.611 12.3851C186.292 12.3852 187.965 12.5965 189.592 13.0142C191.096 13.3779 192.528 13.9884 193.83 14.8209L192.204 18.7933C191.014 18.0951 189.738 17.554 188.408 17.1837C187.161 16.8281 185.871 16.6435 184.575 16.6351C182.544 16.6351 181.033 16.9741 180.042 17.652C179.585 17.9423 179.21 18.344 178.952 18.819C178.695 19.2939 178.563 19.8264 178.571 20.366C178.559 20.7302 178.628 21.0928 178.775 21.4269C178.921 21.761 179.141 22.0582 179.417 22.2974C180.048 22.8311 180.781 23.2317 181.573 23.475C182.451 23.7579 183.638 24.0849 185.134 24.4555C186.853 24.8248 188.545 25.3137 190.196 25.9186C191.496 26.4177 192.657 27.2204 193.58 28.2593C194.563 29.4504 195.061 30.9642 194.978 32.5025C194.994 33.9736 194.56 35.4148 193.735 36.6356C192.785 37.9507 191.474 38.9664 189.96 39.5617C188 40.3432 185.899 40.7167 183.787 40.6591C181.699 40.6599 179.621 40.354 177.622 39.7518Z" fill="#161616"/>
</g>
<defs>
<clipPath id="clip0_704_5850">
<rect width="195" height="53" fill="white"/>
</clipPath>
</defs>
</svg>
