
        <svg xmlns="http://www.w3.org/2000/svg" xmlns:xlink="http://www.w3.org/1999/xlink" version="1.1" width="3162.3083859332733" height="952.2274662820303" viewBox="0 0 3162.3083859332733 952.2274662820303">
			
			<g transform="scale(8.115419296663662) translate(10, 10)">
				<defs id="SvgjsDefs4135"><linearGradient id="SvgjsLinearGradient4140"><stop id="SvgjsStop4141" stop-color="#8f5e25" offset="0"/><stop id="SvgjsStop4142" stop-color="#fbf4a1" offset="0.5"/><stop id="SvgjsStop4143" stop-color="#8f5e25" offset="1"/></linearGradient></defs><g id="SvgjsG4136" featureKey="symbolFeature-0" transform="matrix(1.0730049403809012,0,0,1.0730049403809012,-11.983992741171354,-4.982945973572539)" fill="#000"><path xmlns="http://www.w3.org/2000/svg" fill-rule="evenodd" clip-rule="evenodd" d="M54.406,19.857l-4.35-11.851l-8.95,16.4c-0.034,0.133-0.134,0.25-0.3,0.35  l-17.9,13.15l-9.55,12.25l28.399,42.7l19.5-17.601l4.801-25.55c0.033-0.333,0.216-0.583,0.55-0.75l17.899-8.2l2.101-10.1  l-16.101-0.4c-0.333-0.066-0.566-0.183-0.699-0.35l-6.851-7.5l-7.899-1.95C54.723,20.391,54.506,20.19,54.406,19.857z   M64.206,20.807l6.8,7.45l16.851,0.4c0.333,0.066,0.583,0.2,0.75,0.399c0.2,0.233,0.267,0.518,0.2,0.851l-2.5,11.7  c-0.067,0.3-0.233,0.533-0.5,0.699l-17.9,8.25l-4.8,25.4c-0.066,0.233-0.167,0.4-0.3,0.5l-20.551,18.6  c-0.199,0.2-0.434,0.301-0.699,0.301l-0.101-0.051c-0.267,0-0.483-0.133-0.649-0.399l-29.45-44.2c-0.267-0.434-0.25-0.833,0.05-1.2  l10-12.899l0.2-0.2l17.899-13.101l9.851-18.149c0.233-0.4,0.55-0.566,0.95-0.5c0.466,0,0.75,0.217,0.85,0.649l4.9,13.4l7.649,1.8  C63.939,20.574,64.106,20.674,64.206,20.807z M50.256,12.707l-3.5,14.75l6,0.65c0.267,0.033,0.483,0.149,0.65,0.35  c0.2,0.233,0.267,0.483,0.2,0.75c-0.066,0.6-0.384,0.9-0.95,0.9l-0.15-0.051l-7.1-0.75c-0.267,0-0.5-0.133-0.7-0.399  c-0.166-0.267-0.217-0.533-0.149-0.8l3.75-15.851c0.166-0.6,0.566-0.85,1.199-0.75c0.267,0.067,0.483,0.217,0.65,0.45  C50.29,12.19,50.323,12.44,50.256,12.707z M60.906,45.157l21.5-8.15c0.6-0.233,1.017-0.05,1.25,0.55c0.1,0.233,0.1,0.483,0,0.75  c-0.1,0.233-0.283,0.4-0.55,0.5l-21.351,8.15l-11.3,8.2l-6.149,20.899c-0.134,0.434-0.434,0.65-0.9,0.65h-0.3  c-0.267-0.066-0.467-0.217-0.601-0.45c-0.133-0.233-0.166-0.483-0.1-0.75l6.2-21.25c0.133-0.267,0.267-0.45,0.399-0.55l11.7-8.45  L60.906,45.157z"/></g><g id="SvgjsG4137" featureKey="nameFeature-0" transform="matrix(0.9180208089946316,0,0,0.9180208089946316,101.16395838201073,23.92738564102047)" fill="#000"><path d="M2.52 40 c-0.28 0 -0.52 -0.24 -0.52 -0.52 l0 -23.96 c0 -0.28 0.24 -0.52 0.52 -0.52 l5.2 0 c0.28 0 0.52 0.24 0.52 0.52 l0 18.72 l9 0 c0.28 0 0.52 0.24 0.52 0.52 l0 4.72 c0 0.28 -0.24 0.52 -0.52 0.52 l-14.72 0 z M32.2 40 c-2.16 0 -3.72 -0.44 -5.36 -1.32 c-1.6 -0.88 -2.88 -2.12 -3.76 -3.76 c-0.88 -1.6 -1.32 -3.52 -1.32 -5.72 l0 -14.08 c0 -0.28 0.24 -0.48 0.52 -0.48 l5.2 0 c0.28 0 0.48 0.2 0.48 0.48 l0 14.08 c0 1.6 0.44 2.84 1.28 3.72 s1.6 1.32 3 1.32 s2.12 -0.44 2.92 -1.28 c0.8 -0.88 1.2 -2.16 1.2 -3.76 l0 -14.08 c0 -0.28 0.24 -0.48 0.52 -0.48 l5.2 0 c0.28 0 0.52 0.2 0.52 0.48 l0 14.08 c0 2.2 -0.44 4.12 -1.32 5.72 c-0.84 1.64 -2.12 2.88 -3.72 3.76 s-3.2 1.32 -5.36 1.32 z M47.08 40 c-0.28 0 -0.48 -0.24 -0.48 -0.52 l0 -23.96 c0 -0.28 0.2 -0.52 0.48 -0.52 l9.8 0 c3.04 0 5.44 0.76 7.12 2.32 c2.48 2.24 3.32 6.48 2.12 9.6 c-0.44 1.12 -1.2 2.16 -2.16 2.92 c-3.24 2.52 -7.28 2.28 -11.16 2.28 l0 7.36 c0 0.28 -0.24 0.52 -0.52 0.52 l-5.2 0 z M52.8 26.560000000000002 c0 0 5.04 0.56 6.8 -0.6 c0.68 -0.44 1.08 -1.52 1.08 -2.32 c-0.04 -0.88 -0.48 -1.8 -1.2 -2.36 c-0.76 -0.64 -2.64 -0.84 -3.6 -0.84 l-3.08 0.08 l0 6.04 z M68.44 40 c-0.16 0 -0.32 -0.08 -0.4 -0.24 c-0.12 -0.12 -0.12 -0.32 -0.08 -0.48 l9.32 -23.96 c0.08 -0.2 0.28 -0.32 0.48 -0.32 l5.36 0 c0.2 0 0.4 0.12 0.48 0.32 l9.16 23.96 c0.04 0.16 0.04 0.32 -0.08 0.48 c-0.08 0.16 -0.24 0.24 -0.4 0.24 l-5.56 0 c-0.2 0 -0.4 -0.12 -0.48 -0.32 l-1.48 -3.68 l-9 0.04 l-1.48 3.64 c-0.08 0.2 -0.28 0.32 -0.48 0.32 l-5.36 0 z M77.4 31 l5.76 0 l-2.88 -8.48 z M107.28 40 c-0.2 0 -0.36 -0.12 -0.44 -0.28 s-0.08 -0.36 0 -0.52 l6.72 -11.96 l-6.16 -11.44 c-0.08 -0.16 -0.08 -0.36 0 -0.52 s0.24 -0.28 0.44 -0.28 l5.64 0 c0.2 0 0.36 0.08 0.44 0.24 l3.36 6.32 l3.36 -6.32 c0.08 -0.16 0.24 -0.24 0.44 -0.24 l5.76 0 c0.16 0 0.36 0.12 0.44 0.28 s0.08 0.36 -0.04 0.52 l-6.08 11.2 l6.76 12.2 c0.08 0.16 0.12 0.36 0 0.52 c-0.08 0.16 -0.24 0.28 -0.44 0.28 l-5.8 0 c-0.2 0 -0.36 -0.08 -0.44 -0.24 l-3.96 -7 l-3.88 7 c-0.12 0.16 -0.28 0.24 -0.44 0.24 l-5.68 0 z M155.4 40 c-2.36 0 -4.52 -0.56 -6.44 -1.68 c-1.92 -1.16 -3.44 -2.72 -4.52 -4.68 s-1.64 -4.16 -1.64 -6.6 c0 -2.36 0.56 -4.56 1.68 -6.52 c1.12 -1.92 2.68 -3.48 4.6 -4.6 c1.96 -1.12 4.16 -1.68 6.48 -1.68 c1.76 0 3.48 0.4 5.16 1.12 c1.68 0.76 3.12 1.76 4.32 3.04 c0.16 0.2 0.16 0.48 0 0.68 l-3.8 3.12 c-0.12 0.12 -0.24 0.2 -0.4 0.2 s-0.32 -0.08 -0.4 -0.2 c-2.04 -2.48 -5.32 -3 -8.08 -1.28 c-2.4 1.48 -3.28 4.2 -3.16 6.92 c0.12 2.76 2.12 5.12 4.76 5.92 c2.4 0.72 4.76 0.16 6.48 -1.68 c0.12 -0.08 0.24 -0.16 0.4 -0.12 c0.16 0 0.28 0.04 0.36 0.16 l3.88 2.72 c0.16 0.2 0.16 0.48 0 0.68 c-1.28 1.36 -2.8 2.48 -4.48 3.28 c-1.72 0.8 -3.48 1.2 -5.2 1.2 z M167.32000000000002 40 c-0.16 0 -0.32 -0.08 -0.4 -0.24 c-0.12 -0.12 -0.12 -0.32 -0.08 -0.48 l9.32 -23.96 c0.08 -0.2 0.28 -0.32 0.48 -0.32 l5.36 0 c0.2 0 0.4 0.12 0.48 0.32 l9.16 23.96 c0.04 0.16 0.04 0.32 -0.08 0.48 c-0.08 0.16 -0.24 0.24 -0.4 0.24 l-5.56 0 c-0.2 0 -0.4 -0.12 -0.48 -0.32 l-1.48 -3.68 l-9 0.04 l-1.48 3.64 c-0.08 0.2 -0.28 0.32 -0.48 0.32 l-5.36 0 z M176.28 31 l5.76 0 l-2.88 -8.48 z M195.36 40 c-0.28 0 -0.48 -0.24 -0.48 -0.52 l0 -23.96 c0 -0.28 0.2 -0.52 0.48 -0.52 l9.8 0 c3.04 0 5.44 0.76 7.12 2.32 c2.48 2.24 3.32 6.48 2.12 9.6 c-0.44 1.12 -1.2 2.16 -2.16 2.92 c-3.24 2.52 -7.28 2.28 -11.16 2.28 l0 7.36 c0 0.28 -0.24 0.52 -0.52 0.52 l-5.2 0 z M201.08 26.560000000000002 c0 0 5.04 0.56 6.8 -0.6 c0.68 -0.44 1.08 -1.52 1.08 -2.32 c-0.04 -0.88 -0.48 -1.8 -1.2 -2.36 c-0.76 -0.64 -2.64 -0.84 -3.6 -0.84 l-3.08 0.08 l0 6.04 z M219.52000000000004 40 c-0.28 0 -0.52 -0.24 -0.52 -0.52 l0 -23.96 c0 -0.28 0.24 -0.52 0.52 -0.52 l5.2 0 c0.28 0 0.52 0.24 0.52 0.52 l0 23.96 c0 0.28 -0.24 0.52 -0.52 0.52 l-5.2 0 z M235.72000000000003 40 c-0.28 0 -0.48 -0.24 -0.48 -0.52 l0 -18.88 l-5.48 0 c-0.28 0 -0.52 -0.2 -0.52 -0.48 l0 -4.6 c0 -0.28 0.24 -0.52 0.52 -0.52 l17.16 0 c0.32 0 0.52 0.24 0.52 0.52 l0 4.6 c0 0.28 -0.2 0.48 -0.52 0.48 l-5.48 0 l0 18.88 c0 0.28 -0.24 0.52 -0.52 0.52 l-5.2 0 z M249.16000000000003 40 c-0.16 0 -0.32 -0.08 -0.4 -0.24 c-0.12 -0.12 -0.12 -0.32 -0.08 -0.48 l9.32 -23.96 c0.08 -0.2 0.28 -0.32 0.48 -0.32 l5.36 0 c0.2 0 0.4 0.12 0.48 0.32 l9.16 23.96 c0.04 0.16 0.04 0.32 -0.08 0.48 c-0.08 0.16 -0.24 0.24 -0.4 0.24 l-5.56 0 c-0.2 0 -0.4 -0.12 -0.48 -0.32 l-1.48 -3.68 l-9 0.04 l-1.48 3.64 c-0.08 0.2 -0.28 0.32 -0.48 0.32 l-5.36 0 z M258.12 31 l5.76 0 l-2.88 -8.48 z M277.24 40 c-0.28 0 -0.52 -0.24 -0.52 -0.52 l0 -23.96 c0 -0.28 0.24 -0.52 0.52 -0.52 l5.2 0 c0.28 0 0.52 0.24 0.52 0.52 l0 18.72 l9 0 c0.28 0 0.52 0.24 0.52 0.52 l0 4.72 c0 0.28 -0.24 0.52 -0.52 0.52 l-14.72 0 z"/></g>
			</g>
		</svg>
	