<svg width="141" height="34" viewBox="0 0 141 34" fill="none" xmlns="http://www.w3.org/2000/svg">
<g clip-path="url(#clip0_716_5503)">
<path d="M54.2026 12.406C54.2026 11.5867 54.0271 10.9283 53.6614 10.4309C53.2517 9.90423 52.7251 9.49459 52.1106 9.23125C51.3352 8.89476 50.5306 8.63143 49.7114 8.45587C48.9799 8.28031 48.3508 8.10475 47.8534 7.95845C47.4291 7.85604 47.0488 7.63659 46.7416 7.34399C46.4929 7.06602 46.3612 6.70027 46.3758 6.31989C46.3466 5.77859 46.5953 5.26654 47.0195 4.95931C47.4584 4.62282 48.1167 4.46189 49.0091 4.46189C49.4041 4.46189 49.8138 4.50578 50.2088 4.60819C50.5745 4.69597 50.9256 4.81301 51.2767 4.94468C51.5693 5.06172 51.8619 5.20802 52.1399 5.38358C52.3447 5.50062 52.5202 5.66155 52.6812 5.83711L53.6467 4.08151C53.2517 3.77428 52.8275 3.51094 52.3739 3.30612C51.8765 3.07205 51.3645 2.88186 50.8232 2.76482C50.2527 2.63315 49.6675 2.56 49.0823 2.56C48.2338 2.54537 47.3706 2.7063 46.5806 3.02816C45.8638 3.30612 45.2493 3.78891 44.8104 4.418C44.3862 5.03246 44.1667 5.77859 44.1667 6.67101C44.1667 7.38788 44.313 7.95845 44.6056 8.39735C44.9421 8.88014 45.4103 9.26051 45.9369 9.49459C46.6538 9.83108 47.3999 10.0944 48.1606 10.27C48.936 10.4602 49.609 10.6504 50.1502 10.8405C50.6184 10.9868 51.0573 11.2209 51.423 11.5428C51.7302 11.8208 51.8912 12.2158 51.8765 12.6108C51.8912 13.1374 51.6425 13.6202 51.2036 13.9128C50.7501 14.2054 50.1064 14.3517 49.2432 14.3517C48.7312 14.3517 48.2338 14.2932 47.751 14.1762C46.8878 13.9714 46.054 13.6202 45.2932 13.1667C45.0299 13.0204 44.7958 12.8302 44.591 12.6254L43.5962 14.4541C44.1229 14.8492 44.6788 15.1856 45.2786 15.449C45.893 15.727 46.5221 15.9318 47.1804 16.0781C47.8388 16.2244 48.5117 16.2975 49.1993 16.2975C49.843 16.2975 50.5014 16.2244 51.1304 16.0634C51.701 15.9318 52.2277 15.6977 52.7104 15.3758C53.1639 15.0686 53.5297 14.659 53.793 14.1762C54.0856 13.6056 54.2173 13.0058 54.2026 12.406Z" fill="black"/>
<path d="M66.111 11.236C66.111 10.5777 65.994 9.91934 65.7599 9.30488C65.5258 8.70505 65.204 8.14911 64.7797 7.66632C64.3701 7.19817 63.858 6.81779 63.2875 6.53982C62.7023 6.26185 62.044 6.13018 61.4003 6.13018C60.6834 6.11555 59.9812 6.30574 59.3521 6.65686C58.7523 7.00798 58.2403 7.49077 57.8599 8.07596V6.27648H56.002V20.2335H58.094V14.3376C58.4451 14.9374 58.9425 15.4348 59.5423 15.8006C60.186 16.181 60.9175 16.3858 61.6636 16.3711C62.4829 16.3858 63.2875 16.1517 63.9605 15.6835C64.6334 15.2154 65.1747 14.5717 65.5258 13.8255C65.9355 13.0209 66.1256 12.1285 66.111 11.236ZM63.7556 12.4796C63.624 12.86 63.4192 13.2257 63.1558 13.5476C62.9071 13.8548 62.5853 14.1181 62.2342 14.2937C61.8538 14.4839 61.4295 14.5863 61.0053 14.5717C60.5956 14.5717 60.2006 14.4693 59.8349 14.2791C59.4545 14.0889 59.1181 13.8255 58.8255 13.5037C58.5329 13.1818 58.2988 12.8161 58.1232 12.4211V9.86082C58.1818 9.56822 58.3134 9.30488 58.5036 9.08543C58.7084 8.85135 58.9425 8.64653 59.1912 8.47097C59.4545 8.29541 59.7325 8.16374 60.0251 8.06133C60.3031 7.95892 60.581 7.91503 60.8736 7.91503C61.2979 7.91503 61.7075 8.00281 62.0879 8.17837C62.4536 8.35393 62.7901 8.58801 63.0827 8.89524C63.3606 9.20247 63.5947 9.55359 63.741 9.93397C63.9019 10.3436 63.9751 10.7825 63.9751 11.2214C63.9605 11.6603 63.8873 12.0846 63.7556 12.4796Z" fill="black"/>
<path d="M74.4062 14.6153L74.4647 15.1858C74.5086 15.4784 74.6549 15.7564 74.8743 15.9466C75.0938 16.166 75.4449 16.2685 75.8984 16.2831C76.0008 16.2685 76.1178 16.2538 76.2641 16.2392C76.4397 16.2246 76.6006 16.1953 76.7762 16.166V14.4982C76.6153 14.4982 76.4543 14.4397 76.3373 14.3227C76.2349 14.1764 76.191 13.9862 76.2056 13.8106V10.1531C76.2056 8.8657 75.8253 7.88549 75.0645 7.18326C74.3038 6.48102 73.2504 6.14453 71.9191 6.14453C71.2023 6.14453 70.4854 6.26157 69.7978 6.48102C69.0956 6.7151 68.4373 7.05159 67.8375 7.46123L68.5251 8.89496C69.0225 8.54384 69.5491 8.26587 70.1051 8.03179C70.6171 7.84161 71.1438 7.7392 71.6851 7.7392C72.4751 7.7392 73.0749 7.94401 73.4991 8.32439C73.9234 8.70477 74.1282 9.24608 74.1282 9.93369V10.5481C73.7186 10.4165 73.309 10.3141 72.8847 10.2555C72.4312 10.1824 71.9777 10.1531 71.5241 10.1531C70.778 10.1385 70.0173 10.2702 69.3151 10.5335C68.7299 10.753 68.2032 11.1333 67.8082 11.6308C67.4425 12.0989 67.2523 12.6841 67.2669 13.2839C67.2669 13.8399 67.4132 14.3812 67.7058 14.8493C67.9984 15.3175 68.4226 15.6979 68.9201 15.9612C69.476 16.2392 70.0758 16.3709 70.6902 16.3709C71.3925 16.3709 72.0947 16.2099 72.7384 15.9173C73.4114 15.6247 73.9819 15.1858 74.4062 14.6153ZM73.6308 13.913C73.3382 14.191 73.0017 14.4104 72.6214 14.5567C72.1971 14.7323 71.7436 14.8347 71.2901 14.8347C70.9097 14.8493 70.5293 14.7616 70.1928 14.586C69.9149 14.4397 69.6808 14.2203 69.5052 13.9423C69.3443 13.6936 69.2712 13.4156 69.2712 13.123C69.2712 12.611 69.5345 12.1282 69.988 11.8795C70.4708 11.5722 71.0852 11.4259 71.8606 11.4259C72.241 11.4259 72.6214 11.4552 73.0017 11.5284C73.3821 11.6015 73.7625 11.7039 74.1282 11.8356V12.9475C74.1282 13.1084 74.0697 13.2693 73.9819 13.401C73.8795 13.5765 73.7625 13.7521 73.6308 13.913Z" fill="black"/>
<path d="M83.8129 6.11523C83.1692 6.15912 82.5693 6.3932 82.0573 6.78821C81.4867 7.22711 81.0186 7.78305 80.6821 8.41214V6.27616H78.751V16.1806H80.843V10.08C81.1064 9.43623 81.5745 8.90955 82.189 8.57307C82.8473 8.20732 83.5788 8.01713 84.3395 8.01713V6.12986C84.281 6.11523 84.2079 6.11523 84.1347 6.11523H83.8129Z" fill="black"/>
<path d="M87.9968 13.1669L89.6353 11.6307L92.8392 16.1806H95.0922L91.0105 10.4311L94.8581 6.27617H92.6051L87.9968 11.0602V2.25293H85.8901V16.1806H87.9968V13.1669Z" fill="black"/>
<path d="M105.991 9.17289C106.328 8.51454 106.503 7.78304 106.503 7.03692C106.503 6.49561 106.401 5.9543 106.196 5.44225C105.991 4.91557 105.699 4.43278 105.318 4.02315C104.938 3.61351 104.485 3.26239 103.987 3.01368C103.46 2.75034 102.89 2.6333 102.305 2.6333H96.6284V16.1806H98.779V11.4698H102.407C103.182 11.4844 103.929 11.265 104.572 10.8261C105.172 10.4018 105.655 9.83124 105.991 9.17289ZM104.06 8.32435C103.899 8.6901 103.651 8.99733 103.329 9.23141C103.022 9.45086 102.656 9.5679 102.275 9.5679H98.7643V4.53519H102.188C102.553 4.53519 102.919 4.65223 103.226 4.85705C103.563 5.0765 103.826 5.38373 104.016 5.73485C104.221 6.12986 104.338 6.58339 104.324 7.03692C104.338 7.47581 104.236 7.91471 104.06 8.32435Z" fill="black"/>
<path d="M116.247 14.8347C116.7 14.3665 117.052 13.8106 117.286 13.1962C117.534 12.5817 117.651 11.9233 117.651 11.265C117.651 10.592 117.534 9.91904 117.286 9.28996C116.803 8.06104 115.837 7.0662 114.623 6.5249C113.95 6.24693 113.233 6.10063 112.516 6.11526C111.799 6.10063 111.068 6.24693 110.41 6.5249C109.795 6.78824 109.239 7.16861 108.786 7.6514C108.332 8.11956 107.981 8.6755 107.747 9.28996C107.498 9.91904 107.381 10.592 107.381 11.265C107.381 11.9233 107.498 12.5817 107.747 13.1962C107.981 13.796 108.332 14.3519 108.786 14.8347C109.239 15.3175 109.795 15.6979 110.395 15.9612C111.068 16.2392 111.785 16.3855 112.516 16.3708C113.233 16.3855 113.95 16.2392 114.623 15.9612C115.237 15.6979 115.793 15.3175 116.247 14.8347ZM115.091 12.9474C114.842 13.4302 114.477 13.8545 114.023 14.1471C113.57 14.4397 113.043 14.586 112.502 14.586C111.975 14.586 111.448 14.4397 111.009 14.1471C110.556 13.8545 110.19 13.4449 109.942 12.9621C109.664 12.4354 109.532 11.8502 109.547 11.2504C109.532 10.6652 109.678 10.0946 109.942 9.56793C110.19 9.08514 110.556 8.6755 111.009 8.36827C111.448 8.06104 111.975 7.91474 112.516 7.91474C113.043 7.91474 113.57 8.06104 114.009 8.35364C114.462 8.64624 114.842 9.05588 115.091 9.5533C115.632 10.6213 115.632 11.8795 115.091 12.9474Z" fill="black"/>
<path d="M121.616 2.25293H119.524V4.56446H121.616V2.25293Z" fill="black"/>
<path d="M121.616 6.20312H119.524V16.1807H121.616V6.20312Z" fill="black"/>
<path d="M129.209 7.98779C129.794 7.98779 130.233 8.19261 130.54 8.61688C130.847 9.04115 130.994 9.71412 130.994 10.6504V16.1806H133.071V10.153C133.071 9.64097 133.027 9.1143 132.939 8.61688C132.866 8.16335 132.705 7.72445 132.486 7.32944C132.266 6.96369 131.945 6.65646 131.564 6.45164C131.096 6.21757 130.584 6.11516 130.072 6.12979C129.501 6.12979 128.945 6.21757 128.419 6.39313C127.921 6.55405 127.453 6.80276 127.029 7.12462C126.634 7.43185 126.298 7.81223 126.034 8.26576V6.27609H124.132V16.1806H126.224V10.2993C126.371 9.86042 126.605 9.45079 126.927 9.1143C127.234 8.77781 127.6 8.49984 127.995 8.29502C128.375 8.10483 128.785 8.00242 129.209 7.98779Z" fill="black"/>
<path d="M135.968 14.1324C135.953 14.5859 136.07 15.0248 136.304 15.4052C136.523 15.7271 136.831 15.9904 137.196 16.1367C137.577 16.2976 137.986 16.3708 138.396 16.3708C138.747 16.3708 139.084 16.3269 139.42 16.2538C139.727 16.1806 140.035 16.0928 140.327 15.9758C140.605 15.8734 140.825 15.771 141 15.6978L140.532 14.0446C140.43 14.0885 140.239 14.1763 139.976 14.2787C139.713 14.3811 139.42 14.4396 139.128 14.4396C138.864 14.4543 138.601 14.3665 138.396 14.1909C138.191 14.0007 138.06 13.7228 138.06 13.4302V7.90006H140.239V6.27613H138.06V2.99902H135.968V6.27613H134.636V7.90006H135.968V14.1324Z" fill="black"/>
<path d="M48.7165 27.6358H50.633V28.6307C50.3112 29.0111 49.9308 29.3329 49.4919 29.5963C49.053 29.845 48.5556 29.9766 48.0436 29.9766C47.634 29.9766 47.239 29.8889 46.8732 29.7133C46.5075 29.5377 46.1856 29.289 45.9223 28.9964C45.6443 28.6892 45.4395 28.3234 45.2932 27.9284C45.1469 27.5042 45.0738 27.0653 45.0738 26.6117C45.0738 26.1875 45.1469 25.7486 45.2786 25.3389C45.4103 24.9439 45.6004 24.5782 45.8638 24.2563C46.1125 23.9491 46.4197 23.6858 46.7708 23.5102C47.1366 23.32 47.5462 23.2322 47.9558 23.2322C48.4678 23.2322 48.9799 23.3493 49.4188 23.6126C49.8723 23.8759 50.238 24.2709 50.4575 24.7391L51.5693 23.9345C51.2621 23.3346 50.7939 22.8226 50.2088 22.4715C49.609 22.1057 48.8628 21.9155 47.9851 21.9155C47.3853 21.9155 46.7854 22.0326 46.2441 22.2813C45.7175 22.53 45.2493 22.8665 44.8543 23.2907C44.0351 24.1832 43.5962 25.3389 43.5962 26.5532C43.5962 27.1677 43.7132 27.7821 43.9327 28.3527C44.1521 28.9086 44.4593 29.4207 44.8543 29.8596C45.2347 30.2985 45.7175 30.6496 46.2441 30.8983C46.7708 31.147 47.356 31.2787 47.9412 31.2787C48.9652 31.2787 49.8577 30.8837 50.6184 30.079V31.2202H51.8473V26.5386H48.7165V27.6358Z" fill="black"/>
<path d="M55.8264 30.0354C55.6655 30.0793 55.5045 30.0939 55.3436 30.0939C55.1973 30.0939 55.0657 30.05 54.9486 29.9476C54.8462 29.8452 54.7877 29.6258 54.7877 29.2893V21.7256H53.354V29.7867C53.354 30.2695 53.4857 30.6499 53.7636 30.9278C54.0416 31.2058 54.422 31.3375 54.9194 31.3375C55.1827 31.3375 55.4314 31.3082 55.6801 31.2497C55.9288 31.2058 56.1775 31.1326 56.4262 31.0302L56.2214 29.9184C56.119 29.9622 55.9873 29.9915 55.8264 30.0354Z" fill="black"/>
<path d="M61.7661 24.6514C61.3126 24.4612 60.8298 24.3588 60.3324 24.3734C59.835 24.3734 59.3522 24.4612 58.8987 24.6514C58.4744 24.827 58.1087 25.0903 57.7869 25.4122C57.4796 25.734 57.2456 26.1144 57.0846 26.5241C56.9237 26.9483 56.8359 27.4165 56.8359 27.87C56.8359 28.3235 56.9237 28.7624 57.0846 29.1867C57.2456 29.5963 57.4943 29.9767 57.7869 30.2986C58.0941 30.6204 58.4744 30.8838 58.8841 31.0593C59.3376 31.2495 59.835 31.3519 60.3324 31.3373C60.8298 31.3519 61.3126 31.2495 61.7661 31.0593C62.1903 30.8838 62.5561 30.6204 62.8779 30.2986C63.1852 29.9767 63.4192 29.5963 63.5802 29.1867C63.7411 28.7624 63.8289 28.3235 63.8289 27.87C63.8289 27.4019 63.7557 26.9483 63.5802 26.5241C63.2437 25.6901 62.5853 25.0172 61.7661 24.6514ZM62.0879 29.0258C61.927 29.3623 61.6637 29.6402 61.3565 29.8451C61.0492 30.0352 60.6835 30.1377 60.3178 30.1377C59.952 30.1377 59.6009 30.0352 59.3083 29.8451C59.0011 29.6402 58.7524 29.3623 58.5769 29.0404C58.3867 28.6747 58.2989 28.2796 58.2989 27.87C58.2989 27.475 58.3867 27.08 58.5769 26.7289C58.7524 26.407 59.0011 26.1144 59.3083 25.9096C59.6155 25.7048 59.9667 25.6024 60.3324 25.6024C60.6981 25.6024 61.0492 25.7048 61.3565 25.895C61.6637 26.0998 61.9124 26.3778 62.0879 26.7142C62.4537 27.4311 62.4537 28.2943 62.0879 29.0258Z" fill="black"/>
<path d="M71.1582 25.4416C70.8949 25.1198 70.573 24.8564 70.2073 24.6662C69.8269 24.476 69.4027 24.3736 68.9638 24.3883C68.4664 24.3736 67.969 24.5053 67.5447 24.7686C67.1351 25.032 66.7986 25.3685 66.5353 25.7781V21.7402H65.1016V31.2351H66.3451V30.0062C66.5938 30.4158 66.9303 30.7523 67.3399 30.9864C67.7641 31.2351 68.2615 31.3667 68.7443 31.3521C69.6221 31.3667 70.4706 31.001 71.0558 30.3426C71.3484 30.0208 71.5825 29.6404 71.7288 29.2308C71.8897 28.8065 71.9775 28.3383 71.9775 27.8848C71.9775 27.4313 71.9043 26.9924 71.758 26.5681C71.6264 26.1585 71.4215 25.7781 71.1582 25.4416ZM70.3536 28.7333C70.2512 28.9967 70.1049 29.2454 69.9147 29.4502C69.7245 29.655 69.5051 29.8306 69.2417 29.9476C68.9784 30.0647 68.6858 30.1378 68.3932 30.1378C68.203 30.1378 67.9982 30.1086 67.808 30.05C67.6032 29.9769 67.413 29.8891 67.2375 29.7721C67.0619 29.655 66.901 29.5234 66.7693 29.3624C66.6377 29.2015 66.5499 29.0259 66.506 28.8358V27.0655C66.6377 26.8022 66.7986 26.5535 66.9888 26.334C67.179 26.1146 67.3984 25.939 67.6617 25.8074C67.9104 25.6757 68.1884 25.6025 68.4664 25.6025C68.8467 25.5879 69.2125 25.7049 69.5197 25.9244C69.8269 26.1438 70.0756 26.4218 70.2365 26.7583C70.4121 27.1094 70.4999 27.5044 70.4852 27.8994C70.4999 28.1774 70.456 28.47 70.3536 28.7333Z" fill="black"/>
<path d="M78.8536 29.6257V27.124C78.8536 26.2462 78.5903 25.5732 78.0782 25.1051C77.5516 24.6369 76.8493 24.3882 75.9277 24.3882C75.4449 24.3882 74.9475 24.4613 74.4793 24.6223C74.0112 24.7832 73.5577 25.0026 73.1334 25.2952L73.6016 26.2754C73.9381 26.0414 74.3038 25.8365 74.6842 25.6903C75.0353 25.5586 75.401 25.4854 75.7668 25.5001C76.3081 25.5001 76.703 25.6317 76.9956 25.8951C77.2882 26.1877 77.4492 26.5827 77.4199 26.9923V27.4166C77.1419 27.3288 76.864 27.2557 76.5714 27.2118C76.2642 27.1679 75.9569 27.1386 75.6497 27.1386C75.1377 27.124 74.6256 27.2118 74.1429 27.402C73.7332 27.5483 73.3821 27.8116 73.1188 28.1481C72.8701 28.4699 72.7384 28.8649 72.7531 29.2746C72.7531 29.655 72.8555 30.0207 73.0456 30.3426C73.2505 30.6644 73.5431 30.9278 73.8795 31.1033C74.2599 31.2935 74.6695 31.3813 75.0938 31.3813C75.5766 31.3813 76.0593 31.2643 76.4982 31.0741C76.9371 30.8839 77.3321 30.5767 77.6247 30.1963L77.6686 30.5913C77.6979 30.7961 77.7856 30.9717 77.9466 31.1033C78.1514 31.2643 78.4001 31.352 78.6488 31.3374C78.7219 31.3228 78.8097 31.3228 78.8975 31.3081C78.9853 31.2935 79.1169 31.2789 79.234 31.2643V30.1231C79.1169 30.1231 79.0145 30.0792 78.9414 30.0061C78.8682 29.8598 78.839 29.7427 78.8536 29.6257ZM77.4345 29.0259C77.4345 29.1429 77.3906 29.2453 77.3321 29.3331C77.259 29.4501 77.1858 29.5672 77.098 29.6842C76.8932 29.8744 76.6592 30.0207 76.4105 30.1231C76.1179 30.2402 75.8106 30.3133 75.5034 30.3133C75.2401 30.3279 74.9914 30.2694 74.7573 30.1378C74.5671 30.0353 74.4062 29.889 74.2892 29.6989C74.1868 29.5379 74.1282 29.3331 74.1282 29.1429C74.1282 28.7918 74.3038 28.4699 74.611 28.2944C75.006 28.0749 75.4449 27.9725 75.8984 27.9872C76.1617 27.9872 76.4251 28.0164 76.6738 28.0603C76.9371 28.1042 77.1858 28.1773 77.4345 28.2797V29.0259Z" fill="black"/>
<path d="M83.0813 30.0354C82.9204 30.0793 82.7594 30.0939 82.5985 30.0939C82.4522 30.0939 82.3205 30.05 82.2035 29.9476C82.1011 29.8452 82.0426 29.6258 82.0426 29.2893V21.7256H80.6089V29.7867C80.6089 30.2695 80.7552 30.6499 81.0185 30.9278C81.2965 31.2058 81.6768 31.3375 82.1742 31.3375C82.4376 31.3375 82.6863 31.3082 82.935 31.2497C83.1837 31.2058 83.4324 31.1326 83.6811 31.0302L83.4763 29.9184C83.3739 29.9622 83.2276 29.9915 83.0813 30.0354Z" fill="black"/>
<path d="M93.2491 21.9888L90.4842 29.45L87.6899 21.9888H86.1392L89.7819 31.2203H91.1571L94.7853 21.9888H93.2491Z" fill="black"/>
<path d="M97.9305 24.3735C97.2868 24.3589 96.6431 24.5198 96.0872 24.8563C95.5605 25.1635 95.1363 25.6024 94.8437 26.1291C94.5511 26.6704 94.4048 27.2702 94.4048 27.8847C94.4048 28.3382 94.4926 28.7917 94.6535 29.216C94.99 30.0499 95.6483 30.7229 96.4822 31.0887C96.9357 31.2788 97.4331 31.3813 97.9305 31.3666C98.384 31.3666 98.8229 31.2935 99.2472 31.1325C99.6422 30.9862 99.9933 30.7814 100.301 30.5035C100.593 30.2547 100.813 29.9621 100.973 29.611L99.7592 29.2599C99.6276 29.5818 99.3788 29.8597 99.057 30.0207C98.7205 30.2109 98.3401 30.3133 97.9598 30.3133C97.6233 30.3133 97.2868 30.2255 96.9942 30.0646C96.687 29.9036 96.4383 29.6549 96.2481 29.3769C96.0433 29.0551 95.9263 28.704 95.897 28.3382H101.383C101.398 28.2797 101.398 28.2212 101.412 28.1188C101.427 28.031 101.427 27.9286 101.427 27.8262C101.427 27.7969 101.427 27.753 101.427 27.7091C101.368 25.8219 99.8031 24.3296 97.9305 24.3735ZM95.897 27.3726C95.9116 27.0069 96.0287 26.6558 96.2189 26.3485C96.409 26.0706 96.6577 25.8365 96.9503 25.6609C97.9013 25.1489 99.0716 25.4415 99.6714 26.3485C99.8616 26.6558 99.9787 27.0069 100.008 27.3726H95.897Z" fill="black"/>
<path d="M108.595 26.0705C108.537 25.7633 108.434 25.4707 108.288 25.1927C108.142 24.944 107.922 24.7245 107.659 24.5929C107.352 24.4319 107.001 24.3588 106.65 24.3734C106.269 24.3734 105.889 24.4319 105.523 24.549C105.187 24.666 104.865 24.8269 104.572 25.0464C104.294 25.2512 104.075 25.5145 103.899 25.8218V24.4758H102.597V31.2202H104.031V27.2116C104.133 26.919 104.294 26.6411 104.499 26.407C104.704 26.1729 104.953 25.9973 105.23 25.851C105.479 25.7194 105.772 25.6462 106.064 25.6316C106.415 25.617 106.767 25.7779 106.971 26.0705C107.176 26.3631 107.279 26.8166 107.279 27.4457V31.2202H108.698V27.1092C108.683 26.7727 108.654 26.407 108.595 26.0705Z" fill="black"/>
<path d="M113.38 29.9327C113.189 30.0058 112.999 30.0497 112.794 30.0497C112.619 30.0497 112.429 29.9912 112.297 29.8741C112.151 29.7425 112.063 29.5523 112.063 29.3621V25.5876H113.54V24.4757H112.063V22.2373H110.629V24.4757H109.722V25.5876H110.629V29.8302C110.615 30.1375 110.702 30.4447 110.863 30.6934C111.01 30.9129 111.214 31.0884 111.463 31.1908C111.726 31.3079 112.004 31.3518 112.282 31.3518C112.516 31.3518 112.75 31.3225 112.985 31.2786C113.204 31.2347 113.409 31.1616 113.614 31.0884C113.804 31.0153 113.95 30.9568 114.067 30.8982L113.76 29.7717C113.701 29.801 113.57 29.8595 113.38 29.9327Z" fill="black"/>
<path d="M121.162 29.6112V24.4761H119.729V28.6895C119.612 28.9821 119.436 29.2454 119.217 29.4795C119.012 29.6843 118.778 29.8599 118.514 29.9769C118.266 30.0793 118.002 30.1379 117.725 30.1379C117.344 30.1671 116.978 29.9916 116.759 29.6843C116.54 29.3771 116.422 28.9236 116.422 28.3238V24.4907H114.989V28.6164C114.989 29.5234 115.164 30.211 115.53 30.6645C115.896 31.1327 116.437 31.3668 117.139 31.3668C117.695 31.3668 118.251 31.2351 118.749 30.9864C119.231 30.7377 119.641 30.3573 119.919 29.8892L119.948 30.5475C119.963 30.767 120.08 30.9571 120.241 31.0888C120.431 31.2351 120.665 31.3083 120.899 31.3083C120.972 31.2936 121.045 31.2936 121.148 31.2936C121.265 31.279 121.397 31.2644 121.514 31.2497V30.1086C121.397 30.1086 121.294 30.0647 121.221 29.9916C121.192 29.8599 121.162 29.7429 121.162 29.6112Z" fill="black"/>
<path d="M126.444 24.3589C126.005 24.3881 125.595 24.5491 125.244 24.827C124.849 25.1196 124.527 25.5 124.308 25.9389V24.4759H122.991V31.2203H124.425V27.0654C124.6 26.6265 124.922 26.2608 125.347 26.0413C125.8 25.7926 126.297 25.661 126.81 25.661V24.3735C126.766 24.3589 126.722 24.3589 126.678 24.3589H126.444Z" fill="black"/>
<path d="M130.818 24.3736C130.174 24.3589 129.53 24.5199 128.974 24.8564C128.448 25.1636 128.023 25.6025 127.731 26.1292C127.438 26.6705 127.292 27.2703 127.292 27.8848C127.292 28.3383 127.38 28.7918 127.541 29.2161C127.877 30.05 128.536 30.723 129.369 31.0887C129.823 31.2789 130.32 31.3813 130.818 31.3667C131.271 31.3667 131.71 31.2935 132.134 31.1326C132.529 30.9863 132.88 30.7815 133.188 30.5035C133.48 30.2548 133.7 29.9622 133.861 29.6111L132.632 29.26C132.5 29.5818 132.251 29.8598 131.93 30.0207C131.593 30.2109 131.213 30.3133 130.832 30.3133C130.496 30.3133 130.159 30.2255 129.867 30.0646C129.56 29.9037 129.311 29.655 129.121 29.377C128.916 29.0552 128.799 28.704 128.77 28.3383H134.226C134.241 28.2798 134.241 28.2212 134.256 28.1188C134.27 28.0164 134.27 27.9286 134.27 27.8262C134.27 27.241 134.124 26.6558 133.846 26.1438C133.275 25.0173 132.09 24.3297 130.818 24.3736ZM128.77 27.3727C128.799 26.6558 129.208 26.0121 129.838 25.661C130.452 25.3245 131.198 25.3245 131.827 25.661C132.12 25.8219 132.383 26.056 132.559 26.3486C132.749 26.6558 132.866 27.007 132.895 27.3727H128.77Z" fill="black"/>
<path d="M139.405 27.7239C138.967 27.5483 138.513 27.402 138.059 27.2703C137.752 27.1679 137.504 27.0948 137.299 27.007C137.123 26.9485 136.962 26.8607 136.831 26.729C136.714 26.612 136.655 26.4511 136.67 26.2901C136.655 26.0999 136.728 25.9098 136.86 25.7635C136.992 25.6318 137.167 25.544 137.343 25.5001C137.533 25.4562 137.738 25.427 137.928 25.427C138.279 25.427 138.63 25.4855 138.952 25.6172C139.288 25.7635 139.61 25.9683 139.874 26.217L140.488 25.2807C140.181 24.9588 139.8 24.7247 139.376 24.5784C138.937 24.4175 138.469 24.3443 138.001 24.3443C137.518 24.3297 137.05 24.4175 136.611 24.5931C136.231 24.7394 135.909 24.9881 135.66 25.3099C135.426 25.6318 135.309 26.0268 135.324 26.4218C135.309 26.7437 135.397 27.0509 135.572 27.3142C135.763 27.5629 136.026 27.7678 136.319 27.8994C136.714 28.075 137.123 28.2359 137.533 28.353C137.869 28.4554 138.162 28.5285 138.411 28.6163C138.615 28.6748 138.806 28.7626 138.981 28.8943C139.127 29.0113 139.201 29.1869 139.186 29.3771C139.201 29.655 139.054 29.9037 138.82 30.0354C138.513 30.1963 138.177 30.2695 137.84 30.2549C137.445 30.2549 137.035 30.1671 136.67 30.0061C136.231 29.816 135.836 29.5672 135.485 29.26L134.958 30.1963C135.324 30.5767 135.777 30.8693 136.275 31.0449C136.801 31.2351 137.343 31.3375 137.899 31.3375C138.718 31.3375 139.362 31.1473 139.859 30.7815C140.342 30.4304 140.62 29.8598 140.59 29.26C140.605 28.9089 140.503 28.5578 140.283 28.2944C140.034 28.0457 139.742 27.8555 139.405 27.7239Z" fill="black"/>
<path d="M33.9407 4.63769C33.9114 4.03787 33.7798 3.43804 33.5603 2.8821C33.3263 2.28227 32.9751 1.74096 32.5216 1.28744C32.0535 0.848537 31.5122 0.512048 30.9124 0.307229C30.3564 0.11704 29.7566 0.0146299 29.1714 0C29.0252 0 28.8935 0 28.7472 0C28.6009 0 28.4692 0 28.3229 0.0146299C28.045 0.0438899 27.767 0.0585198 27.5037 0.10241C26.977 0.175559 26.4503 0.292599 25.9237 0.438899C24.9142 0.731497 23.9341 1.11188 22.9978 1.5654C22.7052 1.69707 22.4126 1.84337 22.1346 1.98967C19.3257 -0.585198 14.9369 -0.526678 12.2157 2.20912L6.04206 8.39759L5.95428 8.48537C5.91039 8.52926 5.85188 8.57315 5.80799 8.63167C4.71077 9.72892 4.11095 11.1919 4.11095 12.7281C4.11095 14.1472 4.62299 15.4931 5.54465 16.5465C5.28132 16.883 5.03262 17.2341 4.78391 17.5852C4.19873 18.4191 3.62818 19.2676 3.10151 20.1601C2.56022 21.0379 2.07744 21.9596 1.63855 22.8812C1.18503 23.8322 0.804665 24.8124 0.512073 25.8219C0.453555 26.0852 0.365777 26.3339 0.307259 26.5972L0.219482 26.9923C0.190222 27.1239 0.175593 27.2556 0.146334 27.4019C0.102445 27.6652 0.0731857 27.9578 0.0439265 28.2212C0.0292969 28.3675 0.0292969 28.4991 0.0292969 28.6454C0.0292969 28.7917 0.0292969 28.938 0.0292969 29.0697C0.0439265 29.6695 0.146334 30.2694 0.336518 30.8399C0.746147 32.0981 1.7117 33.1076 2.95522 33.5611C3.52577 33.7806 4.12558 33.9122 4.74003 33.9561C4.88632 33.9707 5.03262 33.9854 5.17891 33.9854C5.32521 33.9854 5.47151 34 5.6178 33.9854C5.89576 33.9707 6.18836 33.9561 6.46632 33.9269C7.02224 33.8683 7.56354 33.7659 8.0902 33.6343C9.1289 33.3855 10.1383 33.0491 11.1332 32.6248C11.4989 32.4785 11.85 32.3176 12.2011 32.142C13.3276 33.2685 14.8198 33.8244 16.2974 33.8244C17.0435 33.8244 17.7896 33.6781 18.4772 33.4002C19.1063 33.1368 19.7061 32.7711 20.2328 32.2883L26.8161 25.7048C28.835 23.7005 29.3909 20.7745 28.5131 18.2582C28.9227 17.6876 29.3324 17.117 29.7127 16.5172C30.2687 15.654 30.81 14.7616 31.3074 13.8253C31.8048 12.9036 32.2583 11.9527 32.6533 10.9725C33.0629 9.97763 33.3848 8.96816 33.6335 7.92943C33.7651 7.38812 33.8529 6.86145 33.9114 6.30551C33.9407 6.02754 33.9553 5.74957 33.97 5.4716C33.9846 5.3253 33.97 5.19363 33.97 5.04733C33.97 4.93029 33.9553 4.78399 33.9407 4.63769ZM22.0322 28.8503C22.1785 27.8115 22.0468 26.7289 21.6226 25.7487C22.3687 25.0904 23.1002 24.4174 23.817 23.7151C24.5485 22.9837 25.2507 22.2375 25.9383 21.4621C26.1139 21.2719 26.2748 21.0671 26.4503 20.8769C26.6113 20.6867 26.7868 20.4819 26.9477 20.2771L27.4452 19.6773L27.6353 19.4286C28.0303 21.3451 27.4744 23.4079 25.9968 24.8855L22.0322 28.8503ZM19.5598 31.3227C17.8481 33.0344 15.127 33.1222 13.313 31.6007C13.5324 31.4837 13.7372 31.3812 13.9567 31.2496C15.7707 30.2401 17.5117 29.099 19.1502 27.8262C19.6622 27.4165 20.1742 27.0069 20.6863 26.5826C20.935 27.3141 20.9935 28.1041 20.8472 28.8649C20.8179 29.0697 20.7594 29.2599 20.7009 29.4647C20.6863 29.5232 20.657 29.5964 20.6278 29.6549C20.6131 29.7134 20.5839 29.7866 20.5546 29.8451C20.5546 29.8451 20.5546 29.8597 20.54 29.8597C20.5107 29.9182 20.4961 29.9768 20.4668 30.0353C20.3498 30.284 20.2035 30.5327 20.0426 30.7522C20.0133 30.796 19.9841 30.8399 19.9402 30.8838C19.9255 30.8985 19.9109 30.9131 19.8963 30.9423C19.8817 30.9716 19.8524 30.9862 19.8378 31.0155C19.75 31.1179 19.6622 31.2203 19.5598 31.3227ZM21.5348 3.04303L27.4452 8.95353L23.8316 12.5818L20.9057 15.5077L19.238 13.8546L14.0152 8.63167C13.5324 8.14888 12.9765 7.7685 12.3913 7.49053C12.3035 7.44664 12.2011 7.40275 12.0987 7.35886C12.0548 7.34423 12.0109 7.32961 11.967 7.30034C11.9232 7.28572 11.8793 7.27108 11.8354 7.25645C11.7915 7.24182 11.7476 7.22719 11.7037 7.21256C11.6159 7.18331 11.5282 7.15405 11.4404 7.12479C11.3526 7.09553 11.2648 7.0809 11.177 7.06627C11.0015 7.02238 10.8113 6.99312 10.6211 6.97849C10.5333 6.96386 10.4309 6.96386 10.3432 6.94923C10.27 6.94923 10.1969 6.9346 10.1237 6.9346C10.0506 6.9346 9.97742 6.9346 9.9189 6.9346C9.84575 6.9346 9.78724 6.9346 9.71409 6.9346C9.50927 6.9346 9.30446 6.96386 9.11427 6.97849L13.0643 3.0284C15.3904 0.702238 19.2087 0.702237 21.5348 3.04303ZM12.64 28.9527C12.2304 29.2014 11.8061 29.4501 11.3672 29.6695L6.12984 24.432L9.77261 20.8038L13.5178 24.5491L16.4291 21.6377L19.0185 24.2272C18.4918 24.6954 17.9506 25.1489 17.3946 25.5878C16.6339 26.2022 15.8585 26.8021 15.0685 27.358C14.2785 27.9139 13.4593 28.4553 12.64 28.9527ZM5.63243 10.9578C5.8665 10.4019 6.20299 9.88985 6.64187 9.45095C6.68576 9.40706 6.72965 9.36317 6.77354 9.31928C6.8028 9.29002 6.83206 9.26076 6.86132 9.24613C6.90521 9.20224 6.96372 9.15835 7.02224 9.11446L7.03687 9.09983C7.09539 9.05594 7.13928 9.02668 7.1978 8.98279C7.1978 8.98279 7.1978 8.98279 7.21243 8.98279C7.25632 8.95353 7.3002 8.92427 7.34409 8.89501C7.38798 8.86575 7.43187 8.83649 7.47576 8.80723C7.51965 8.77797 7.56354 8.74871 7.60743 8.71945C7.73909 8.6463 7.88539 8.57315 8.03168 8.5C8.07557 8.47074 8.11946 8.45611 8.16335 8.44148C8.20724 8.42685 8.26576 8.39759 8.30965 8.38296C8.36817 8.3537 8.44131 8.33907 8.49983 8.30981C8.55835 8.29518 8.6315 8.26592 8.70465 8.25129C8.83631 8.22203 8.96798 8.17814 9.11427 8.16351C9.18742 8.14888 9.24594 8.13425 9.31909 8.13425C9.40687 8.11962 9.48001 8.11962 9.56779 8.10499C9.59705 8.10499 9.61168 8.10499 9.64094 8.10499C9.68483 8.10499 9.71409 8.10499 9.75798 8.10499C9.78724 8.10499 9.8165 8.10499 9.84575 8.10499C9.88964 8.10499 9.93353 8.10499 9.96279 8.10499C10.0067 8.10499 10.0506 8.10499 10.0798 8.10499C10.1237 8.10499 10.153 8.10499 10.1969 8.10499C10.1969 8.10499 10.1969 8.10499 10.2115 8.10499C10.27 8.10499 10.3285 8.11962 10.4017 8.11962C10.4602 8.11962 10.5187 8.13425 10.5919 8.14888C10.665 8.16351 10.7382 8.17814 10.8113 8.17814C10.8845 8.17814 10.9576 8.2074 11.0308 8.22203C11.1039 8.23666 11.177 8.25129 11.2502 8.28055C11.2941 8.29518 11.3526 8.30981 11.3965 8.32444C11.4258 8.33907 11.455 8.33907 11.4843 8.3537C11.5574 8.38296 11.6306 8.39759 11.6891 8.42685C11.7622 8.45611 11.8354 8.48537 11.9085 8.52926C12.3767 8.74871 12.8156 9.05594 13.1959 9.43632L16.3267 12.5671L12.6839 16.2392L11.85 17.0732L12.2596 17.4828L12.6693 17.8924L15.5806 20.8038L13.4885 22.8959L10.5772 19.9845L10.1676 19.5749L9.75798 19.1652L6.62724 16.0344C5.74947 15.1566 5.26669 14.0009 5.26669 12.7573C5.28132 12.1136 5.39836 11.5138 5.63243 10.9578ZM25.6603 17.2926C25.0459 18.0534 24.4022 18.7849 23.7439 19.5164C23.0855 20.2478 22.4126 20.9501 21.725 21.6523C21.1252 22.2668 20.5107 22.8666 19.8817 23.4372L17.2483 20.8038L16.8387 20.3941L16.4291 19.9845L13.5178 17.0732L17.1606 13.4449L18.1846 14.469L20.4961 16.7806L20.9057 17.1902L23.8316 14.2642L25.9968 16.4294C26.07 16.5026 26.1285 16.5757 26.2016 16.6489C26.0261 16.8391 25.8505 17.0732 25.6603 17.2926ZM7.46113 31.352C7.24169 31.4105 7.02224 31.4837 6.8028 31.5275L6.46632 31.6007C6.34928 31.63 6.24687 31.6299 6.14447 31.6592C5.92502 31.7031 5.70558 31.7177 5.48614 31.747C5.3691 31.7616 5.26669 31.7616 5.16428 31.7616C5.06188 31.7616 4.95947 31.7616 4.84243 31.7616C4.44743 31.7616 4.05243 31.7031 3.67207 31.5714C3.33558 31.469 3.04299 31.2935 2.77966 31.0594C2.28225 30.5912 1.98966 29.8597 1.91651 28.9966C1.90188 28.8941 1.90188 28.7771 1.90188 28.6747C1.90188 28.5577 1.88726 28.4553 1.90188 28.3382C1.91651 28.1188 1.91651 27.8847 1.94577 27.6652C1.98966 27.1971 2.07744 26.7435 2.17985 26.29C2.39929 25.3537 2.70651 24.4466 3.07225 23.5542C3.45262 22.6472 3.87688 21.7694 4.34503 20.9062C4.98873 19.7358 5.70558 18.6093 6.46632 17.5267L8.93872 19.9991L4.47669 24.432L10.2846 30.2401C10.2261 30.2694 10.1676 30.2986 10.0945 30.3279C9.24594 30.7375 8.36817 31.074 7.46113 31.352ZM31.9511 5.06196C31.9511 5.179 31.9511 5.28141 31.9364 5.38382C31.9072 5.60327 31.8926 5.82272 31.8487 6.04217C31.7755 6.4957 31.6731 6.94923 31.5414 7.38812C31.2635 8.29518 30.9124 9.17298 30.4881 10.0215C30.0639 10.8847 29.5957 11.7332 29.0837 12.5379C28.4107 13.6059 27.6939 14.6592 26.9331 15.654C26.9039 15.6248 26.8746 15.5809 26.8307 15.5516L26.4065 15.9613L26.8161 15.5516L24.6509 13.3864L29.0983 8.9389L23.2026 3.04303C23.3342 2.98451 23.4513 2.92599 23.5829 2.8821C24.4753 2.50172 25.3824 2.20912 26.3187 1.97504C26.7722 1.858 27.2403 1.78485 27.7085 1.74096C27.9426 1.7117 28.162 1.7117 28.3961 1.69707H28.7326C28.8496 1.69707 28.952 1.69707 29.0544 1.7117C29.9322 1.77022 30.6929 2.07745 31.1903 2.5895C31.6877 3.10155 31.9218 3.87694 31.9364 4.7401C31.9511 4.85714 31.9511 4.95955 31.9511 5.06196Z" fill="black"/>
</g>
<defs>
<clipPath id="clip0_716_5503">
<rect width="141" height="34" fill="white"/>
</clipPath>
</defs>
</svg>
