<svg width="146" height="48" viewBox="0 0 146 48" fill="none" xmlns="http://www.w3.org/2000/svg">
<path d="M0 38.9687V0L14.261 8.01725V47.569L0 38.9687ZM21.5494 38.9687V0L35.8104 8.01725V47.569L21.5494 38.9687ZM43.0988 38.9687V0L57.3597 8.01725V47.569L43.0988 38.9687ZM87.4366 4.5431H92.7328V28.5463H86.9993L81.3629 19.3629C79.4193 16.2531 78.0102 13.848 77.1356 12.123C77.2814 14.8926 77.33 18.0024 77.33 21.4036V28.522H72.0337V4.51881H77.913L84.0353 14.5282C85.7359 17.2735 86.9021 19.2657 87.5823 20.5047C87.4851 18.6097 87.4366 15.8644 87.4366 12.2202V4.5431ZM107.334 19.4843V14.8926H118.752V28.5463H114.598L114.404 26.4812C113.019 28.2304 110.832 29.105 107.82 29.105C104.224 29.105 101.357 27.9389 99.2438 25.5823C97.1301 23.2257 96.0612 20.2132 96.0612 16.4961C96.0126 12.8519 97.1301 9.83934 99.3652 7.48276C101.649 5.10188 104.637 3.91144 108.354 3.96003C110.444 3.96003 112.29 4.30016 113.893 4.98041C115.521 5.66066 117.149 6.80251 118.825 8.43026L115.375 12.0016C114.015 10.8111 112.825 9.98512 111.756 9.49922C110.687 9.03762 109.569 8.79468 108.354 8.79468C106.289 8.79468 104.637 9.45063 103.422 10.7868C102.232 12.123 101.625 14.018 101.625 16.4718C101.625 18.9984 102.208 20.942 103.374 22.3268C104.564 23.6873 106.192 24.3433 108.233 24.3433C109.982 24.3433 111.343 23.9303 112.314 23.1042C113.31 22.2539 113.796 21.0878 113.796 19.5815V19.4843H107.334ZM133.791 3.93574C135.71 3.93574 137.338 4.22727 138.698 4.78605C140.083 5.36912 141.492 6.31662 142.926 7.62853L139.694 11.3942C138.504 10.3738 137.484 9.69358 136.609 9.32916C135.783 8.94044 134.811 8.74609 133.742 8.74609C131.726 8.74609 130.147 9.45063 128.932 10.8354C127.766 12.2202 127.183 14.0909 127.183 16.4718C127.183 18.877 127.766 20.7962 128.932 22.181C130.122 23.5658 131.726 24.2704 133.694 24.2704C134.86 24.2704 135.88 24.0517 136.73 23.6387C137.605 23.2257 138.723 22.4969 140.083 21.4036L143.217 25.1207C141.735 26.5055 140.229 27.5016 138.723 28.1575C137.241 28.7892 135.589 29.105 133.767 29.105C130.074 29.105 127.11 27.9146 124.923 25.558C122.712 23.1771 121.619 20.116 121.619 16.3989C121.619 12.7547 122.712 9.74217 124.899 7.40988C127.085 5.10188 130.049 3.93574 133.791 3.93574ZM76.0424 44.3864L79.3707 34.547H78.4718L75.5565 43.5361H75.5079L72.6168 34.5713H71.6693L74.9734 44.4107H76.0424V44.3864ZM85.9789 44.5564C87.3394 44.5564 88.3355 43.8519 88.7971 42.8072L88.1897 42.3942C87.801 43.3417 87.0236 43.8519 86.0032 43.8519C84.5212 43.8519 83.6466 42.8072 83.6466 41.301V40.9365H88.9914V40.5478C88.9914 38.4342 87.801 37.0008 85.9546 37.0008C84.0353 37.0008 82.8206 38.4099 82.8206 40.7665C82.8206 43.1231 84.0596 44.5564 85.9789 44.5564ZM85.9546 37.6811C87.2422 37.6811 88.1168 38.6771 88.1168 40.2077V40.3292H83.6466V40.2563C83.6709 38.7257 84.5698 37.6811 85.9546 37.6811ZM94.6521 44.3864V39.3088C94.6521 38.2398 95.5996 37.7296 96.6199 37.7296C97.8104 37.7296 98.4663 38.4342 98.4663 39.8919V44.3864H99.2681V39.7461C99.2681 37.9969 98.3692 37.0008 96.8386 37.0008C95.6725 37.0008 95.0408 37.5596 94.7007 38.3127H94.6521V37.1709H93.8503V44.3864H94.6521ZM107.285 44.3864V43.6818H105.755V37.8754H107.382V37.1709H105.755V35.1544H105.026V36.6121C105.026 37.0251 104.904 37.1709 104.516 37.1709H103.69V37.8754H104.953V43.4875C104.953 44.022 105.269 44.3864 105.852 44.3864H107.285ZM116.639 44.3864H117.44V37.1709H116.639V42.2242C116.639 43.3174 115.691 43.8276 114.695 43.8276C113.505 43.8276 112.849 43.1231 112.849 41.6411V37.1709H112.047V41.8111C112.047 43.5604 112.97 44.5564 114.501 44.5564C115.74 44.5564 116.323 43.9248 116.59 43.2445H116.639V44.3864ZM123.684 44.3864V39.4546C123.684 38.5314 124.535 37.9726 125.749 37.9726H126.381V37.1952H125.895C124.656 37.1952 124.024 37.8025 123.733 38.4828H123.684V37.1952H122.882V44.4107H123.684V44.3864ZM133.281 44.5564C134.641 44.5564 135.637 43.8519 136.099 42.8072L135.516 42.4185C135.127 43.366 134.35 43.8762 133.329 43.8762C131.847 43.8762 130.973 42.8315 130.973 41.3253V40.9365H136.317V40.5478C136.317 38.4342 135.127 37.0008 133.281 37.0008C131.361 37.0008 130.147 38.4099 130.147 40.7665C130.147 43.1231 131.337 44.5564 133.281 44.5564ZM133.256 37.6811C134.544 37.6811 135.419 38.6771 135.419 40.2077V40.3292H130.948V40.2563C130.973 38.7257 131.872 37.6811 133.256 37.6811ZM143.193 44.5564C144.772 44.5564 145.744 43.7547 145.744 42.4185C145.744 41.2524 145.064 40.6207 143.582 40.4021L142.998 40.3292C141.978 40.1591 141.444 39.8433 141.444 39.0173C141.444 38.1912 142.051 37.7296 143.071 37.7296C144.067 37.7296 144.651 38.1912 145.039 38.6528L145.574 38.1669C145.039 37.511 144.31 37.0494 143.12 37.0494C141.735 37.0494 140.666 37.7296 140.666 39.0658C140.666 40.3535 141.565 40.888 142.877 41.0823L143.46 41.1795C144.505 41.3253 144.942 41.7626 144.942 42.54C144.942 43.4146 144.31 43.9005 143.217 43.9005C142.27 43.9005 141.565 43.5118 140.982 42.7343L140.399 43.1959C141.079 44.0705 141.954 44.5564 143.193 44.5564Z" fill="#232323"/>
</svg>
