<svg width="139" height="49" viewBox="0 0 139 49" fill="none" xmlns="http://www.w3.org/2000/svg">
<path d="M92.7567 20.6441C91.6502 19.7585 90.9074 18.7052 90.5245 17.4844L84.8584 25.0742C85.2165 25.4379 85.5898 25.7941 85.9935 26.1369C89.4865 29.0909 93.8861 30.567 99.1999 30.567H114.547L120.651 22.6801H99.1999C96.6021 22.6801 94.4537 22.0021 92.7567 20.6441Z" fill="#232323"/>
<path d="M91.1749 11.818C91.5748 11.1628 92.1024 10.5667 92.7576 10.0277C92.7709 10.0181 92.7804 10.0086 92.7938 9.99718C94.1155 8.91728 95.7154 8.26782 97.5819 8.03165C98.1019 7.96689 98.6389 7.9269 99.1989 7.9269H114.546L120.65 0H102.915H100.26H99.2027C93.8032 0 89.3826 1.38463 85.9334 4.1539C85.2878 4.67195 84.7031 5.22238 84.1774 5.80138L84.1736 5.80518C83.5146 6.53274 82.949 7.3079 82.4842 8.13068L74.6545 18.9087L61.7909 1.08562L61.0062 0.00190645H49.2206H29.9081C26.4589 0.00190645 23.5772 0.794217 21.2594 2.37312C18.772 4.07011 17.5302 6.33085 17.5302 9.15917C17.5302 11.957 18.7701 14.2025 21.2594 15.8976C23.5772 17.4803 26.4589 18.2726 29.9081 18.2726H45.4648C46.4818 18.2726 47.3732 18.4116 48.135 18.6954C49.152 19.0916 49.6625 19.6706 49.6625 20.4343C49.6625 21.1695 49.1539 21.7485 48.135 22.1713C47.3427 22.5103 46.4551 22.6798 45.4648 22.6798H23.5925L17.4883 30.5667H45.4667C49.1997 30.5667 52.2794 29.6754 54.7115 27.8965C57.3094 26.03 58.6102 23.5864 58.6102 20.5619C58.6102 17.5089 57.3265 15.0234 54.7515 13.1017C52.266 11.2923 49.1692 10.3876 45.4686 10.3876H29.9119C28.7539 10.3876 28.1749 9.97813 28.1749 9.16107C28.1749 8.34019 28.7539 7.9307 29.9119 7.9307H55.0029L69.3159 27.5594C71.0091 29.8754 72.7346 31.0353 74.4888 31.0353C76.2391 31.0353 77.9646 29.8906 79.6578 27.5994L83.1146 22.9693L87.3504 17.2956C88.6798 15.5071 90.0131 13.7168 91.1749 11.818Z" fill="#232323"/>
<path d="M8.19353 39.713L7.27552 41.6176C6.26228 41.0291 4.98811 40.6177 4.20723 40.6177C3.57681 40.6177 3.15209 40.85 3.15209 41.3167C3.15209 42.9737 8.2202 42.029 8.2202 45.4953C8.2202 47.4132 6.52131 48.4265 4.38436 48.4265C2.7807 48.4265 1.13704 47.8246 0 46.8914L0.944674 45.0154C1.93125 45.8782 3.41111 46.4533 4.41102 46.4533C5.17857 46.4533 5.65853 46.1657 5.65853 45.6172C5.65853 43.9183 0.59042 44.9316 0.59042 41.5357C0.59042 39.7682 2.11028 38.6445 4.41293 38.6445C5.79756 38.6445 7.20696 39.0693 8.19353 39.713Z" fill="#232323"/>
<path d="M13.2618 44.5753L11.9877 45.9865V48.3425H9.5498V38.7529H11.9877V42.903L15.6597 38.7529H18.4823L14.9207 42.7259L18.7147 48.3425H15.7968L13.2618 44.5753Z" fill="#232323"/>
<path d="M24.7277 48.3425H22.3031V45.3142L18.7549 38.7529H21.1928L23.5068 42.9316L25.7676 38.7529H28.2054L24.7258 45.2457V48.3425H24.7277Z" fill="#232323"/>
<path d="M31.8504 48.3425L28.125 38.7529H30.7286L33.1798 45.8075L35.631 38.7529H38.1374L34.3701 48.3425H31.8504Z" fill="#232323"/>
<path d="M39.084 48.3425V38.7529H41.5219V48.3425H39.084Z" fill="#232323"/>
<path d="M50.9055 39.713L49.9874 41.6176C48.9742 41.0291 47.7 40.6177 46.9192 40.6177C46.2887 40.6177 45.864 40.85 45.864 41.3167C45.864 42.9737 50.9321 42.029 50.9321 45.4953C50.9321 47.4132 49.2332 48.4265 47.0963 48.4265C45.4926 48.4265 43.849 47.8246 42.7119 46.8914L43.6566 45.0154C44.6432 45.8782 46.123 46.4533 47.1229 46.4533C47.8905 46.4533 48.3704 46.1657 48.3704 45.6172C48.3704 43.9183 43.3023 44.9316 43.3023 41.5357C43.3023 39.7682 44.8222 38.6445 47.1248 38.6445C48.5076 38.6445 49.9189 39.0693 50.9055 39.713Z" fill="#232323"/>
<path d="M52.2617 48.3425V38.7529H54.6996V48.3425H52.2617Z" fill="#232323"/>
<path d="M66.3578 43.5333C66.3578 46.3273 64.1389 48.4509 61.1659 48.4509C58.2061 48.4509 55.9873 46.3407 55.9873 43.5333C55.9873 40.7393 58.2061 38.6709 61.1659 38.6709C64.1389 38.6709 66.3578 40.7526 66.3578 43.5333ZM58.4804 43.5485C58.4804 45.1655 59.7279 46.4111 61.1925 46.4111C62.6724 46.4111 63.8494 45.1655 63.8494 43.5485C63.8494 41.9315 62.6705 40.7126 61.1925 40.7126C59.7146 40.7126 58.4804 41.9315 58.4804 43.5485Z" fill="#232323"/>
<path d="M74.3439 48.3425L69.9329 42.4383V48.3425H67.6455V38.7529H69.7958L74.2201 44.6705V38.7529H76.4942V48.3425H74.3439Z" fill="#232323"/>
<path d="M91.3017 40.1217L90.6447 40.9578C89.9057 40.2035 88.8639 39.7522 87.8087 39.7522C85.6451 39.7522 83.9043 41.4225 83.9043 43.5328C83.9043 45.6278 85.6432 47.3134 87.8087 47.3134C88.8639 47.3134 89.8904 46.8753 90.6447 46.163L91.3151 46.9172C90.3704 47.8067 89.0829 48.3971 87.7535 48.3971C84.9861 48.3971 82.7939 46.2468 82.7939 43.5347C82.7939 40.8492 85.0128 38.7256 87.7935 38.7256C89.1096 38.7256 90.3837 39.2589 91.3017 40.1217Z" fill="#232323"/>
<path d="M94.0828 45.918L93.0143 48.3425H91.8506L96.1511 38.7529H97.2882L101.575 48.3425H100.383L99.3147 45.918H94.0828ZM96.6863 40.0004L94.5494 44.8628H98.8499L96.6863 40.0004Z" fill="#232323"/>
<path d="M106.686 38.7529C109.055 38.7529 110.424 39.9319 110.424 41.9717C110.424 44.0953 109.055 45.3142 106.686 45.3142H104.179V48.3425H103.084V38.7529H106.686ZM104.179 44.2591H106.646C108.371 44.2591 109.371 43.4915 109.371 41.9983C109.371 40.547 108.371 39.8062 106.646 39.8062H104.179V44.2591Z" fill="#232323"/>
<path d="M112.247 48.3425V38.7529H113.342V48.3425H112.247Z" fill="#232323"/>
<path d="M119.164 39.8081V48.3425H118.069V39.8081H114.945V38.7529H122.301V39.8081H119.164Z" fill="#232323"/>
<path d="M123.837 45.918L122.768 48.3425H121.604L125.905 38.7529H127.042L131.329 48.3425H130.137L129.069 45.918H123.837ZM126.44 40.0004L124.303 44.8628H128.604L126.44 40.0004Z" fill="#232323"/>
<path d="M138.138 47.3007V48.3425H132.836V38.7529H133.931V47.3007H138.138Z" fill="#232323"/>
</svg>
