<svg width="139" height="40" viewBox="0 0 139 40" fill="none" xmlns="http://www.w3.org/2000/svg">
<path d="M15.0539 6.24609H5.82617V8.52973H15.0539V6.24609Z" fill="#1F272A"/>
<path fill-rule="evenodd" clip-rule="evenodd" d="M6.24414 24.9336V27.2638V31.1786V33.5089H8.57438V24.9336H6.24414Z" fill="#1F272A"/>
<path d="M33.9284 31.1797H25.1201V33.4633H33.9284V31.1797Z" fill="#1F272A"/>
<path fill-rule="evenodd" clip-rule="evenodd" d="M33.4614 14.7748V6.24609H31.1777V14.7748H33.4614Z" fill="#1F272A"/>
<path fill-rule="evenodd" clip-rule="evenodd" d="M19.6206 0H0L0.0466076 39.7539H20.1333H39.7539L39.7073 0.0465934L19.6206 0ZM37.4236 2.33024V18.7351H33.4622H27.2172V2.33024H37.4236ZM2.33024 8.57528V6.24504V2.33024H15.0999H17.0107H18.5487H18.6419V12.4901H16.8243H2.33024V8.57528ZM2.33024 37.4236V24.9336V21.0187H4.24104H12.4901V37.4236H2.33024ZM18.7351 24.9336V37.4236H14.8203V18.7351H2.33024V14.8203H18.6885L18.7351 19.807V21.0654H21.0654V19.7604V2.37683H24.9802V21.0654H37.4236V24.9802H37.1906H33.2758H25.12H18.7351V24.9336ZM37.4236 34.4409V37.4236H21.2052L21.1586 33.5088V31.2252H21.112L21.0654 27.3104H37.377V30.5727V34.4409H37.4236Z" fill="#1F272A"/>
<path d="M55.6914 5.96551C55.1321 6.43156 54.8525 7.03742 54.8525 7.7831C54.8525 8.52877 55.1787 9.13464 55.8778 9.55409C56.5303 9.97353 58.1148 10.5328 60.5383 11.1386C62.9617 11.7445 64.8725 12.63 66.2241 13.8417C67.5756 15.0534 68.2281 16.8244 68.2281 19.1081C68.2281 21.4383 67.3426 23.3025 65.6182 24.7472C63.8938 26.192 61.6102 26.8911 58.7673 26.8911C54.7127 26.8911 51.0309 25.3997 47.7686 22.3704L51.2173 18.176C54.0136 20.5994 56.5769 21.8111 58.9071 21.8111C59.979 21.8111 60.7713 21.5781 61.3772 21.1121C61.983 20.646 62.2626 20.0402 62.2626 19.2479C62.2626 18.4556 61.9364 17.8497 61.2839 17.3837C60.6315 16.9176 59.3731 16.4516 57.509 15.9855C54.5262 15.2865 52.3358 14.3544 50.9377 13.1893C49.5395 12.0707 48.8405 10.2532 48.8405 7.8297C48.8405 5.40626 49.726 3.49546 51.4969 2.19052C53.2679 0.885589 55.4583 0.186523 58.0682 0.186523C59.7926 0.186523 61.517 0.466149 63.2413 1.07201C64.9657 1.67787 66.4571 2.51676 67.7154 3.58867L64.8259 7.7831C62.5889 6.10533 60.2586 5.21983 57.8818 5.21983C57.0429 5.31304 56.2506 5.49947 55.6914 5.96551Z" fill="#1F272A"/>
<path d="M138.229 22.0455V26.9856H118.469V23.0708L128.535 13.5634C130.865 11.373 131.285 10.0215 131.285 8.76315C131.285 6.71254 129.887 5.50082 127.09 5.50082C124.853 5.50082 122.943 6.33971 121.684 8.11069L117.257 5.26779C119.261 2.33169 122.943 0.420898 127.65 0.420898C133.475 0.420898 137.343 3.40361 137.343 8.1573C137.343 10.7206 136.644 13.0042 132.963 16.4063L126.997 22.0455H138.229Z" fill="#1F272A"/>
<path d="M83.8398 0.279297H89.9917V21.8573H103.321V26.8906H83.8398V0.279297Z" fill="#1F272A"/>
<path d="M48.2354 35.745C48.2354 33.5546 49.9131 32.0166 52.1502 32.0166C53.4085 32.0166 54.4338 32.4827 55.1329 33.3215L54.0609 34.3002C53.5949 33.741 52.9424 33.4614 52.2434 33.4614C50.8918 33.4614 49.9131 34.3934 49.9131 35.7916C49.9131 37.1897 50.8918 38.1218 52.2434 38.1218C52.989 38.1218 53.5949 37.8422 54.0609 37.2829L55.1329 38.2616C54.4338 39.1005 53.4085 39.5666 52.1502 39.5666C49.9131 39.4734 48.2354 37.9354 48.2354 35.745Z" fill="#1F272A"/>
<path d="M68.2744 37.7952H64.9188L64.2664 39.3331H62.542L65.7577 32.1094H67.4355L70.6512 39.3331H68.8802L68.2744 37.7952ZM67.7617 36.5368L66.5966 33.7872L65.4315 36.5368H67.7617Z" fill="#1F272A"/>
<path d="M85.0527 34.7667C85.0527 36.3978 83.8409 37.3765 81.9301 37.3765H80.4854V39.3805H78.8076V32.1568H81.9301C83.8409 32.1102 85.0527 33.1355 85.0527 34.7667ZM83.3749 34.7667C83.3749 33.9744 82.8622 33.5083 81.8369 33.5083H80.4854V36.025H81.8369C82.8622 36.025 83.3749 35.5589 83.3749 34.7667Z" fill="#1F272A"/>
<path d="M93.6279 32.1094H95.3057V39.3331H93.6279V32.1094Z" fill="#1F272A"/>
<path d="M105.885 33.5088H103.555V32.1572H109.846V33.5088H107.516V39.381H105.838V33.5088H105.885Z" fill="#1F272A"/>
<path d="M122.523 37.7952H119.168L118.515 39.3331H116.791L120.007 32.1094H121.685L124.9 39.3331H123.129L122.523 37.7952ZM122.011 36.5368L120.846 33.7872L119.681 36.5368H122.011Z" fill="#1F272A"/>
<path d="M133.055 32.1094H134.732V37.9816H138.368V39.3331H133.055V32.1094Z" fill="#1F272A"/>
</svg>
